<svg version="1.1" id="Layer_1" xmlns="http://www.w3.org/2000/svg" xmlns:xlink="http://www.w3.org/1999/xlink" x="0px" y="0px"
	 width="100%" viewBox="0 0 225 225" enable-background="new 0 0 225 225" xml:space="preserve">
<path fill="#FD682A" opacity="1.000000" stroke="none" 
	d="
M113.000000,226.000000 
	C75.703064,226.000000 38.406128,226.000000 1.054597,226.000000 
	C1.054597,151.109558 1.054597,76.219055 1.054597,1.000000 
	C38.020245,1.000000 75.041466,1.000000 112.403931,1.454601 
	C112.700150,34.215382 112.655113,66.521561 112.194138,98.962982 
	C103.811417,98.827042 95.839485,98.658440 87.879112,98.259132 
	C77.561333,97.741585 70.308472,91.962135 64.207695,84.208069 
	C62.686161,82.274200 60.742512,80.672455 58.992878,78.918060 
	C58.419502,81.678741 57.802612,84.431648 57.306519,87.206146 
	C57.196732,87.820137 57.429619,88.540108 57.647781,89.161011 
	C59.544853,94.560120 61.474548,99.947762 63.513683,105.673355 
	C62.497971,106.482124 61.058571,107.599754 59.649689,108.754601 
	C48.534885,117.865356 37.939636,127.432426 30.919029,140.296646 
	C29.112602,143.606659 28.558035,146.307632 32.085770,148.935776 
	C35.495956,151.476364 38.258118,151.886246 41.779728,148.814270 
	C48.142776,143.263641 54.876369,138.131668 61.557537,132.956985 
	C62.883274,131.930161 64.668793,131.497009 66.242287,130.790100 
	C66.224014,132.176651 65.962654,132.877213 65.458611,133.247147 
	C55.649902,140.446457 48.619858,150.007584 42.127148,160.112854 
	C39.228436,164.624435 41.994713,166.810333 44.939072,169.140076 
	C47.860992,171.452026 50.622704,173.023239 53.928062,169.211533 
	C57.077602,165.579514 60.734070,162.356567 64.361946,159.175308 
	C78.118622,147.112213 94.118622,141.242416 112.514557,142.542130 
	C112.576210,164.052185 112.576599,185.101181 112.646454,206.149963 
	C112.668411,212.766968 112.876892,219.383331 113.000000,226.000000 
z"/>
<path fill="#F4BBC7" opacity="1.000000" stroke="none" 
	d="
M112.610069,98.827744 
	C112.655113,66.521561 112.700150,34.215382 112.872589,1.454601 
	C150.630096,1.000000 188.260178,1.000000 225.945129,1.000000 
	C225.945129,75.890564 225.945129,150.781189 225.945129,226.000000 
	C188.646408,226.000000 151.291870,226.000000 113.468658,226.000000 
	C112.876892,219.383331 112.668411,212.766968 112.646454,206.149963 
	C112.576599,185.101181 112.576210,164.052185 113.010620,142.451843 
	C129.255920,141.902512 143.517502,146.947754 156.739120,155.199554 
	C161.955078,158.454910 166.891663,162.154907 172.006500,165.576141 
	C176.046768,168.278625 177.844696,167.462555 180.748596,163.397491 
	C183.461105,159.600342 181.645645,156.812820 179.636719,153.974594 
	C173.050125,144.668930 163.678162,138.540665 154.483688,132.219421 
	C152.445465,130.818130 150.508331,129.269775 148.524658,127.789131 
	C150.610748,127.415794 152.225464,127.773354 153.634247,128.519653 
	C162.293701,133.106934 170.992065,137.633102 179.489075,142.508026 
	C182.497086,144.233780 184.723465,143.903290 187.142899,141.848785 
	C191.147171,138.448502 191.699478,134.813293 187.081070,131.112946 
	C178.444031,124.192780 169.080841,118.184959 160.162384,111.604301 
	C158.608582,110.457802 156.713348,108.251534 156.874847,106.737267 
	C157.031799,105.265602 159.425720,103.448372 161.196869,102.853844 
	C164.957047,101.591629 168.943237,100.988495 172.850327,100.180679 
	C185.829254,97.497192 192.403793,89.148819 191.351166,76.065605 
	C191.232315,74.588394 189.086792,72.285957 187.658340,72.102753 
	C184.423950,71.687920 180.894653,71.805092 177.762314,72.688309 
	C167.787338,75.500938 160.123825,71.861641 156.391708,62.323372 
	C154.952652,58.645554 153.197495,55.026695 151.066666,51.715397 
	C150.184937,50.345207 147.939407,49.852631 146.314117,48.960922 
	C145.606323,50.644581 144.898544,52.328243 144.120605,54.404167 
	C144.109009,55.853207 144.167557,56.909977 144.151825,58.288422 
	C143.731567,59.041378 143.385620,59.472660 143.018646,59.572754 
	C142.382019,58.098190 141.766418,56.954819 141.135696,55.850914 
	C141.120590,55.890377 141.202789,55.910023 141.172394,55.604538 
	C140.804581,54.810242 140.467148,54.321426 140.115997,53.869640 
	C140.102264,53.906666 140.179047,53.925110 140.116379,53.594986 
	C139.758423,52.940746 139.463150,52.616631 139.149506,52.064735 
	C138.830307,51.526798 138.529465,51.216644 138.111938,50.587936 
	C134.004700,47.561966 132.343735,48.143803 132.167480,52.720470 
	C131.920380,59.136784 132.073990,65.568527 131.971741,72.322083 
	C131.919434,73.098473 131.951599,73.546463 131.870697,74.337143 
	C131.565552,76.112610 131.373459,77.545380 131.049210,79.338943 
	C127.574715,92.894073 122.818909,97.863174 112.610069,98.827744 
z"/>
<path fill="#16140F" opacity="1.000000" stroke="none" 
	d="
M112.194138,98.962982 
	C122.818909,97.863174 127.574715,92.894073 131.317413,79.157623 
	C133.140961,77.151962 135.462967,75.740158 131.983749,73.994446 
	C131.951599,73.546463 131.919434,73.098473 132.279816,72.085846 
	C133.112579,69.825340 133.850891,68.143761 133.932968,66.430748 
	C134.122772,62.469982 134.149475,58.486099 133.947937,54.526577 
	C133.778030,51.188530 134.908997,49.879097 138.228622,50.906494 
	C138.529465,51.216644 138.830307,51.526798 139.248199,52.377380 
	C139.636520,53.253578 139.907776,53.589344 140.179047,53.925110 
	C140.179047,53.925110 140.102264,53.906666 140.140076,54.177032 
	C140.519516,54.934937 140.861160,55.422482 141.202789,55.910023 
	C141.202789,55.910023 141.120590,55.890377 141.101410,56.226658 
	C141.734695,57.676609 142.387177,58.790276 143.039658,59.903946 
	C143.385620,59.472660 143.731567,59.041378 144.324783,58.034180 
	C144.444962,56.309475 144.317871,55.160690 144.190765,54.011902 
	C144.898544,52.328243 145.606323,50.644581 146.314117,48.960922 
	C147.939407,49.852631 150.184937,50.345207 151.066666,51.715397 
	C153.197495,55.026695 154.952652,58.645554 156.391708,62.323372 
	C160.123825,71.861641 167.787338,75.500938 177.762314,72.688309 
	C180.894653,71.805092 184.423950,71.687920 187.658340,72.102753 
	C189.086792,72.285957 191.232315,74.588394 191.351166,76.065605 
	C192.403793,89.148819 185.829254,97.497192 172.850327,100.180679 
	C168.943237,100.988495 164.957047,101.591629 161.196869,102.853844 
	C159.425720,103.448372 157.031799,105.265602 156.874847,106.737267 
	C156.713348,108.251534 158.608582,110.457802 160.162384,111.604301 
	C169.080841,118.184959 178.444031,124.192780 187.081070,131.112946 
	C191.699478,134.813293 191.147171,138.448502 187.142899,141.848785 
	C184.723465,143.903290 182.497086,144.233780 179.489075,142.508026 
	C170.992065,137.633102 162.293701,133.106934 153.634247,128.519653 
	C152.225464,127.773354 150.610748,127.415794 148.524658,127.789131 
	C150.508331,129.269775 152.445465,130.818130 154.483688,132.219421 
	C163.678162,138.540665 173.050125,144.668930 179.636719,153.974594 
	C181.645645,156.812820 183.461105,159.600342 180.748596,163.397491 
	C177.844696,167.462555 176.046768,168.278625 172.006500,165.576141 
	C166.891663,162.154907 161.955078,158.454910 156.739120,155.199554 
	C143.517502,146.947754 129.255920,141.902512 112.976196,141.990692 
	C94.118622,141.242416 78.118622,147.112213 64.361946,159.175308 
	C60.734070,162.356567 57.077602,165.579514 53.928062,169.211533 
	C50.622704,173.023239 47.860992,171.452026 44.939072,169.140076 
	C41.994713,166.810333 39.228436,164.624435 42.127148,160.112854 
	C48.619858,150.007584 55.649902,140.446457 65.458611,133.247147 
	C65.962654,132.877213 66.224014,132.176651 66.242287,130.790100 
	C64.668793,131.497009 62.883274,131.930161 61.557537,132.956985 
	C54.876369,138.131668 48.142776,143.263641 41.779728,148.814270 
	C38.258118,151.886246 35.495956,151.476364 32.085770,148.935776 
	C28.558035,146.307632 29.112602,143.606659 30.919029,140.296646 
	C37.939636,127.432426 48.534885,117.865356 59.649689,108.754601 
	C61.058571,107.599754 62.497971,106.482124 63.513683,105.673355 
	C61.474548,99.947762 59.544853,94.560120 57.647781,89.161011 
	C57.429619,88.540108 57.196732,87.820137 57.306519,87.206146 
	C57.802612,84.431648 58.419502,81.678741 58.992878,78.918060 
	C60.742512,80.672455 62.686161,82.274200 64.207695,84.208069 
	C70.308472,91.962135 77.561333,97.741585 87.879112,98.259132 
	C95.839485,98.658440 103.811417,98.827042 112.194138,98.962982 
z"/>
<path fill="#1B1713" opacity="1.000000" stroke="none" 
	d="
M138.111938,50.587933 
	C134.908997,49.879097 133.778030,51.188530 133.947937,54.526577 
	C134.149475,58.486099 134.122772,62.469982 133.932968,66.430748 
	C133.850891,68.143761 133.112579,69.825340 132.364288,71.757439 
	C132.073990,65.568527 131.920380,59.136784 132.167480,52.720470 
	C132.343735,48.143803 134.004700,47.561966 138.111938,50.587933 
z"/>
<path fill="#1B1713" opacity="1.000000" stroke="none" 
	d="
M131.870697,74.337143 
	C135.462967,75.740158 133.140961,77.151962 131.449570,78.796829 
	C131.373459,77.545380 131.565552,76.112610 131.870697,74.337143 
z"/>
<path fill="#1B1713" opacity="1.000000" stroke="none" 
	d="
M143.018646,59.572754 
	C142.387177,58.790276 141.734695,57.676609 141.116516,56.187195 
	C141.766418,56.954819 142.382019,58.098190 143.018646,59.572754 
z"/>
<path fill="#1B1713" opacity="1.000000" stroke="none" 
	d="
M144.120605,54.404171 
	C144.317871,55.160690 144.444962,56.309475 144.399078,57.712502 
	C144.167557,56.909977 144.109009,55.853207 144.120605,54.404171 
z"/>
<path fill="#1B1713" opacity="1.000000" stroke="none" 
	d="
M141.172394,55.604538 
	C140.861160,55.422482 140.519516,54.934937 140.153809,54.140007 
	C140.467148,54.321426 140.804581,54.810242 141.172394,55.604538 
z"/>
<path fill="#1B1713" opacity="1.000000" stroke="none" 
	d="
M140.116379,53.594986 
	C139.907776,53.589344 139.636520,53.253578 139.266571,52.605164 
	C139.463150,52.616631 139.758423,52.940746 140.116379,53.594986 
z"/>
</svg>