<?xml version="1.0" encoding="UTF-8"?>
<!-- Generator: visioncortex VTracer 0.6.3 -->
<svg version="1.1" xmlns="http://www.w3.org/2000/svg" width="250" height="68">
<path d="M0,0 L2,0 L1,4 L-10,20 L-17,25 L-20,26 L-27,26 L-29,30 L-31,32 L-44,33 L-55,37 L-61,41 L-56,42 L-57,49 L-61,50 L-69,50 L-79,56 L-91,61 L-116,67 L-123,68 L-164,68 L-179,64 L-187,59 L-189,55 L-181,56 L-164,60 L-147,62 L-126,62 L-107,60 L-86,55 L-76,51 L-76,50 L-120,50 L-119,43 L-118,42 L-107,42 L-105,42 L-93,42 L-91,42 L-75,42 L-71,42 L-64,42 L-62,38 L-55,30 L-46,21 L-32,14 L-24,11 L-19,6 L-3,2 Z M-99,44 L-98,46 Z M-86,44 L-85,46 Z M-64,44 Z M-107,46 Z M-79,46 Z M-72,46 Z M-114,47 Z " fill="#5E7298" transform="translate(248,0)"/>
<path d="M0,0 L9,0 L15,3 L19,6 L23,3 L30,2 L30,0 L38,0 L38,2 L45,3 L50,8 L54,1 L62,1 L67,9 L70,4 L74,1 L78,0 L86,0 L93,3 L93,1 L115,1 L115,5 L108,5 L108,19 L100,19 L100,5 L95,5 L96,12 L91,18 L88,19 L76,19 L71,17 L71,19 L63,19 L58,11 L56,9 L51,19 L46,19 L46,16 L38,17 L38,19 L30,19 L30,17 L22,16 L18,13 L13,18 L11,19 L-2,19 L-8,15 L-9,11 L-14,13 L-22,13 L-22,18 L-23,19 L-30,19 L-30,1 L-12,1 L-8,4 Z M2,4 L-1,7 L0,14 L3,16 L8,15 L10,12 L9,6 L7,4 Z M79,4 L76,9 L78,15 L83,16 L87,13 L87,7 L85,4 Z M-22,5 L-22,9 L-17,8 L-17,5 Z M28,6 L26,8 L27,12 L30,13 L30,6 Z M38,6 L38,13 L42,11 L40,6 Z M47,14 Z " fill="#0C4D93" transform="translate(79,13)"/>
<path d="M0,0 L2,0 L0,4 L-15,11 L-38,17 L-50,19 L-91,19 L-106,15 L-114,10 L-116,6 L-108,7 L-91,11 L-74,13 L-53,13 L-34,11 L-13,6 L-1,1 Z " fill="#EB7523" transform="translate(175,49)"/>
<path d="M0,0 L10,0 L16,3 L19,6 L19,13 L14,18 L12,19 L-1,19 L-4,19 L-13,19 L-15,15 L-23,14 L-25,19 L-29,19 L-28,13 L-21,1 L-13,1 L-7,11 L-7,13 L-2,12 L0,14 L10,14 L10,12 L1,12 L1,7 L8,7 L10,8 L7,5 L1,5 L-2,7 L-7,6 L-5,2 Z M-20,8 L-20,10 L-18,10 L-18,8 Z " fill="#0C4D93" transform="translate(29,13)"/>
<path d="M0,0 L7,1 L8,3 L19,3 L21,3 L36,3 L36,1 L40,0 L41,3 L61,3 L63,3 L67,3 L66,11 L29,11 L27,11 L13,11 L10,11 L5,10 L5,7 L1,7 L0,11 L-3,11 Z M2,3 Z M40,5 Z M5,6 Z M9,6 Z M15,6 L16,9 L18,7 Z M22,6 L22,9 L25,9 L25,7 Z M43,6 L44,9 L47,7 Z M8,7 L9,9 Z M32,7 Z M52,7 L53,9 Z M63,8 Z " fill="#0C4D93" transform="translate(55,39)"/>
<path d="M0,0 L11,0 L13,0 L25,0 L27,0 L43,0 L47,0 L62,0 L61,7 L57,8 L-2,8 L-1,1 Z M19,2 L20,4 Z M32,2 L33,4 Z M54,2 Z M11,4 Z M39,4 Z M46,4 Z M4,5 Z " fill="#0C4D93" transform="translate(130,42)"/>
<path d="M0,0 L3,1 L-1,6 L-9,10 L-16,10 L-18,14 L-20,16 L-33,17 L-44,21 L-51,26 L-53,26 L-51,22 L-46,16 L-45,18 L-34,12 L-22,9 L-18,4 L-16,3 L-2,1 Z " fill="#D35351" transform="translate(237,16)"/>
<path d="M0,0 L5,1 L7,4 L20,5 L20,8 L10,12 L6,12 L6,14 L-3,14 L-3,12 L-10,11 L-17,8 L-17,5 L-2,5 L2,3 Z M3,6 L4,8 Z M0,8 Z M-3,11 Z M5,11 Z " fill="#0C4D93" transform="translate(17,37)"/>
<path d="M0,0 L5,0 L3,4 L-2,11 L-16,15 L-22,19 L-25,19 L-24,15 L-15,6 L-10,3 L-2,1 Z " fill="#A1AAC0" transform="translate(217,15)"/>
<path d="M0,0 L2,0 L1,4 L-4,9 L-9,12 L-21,12 L-21,10 L-18,7 L-17,5 L-3,2 Z " fill="#C4C6CA" transform="translate(248,0)"/>
<path d="M0,0 L3,1 L-1,6 L-9,10 L-16,10 L-16,6 L-12,3 Z " fill="#D32C2F" transform="translate(237,16)"/>
</svg>
