<?xml version="1.0" standalone="no"?>
<!DOCTYPE svg PUBLIC "-//W3C//DTD SVG 20010904//EN"
 "http://www.w3.org/TR/2001/REC-SVG-20010904/DTD/svg10.dtd">
<svg version="1.0" xmlns="http://www.w3.org/2000/svg"
 width="820.000000pt" height="695.000000pt" viewBox="0 0 820.000000 695.000000"
 preserveAspectRatio="xMidYMid meet">

<g transform="translate(0.000000,695.000000) scale(0.100000,-0.100000)"
fill="#000000" stroke="none">
<path d="M4045 6730 c-17 -5 -43 -23 -59 -39 l-28 -29 -2 -698 c-2 -540 1
-706 10 -731 36 -92 189 -97 244 -8 20 33 20 43 18 727 -3 643 -4 696 -21 721
-35 53 -100 76 -162 57z"/>
<path d="M1829 5801 c-84 -53 -91 -135 -21 -218 83 -99 928 -932 955 -942 67
-26 138 -1 178 61 29 47 22 114 -19 165 -58 72 -927 930 -959 947 -46 23 -82
20 -134 -13z"/>
<path d="M6220 5819 c-34 -14 -977 -958 -989 -992 -18 -47 -2 -118 35 -154 30
-31 37 -33 100 -33 l68 0 488 488 488 488 0 65 c0 52 -5 72 -21 93 -40 51
-108 69 -169 45z"/>
<path d="M3845 4845 c-154 -28 -331 -95 -462 -176 -107 -66 -223 -160 -223
-182 0 -11 -11 -22 -28 -28 -53 -18 -194 -203 -268 -352 -43 -84 -97 -245
-118 -349 -21 -102 -22 -384 -1 -501 46 -264 179 -520 369 -711 148 -150 291
-245 471 -316 194 -75 250 -85 505 -85 213 0 231 2 326 27 400 107 717 363
899 725 157 316 182 690 69 1033 -42 125 -112 263 -191 371 -70 99 -233 257
-335 327 -158 108 -389 200 -558 222 -105 13 -371 11 -455 -5z m506 -298 c131
-34 227 -77 339 -152 220 -146 379 -373 444 -635 92 -366 -6 -733 -267 -1007
-360 -376 -949 -441 -1378 -151 -196 133 -341 320 -417 538 -46 133 -57 209
-56 380 1 133 5 169 26 250 111 413 439 714 864 795 118 22 322 14 445 -18z"/>
<path d="M934 3630 c-11 -4 -33 -22 -47 -40 -23 -27 -27 -41 -27 -92 0 -55 3
-63 34 -94 l34 -34 712 0 c449 0 718 4 730 10 31 17 60 74 60 119 0 54 -22 97
-63 121 -31 19 -55 20 -722 19 -379 0 -699 -4 -711 -9z"/>
<path d="M5813 3621 c-90 -56 -82 -207 13 -247 29 -12 137 -14 729 -12 l694 3
30 29 c29 28 31 34 31 106 0 72 -2 78 -31 106 l-30 29 -702 3 c-682 2 -703 2
-734 -17z"/>
<path d="M2771 2363 c-28 -5 -281 -249 -281 -270 0 -7 -6 -13 -13 -13 -19 0
-681 -669 -702 -709 -60 -117 70 -245 188 -185 32 17 901 875 959 947 56 70
45 167 -24 210 -26 17 -91 27 -127 20z"/>
<path d="M5316 2360 c-56 -18 -96 -73 -96 -133 0 -21 11 -50 30 -78 40 -59
927 -942 967 -963 118 -59 247 68 188 185 -16 32 -901 930 -956 969 -31 23
-93 32 -133 20z"/>
<path d="M4012 1820 c-64 -39 -62 -20 -62 -772 0 -659 1 -684 20 -715 28 -46
65 -67 120 -67 55 0 92 21 120 67 19 31 20 56 20 715 0 752 2 733 -62 772 -20
12 -50 20 -78 20 -28 0 -58 -8 -78 -20z"/>
</g>
</svg>
