<svg version="1.1" id="Layer_1" xmlns="http://www.w3.org/2000/svg" xmlns:xlink="http://www.w3.org/1999/xlink" x="px" y="0px"
	 width="40%" viewBox="0 0 700 250" enable-background="new 0 0 700 250" xml:space="preserve">
<path fill="#FE020C" opacity="1.000000" stroke="none" 
	d="
M495.000000,251.000000 
	C330.000000,251.000000 165.500000,251.000000 1.000000,251.000000 
	C1.000000,167.666672 1.000000,84.333336 1.000000,1.000000 
	C234.333328,1.000000 467.666656,1.000000 701.000000,1.000000 
	C701.000000,84.333336 701.000000,167.666672 701.000000,251.000000 
	C632.500000,251.000000 564.000000,251.000000 495.000000,251.000000 
M146.767685,137.752182 
	C146.767685,137.752182 146.784225,137.666199 146.221237,137.872070 
	C146.143433,138.248291 146.065628,138.624496 145.578339,139.540054 
	C145.388885,140.408417 145.199417,141.276779 144.773758,142.246399 
	C144.773758,142.246399 144.703110,142.491165 144.703110,142.491165 
	C144.703110,142.491165 144.889999,142.664078 144.415222,143.410583 
	C144.326477,144.281372 144.237732,145.152176 143.868286,146.645966 
	C143.727676,147.764099 143.587067,148.882233 143.179367,150.866730 
	C143.267639,153.275986 143.355896,155.685242 143.309647,158.619537 
	C143.516907,159.099625 143.724167,159.579712 143.879013,160.756958 
	C144.549667,162.185501 145.220322,163.614059 145.982117,165.694122 
	C146.961014,166.520676 147.939926,167.347244 149.170853,168.671173 
	C149.517502,168.771057 149.864166,168.870941 150.280502,169.225784 
	C150.280502,169.225784 150.519028,169.334167 150.519028,169.334167 
	C150.519028,169.334167 150.721100,169.167725 151.422440,169.702438 
	C152.290604,169.775009 153.158768,169.847580 154.363861,170.178528 
	C154.901901,170.100769 155.439957,170.023010 156.884903,170.046722 
	C157.710632,169.724808 158.536362,169.402878 159.467331,169.269882 
	C159.467331,169.269882 159.666809,168.961258 159.893600,169.053131 
	C159.893600,169.053131 159.994186,168.830078 160.492752,168.854034 
	C160.878571,168.553894 161.264404,168.253754 162.352600,167.785736 
	C162.897568,167.323288 163.442520,166.860825 164.506546,166.245773 
	C165.116928,165.600815 165.727310,164.955856 166.093170,164.082138 
	C166.093170,164.082138 166.311462,164.336044 166.901764,164.075882 
	C167.730713,163.097977 168.559677,162.120071 169.952667,160.744675 
	C173.633423,155.537567 177.314178,150.330444 181.498093,144.926193 
	C181.538391,144.628967 181.578690,144.331726 181.695435,143.475388 
	C181.792572,143.314301 181.889709,143.153229 182.627213,142.753876 
	C183.605835,140.730225 184.584473,138.706558 185.568771,136.578613 
	C185.568771,136.578613 185.662415,136.532379 186.195160,137.128281 
	C185.970200,139.845154 185.628357,142.558426 185.544250,145.279663 
	C185.360291,151.232269 183.225998,157.371735 187.005875,162.979111 
	C187.005875,162.979111 187.059174,162.934967 186.994949,163.619934 
	C187.656372,164.421494 188.317795,165.223068 188.999390,166.001221 
	C188.999390,166.001221 188.975113,166.018646 189.044861,166.644638 
	C189.673370,167.110367 190.301895,167.576096 190.988815,168.008728 
	C190.988815,168.008728 190.972916,168.073959 191.185272,168.538605 
	C191.489227,168.667465 191.793182,168.796326 192.035706,168.972366 
	C192.035706,168.972366 192.041748,168.895142 192.385406,169.516617 
	C195.496384,171.630051 198.613846,173.394882 201.839447,169.795944 
	C201.839447,169.795944 201.759598,169.729706 202.464798,169.826080 
	C203.641891,168.875916 204.819000,167.925751 206.002884,167.005661 
	C206.002884,167.005661 205.973892,166.994949 206.463562,166.850769 
	C206.648834,166.575867 206.834106,166.300964 207.000000,165.999390 
	C207.000000,165.999390 207.026428,166.019363 207.503021,165.865005 
	C207.677139,165.590546 207.851257,165.316086 208.000595,164.998947 
	C208.000595,164.998947 208.042343,165.025436 208.520187,164.871872 
	C208.687347,164.593323 208.854507,164.314758 208.998398,163.999985 
	C208.998398,163.999985 209.036270,164.020218 209.511429,163.835037 
	C209.670197,163.545044 209.828964,163.255051 210.005692,163.001923 
	C210.005692,163.001923 209.965607,162.993484 210.433197,162.759766 
	C210.597412,162.461197 210.761627,162.162628 210.937424,161.937836 
	C210.937424,161.937836 210.862778,161.940506 211.344925,161.699402 
	C211.503906,161.386871 211.662888,161.074356 211.837143,160.844772 
	C211.837143,160.844772 211.752960,160.839996 212.241196,160.620499 
	C212.375275,160.302277 212.509354,159.984039 212.911896,159.943924 
	C212.911896,159.943924 212.621872,159.688339 213.205597,159.503693 
	C213.453232,158.977707 213.700867,158.451721 213.986267,157.983932 
	C213.986267,157.983932 213.917450,157.975037 214.373672,157.696533 
	C214.495407,157.372345 214.617142,157.048157 214.809631,156.820724 
	C214.809631,156.820724 214.694794,156.786392 215.249054,156.540298 
	C215.490921,156.012314 215.732788,155.484329 216.004089,154.996643 
	C216.004089,154.996643 215.954987,154.987915 216.402649,154.706406 
	C216.526184,154.386261 216.649719,154.066101 216.799591,153.826248 
	C216.799591,153.826248 216.715134,153.829361 217.261841,153.542007 
	C217.476242,152.991257 217.690643,152.440506 217.952621,151.954849 
	C217.952621,151.954849 217.872101,151.950623 218.310455,151.653976 
	C218.412354,151.326782 218.514252,150.999588 218.989349,150.993896 
	C218.989349,150.993896 218.609650,150.679932 219.188034,150.453278 
	C219.393112,149.900650 219.598190,149.348022 219.863632,148.876831 
	C219.863632,148.876831 219.763504,148.860870 220.399796,148.592102 
	C222.583923,144.356552 224.768066,140.121017 227.001678,135.158112 
	C229.012909,130.463226 231.024124,125.768326 233.814697,120.940285 
	C234.271927,121.971451 234.729156,123.002625 235.073441,123.996750 
	C235.073441,123.996750 235.039047,124.110504 234.515106,124.114372 
	C234.458374,124.403885 234.401642,124.693405 234.260651,125.671593 
	C234.177200,126.123306 234.093750,126.575020 233.310196,127.256180 
	C232.283249,130.175247 231.256302,133.094315 230.070435,136.714935 
	C229.782211,137.810577 229.494003,138.906235 229.075851,140.798157 
	C229.080978,141.869247 229.086105,142.940338 228.826385,144.480881 
	C228.866608,144.655991 228.906845,144.831100 228.568146,145.630951 
	C228.344040,147.313599 228.119949,148.996231 227.560028,151.233078 
	C227.605896,152.072266 227.651764,152.911438 227.333282,154.576965 
	C227.457291,155.455292 227.581299,156.333633 227.460495,157.745697 
	C227.601990,158.304276 227.743500,158.862854 227.811295,160.284988 
	C228.200928,161.355270 228.590561,162.425552 228.950714,163.377441 
	C228.950714,163.377441 228.946136,163.454117 229.011810,164.117462 
	C229.564087,164.786880 230.116364,165.456314 230.797104,166.608215 
	C231.197159,166.887665 231.597229,167.167114 232.372757,168.037689 
	C232.984238,168.347015 233.595718,168.656342 234.660141,169.444687 
	C236.758728,169.596283 238.857300,169.747879 241.890869,169.997528 
	C242.758896,169.673019 243.626923,169.348511 244.481140,169.206818 
	C244.481140,169.206818 244.647430,168.972092 245.376495,168.928986 
	C249.957901,164.722122 254.539322,160.515274 259.636871,156.061340 
	C259.797089,155.726318 259.957306,155.391296 260.702911,154.758255 
	C261.462921,153.690994 262.222931,152.623734 263.486359,151.221085 
	C264.570374,149.819595 265.654388,148.418106 266.895599,146.813354 
	C265.419220,145.473373 264.157410,144.328156 262.681732,142.988815 
	C260.924316,145.631958 259.476471,147.809540 257.214905,150.294327 
	C256.992493,150.480301 256.770081,150.666290 256.488403,150.713181 
	C256.488403,150.713181 256.406982,150.840607 255.792801,150.281799 
	C255.539627,150.169952 255.286453,150.058105 254.938995,149.159912 
	C254.738586,147.867599 254.538177,146.575272 254.703842,144.539261 
	C254.844193,142.905899 254.984543,141.272552 255.542908,139.237366 
	C255.552521,138.861282 255.562149,138.485214 255.907043,137.393173 
	C255.928162,136.871918 255.949280,136.350662 256.298157,135.253815 
	C256.492279,134.173294 256.686371,133.092758 257.041046,131.922729 
	C257.041046,131.922729 256.952911,131.761383 257.161774,131.729401 
	C257.161774,131.729401 257.036926,131.432419 257.465332,130.668655 
	C257.547821,130.096451 257.630341,129.524231 257.971802,128.518631 
	C257.955505,128.351151 257.939209,128.183655 258.354095,127.445755 
	C258.574829,126.287163 258.795563,125.128571 259.283020,123.807045 
	C259.431519,123.600067 259.410217,123.412392 259.732635,122.494934 
	C259.809662,121.898209 259.886688,121.301483 260.160797,120.699867 
	C260.160797,120.699867 260.017853,120.488419 260.540405,119.713020 
	C260.698517,118.798729 260.856628,117.884438 261.428925,116.479156 
	C261.601196,115.657036 261.773468,114.834923 262.191895,113.686897 
	C262.191895,113.686897 262.105286,113.287750 262.547302,112.828331 
	C262.665497,112.214249 262.783691,111.600166 263.017853,110.915550 
	C263.017853,110.915550 262.947083,110.799744 263.154602,110.752815 
	C263.154602,110.752815 263.032043,110.439896 263.503174,109.693398 
	C263.607361,109.120033 263.711548,108.546661 264.116272,107.527237 
	C264.097412,107.348938 264.078552,107.170639 264.519012,106.458000 
	C265.263275,103.961372 266.007538,101.464752 267.023407,98.538063 
	C267.008698,98.369148 266.993988,98.200241 267.426422,97.522148 
	C267.619263,96.654213 267.812103,95.786278 268.398499,94.430161 
	C268.584412,93.630585 268.770325,92.831017 269.037781,91.985046 
	C269.037781,91.985046 268.993866,91.902168 269.257599,91.769470 
	C269.419189,91.582199 269.406433,91.407684 269.722198,90.704025 
	C269.910492,89.746422 270.098816,88.788818 270.806274,87.361679 
	C270.869171,86.908333 270.932098,86.454987 271.398132,85.513054 
	C271.641907,84.504562 271.885681,83.496063 272.620087,82.013107 
	C272.744232,81.357269 272.868378,80.701431 273.050415,80.014549 
	C273.050415,80.014549 273.021912,79.955353 273.308350,79.804031 
	C273.474487,79.601166 273.467621,79.404350 273.792755,78.580132 
	C274.509186,76.314720 275.225586,74.049301 276.334381,71.301407 
	C276.222687,70.346649 276.110962,69.391899 275.086182,68.214767 
	C268.021332,68.280876 260.956512,68.346985 253.350739,68.217911 
	C252.922836,68.472183 252.494934,68.726456 251.491516,69.380867 
	C250.337036,71.983780 249.182571,74.586693 247.746262,77.283653 
	C247.562866,77.453735 247.557541,77.629150 247.187775,78.474838 
	C247.141068,78.757057 247.094345,79.039284 246.672073,79.617424 
	C246.526779,80.055298 246.381470,80.493164 245.787872,81.497932 
	C244.193604,85.074074 242.599335,88.650215 240.717514,92.302818 
	C240.525986,92.454056 240.497894,92.631248 240.142853,93.317375 
	C240.051743,93.762192 239.960632,94.207008 239.418655,94.944206 
	C239.338318,95.282188 239.257980,95.620171 238.869095,96.272659 
	C238.869095,96.272659 238.881378,96.713081 238.431824,96.996429 
	C238.222702,97.658447 238.013596,98.320473 237.205124,99.552902 
	C236.802063,100.572693 236.399017,101.592491 235.839798,102.537804 
	C235.839798,102.537804 235.964371,102.696609 235.353470,103.479507 
	C235.274200,103.800896 235.194946,104.122276 234.859711,104.521309 
	C234.702957,104.688210 234.711823,104.845795 234.313797,105.617287 
	C234.243912,105.890587 234.174026,106.163887 233.856003,106.527878 
	C233.710754,106.701782 233.728928,106.856499 233.390259,107.521217 
	C232.514709,109.481331 231.639160,111.441437 230.324997,113.641960 
	C230.191757,114.108322 230.058502,114.574684 229.319855,115.659142 
	C228.787811,116.682068 228.255753,117.704994 227.867386,118.792847 
	C227.867386,118.792847 227.885864,118.584862 227.372650,119.466827 
	C227.286530,119.795898 227.200424,120.124962 226.726776,120.773132 
	C226.409210,121.530052 226.091644,122.286964 225.203720,123.576561 
	C224.041595,125.602348 222.879486,127.628136 221.766388,129.853470 
	C221.766388,129.853470 221.869049,129.539017 221.398712,130.279144 
	C221.186096,130.819962 220.973465,131.360764 220.270905,132.172668 
	C219.738663,133.134476 219.206406,134.096283 218.114868,135.391830 
	C217.726105,135.907715 217.337357,136.423615 216.461441,136.967896 
	C216.461441,136.967896 216.030350,137.196579 215.351822,136.757294 
	C215.402893,135.124268 215.168503,133.421371 215.548523,131.868851 
	C220.129761,113.152702 224.811127,94.461082 229.439270,75.756348 
	C230.065186,73.226646 230.542679,70.660217 230.439102,67.558746 
	C222.570358,67.751564 214.701630,67.944382 206.764557,68.164680 
	C206.764557,68.164680 206.732285,68.098465 206.020172,68.501808 
	C205.761505,69.239365 205.502853,69.976929 205.239563,71.415825 
	C198.789520,88.188019 192.339493,104.960220 185.397858,122.129059 
	C185.239349,122.727150 185.080826,123.325241 184.421127,124.304489 
	C184.296570,124.698692 184.172012,125.092903 183.884979,125.468391 
	C183.884979,125.468391 184.023880,125.558304 183.396317,126.389626 
	C183.294952,126.721703 183.193588,127.053772 182.831497,127.477219 
	C182.685272,127.659851 182.704361,127.823166 182.275940,128.744675 
	C182.170120,129.057251 182.064316,129.369843 181.973999,129.575317 
	C181.973999,129.575317 181.870270,129.521027 181.432831,130.208923 
	C180.948303,131.457993 180.463791,132.707077 179.478516,134.407364 
	C178.675598,136.027771 177.872681,137.648193 176.608810,139.636215 
	C176.022446,140.648712 175.436081,141.661194 174.259171,143.070953 
	C171.996811,145.203445 169.734436,147.335922 167.434891,148.903305 
	C167.315903,148.756744 167.196930,148.610168 167.101120,147.766556 
	C167.039551,146.841309 166.977966,145.916061 167.158646,144.536209 
	C167.118149,144.369354 167.077652,144.202484 167.002808,144.012695 
	C167.002808,144.012695 167.038330,144.022903 167.379364,143.484039 
	C167.557297,142.663132 167.735229,141.842224 168.252838,140.672470 
	C168.446289,140.364655 168.450729,140.054123 168.714417,139.288727 
	C168.473465,138.691650 168.232529,138.094559 167.082352,137.264572 
	C160.695435,137.328262 154.308533,137.391953 147.484344,137.247711 
	C147.111694,137.211319 146.848221,137.363754 146.767685,137.752182 
M327.420471,127.779343 
	C327.693024,127.595749 327.852234,127.341232 328.192780,127.005501 
	C328.192780,127.005501 328.350067,126.756073 328.941101,126.415413 
	C329.946625,125.615891 330.952179,124.816376 332.666168,123.773804 
	C333.178772,123.239212 333.691376,122.704628 334.266327,122.330849 
	C334.266327,122.330849 334.285309,122.105263 334.977814,121.800644 
	C335.328094,121.439720 335.678345,121.078796 336.414581,120.666710 
	C336.670929,120.528809 336.795929,120.314346 337.118011,119.959244 
	C337.118011,119.959244 337.250488,119.651947 337.855499,119.372574 
	C338.612213,118.581879 339.368958,117.791191 340.741791,116.748840 
	C342.823547,114.692200 345.214233,112.863480 346.930511,110.537201 
	C352.631012,102.810722 358.549957,95.181145 363.466400,86.964668 
	C366.400208,82.061615 364.380341,79.078506 358.687988,79.371117 
	C352.964020,79.665367 346.982208,80.454506 341.680145,82.497574 
	C317.956879,91.638947 302.860229,109.211945 294.565186,132.880112 
	C293.546021,135.788071 292.091370,137.131424 289.213043,137.808075 
	C282.566925,139.370483 281.148376,141.355621 280.784027,148.724854 
	C284.544220,147.709671 288.275726,146.702240 292.171234,145.650543 
	C292.533112,148.441925 292.658264,150.606644 293.112701,152.699860 
	C294.834778,160.631760 298.516510,167.047272 306.925262,169.453568 
	C314.435669,171.602783 320.908142,169.507629 325.814178,163.670792 
	C333.848419,154.112228 335.650909,142.863480 333.705902,130.803802 
	C333.299469,128.283768 332.090668,127.772545 329.302307,129.026337 
	C328.527954,128.683929 327.753632,128.341507 327.013336,127.998161 
	C327.013336,127.998161 326.999359,127.967064 327.420471,127.779343 
M440.139191,169.780289 
	C446.111908,151.020508 452.084656,132.260742 458.379364,112.489594 
	C451.634003,114.457535 444.930786,109.848061 440.017181,116.381889 
	C434.561340,110.822006 428.066132,111.070564 422.264709,114.866508 
	C416.952545,118.342346 411.773682,122.662697 407.998260,127.705605 
	C401.301331,136.650864 399.965942,147.315964 401.943817,158.208328 
	C403.929138,169.141754 412.567169,172.481964 421.579498,166.079559 
	C422.559143,165.383606 423.584961,164.752686 425.578186,163.440720 
	C422.395721,173.889679 419.557434,183.208603 416.520844,193.178604 
	C421.126251,193.178604 425.101715,192.979614 429.046051,193.244431 
	C431.962433,193.440231 433.162476,192.243820 433.934265,189.603577 
	C435.801605,183.215378 437.922546,176.901306 440.139191,169.780289 
M391.813629,146.444061 
	C395.365509,135.454590 398.917419,124.465111 402.544830,113.241928 
	C396.612427,113.241928 391.361786,113.241928 386.045898,113.241928 
	C385.656830,114.404694 385.352722,115.348145 385.026306,116.283813 
	C380.942810,127.989670 375.716766,139.119995 367.739655,148.712173 
	C365.736755,151.120621 362.885651,152.823700 360.424377,154.850937 
	C359.993744,154.432007 359.563141,154.013077 359.132538,153.594147 
	C359.645294,151.709610 360.018036,149.773148 360.694397,147.949280 
	C364.049255,138.902344 367.726624,129.964813 370.737701,120.807022 
	C371.598755,118.188278 370.611053,114.961685 370.471100,112.013809 
	C367.369629,112.272705 363.868622,111.701683 361.249573,112.962624 
	C355.730225,115.619896 350.800751,119.475006 345.384552,122.382889 
	C341.235779,124.610313 340.503387,127.587532 341.738831,131.859604 
	C344.796570,130.353760 347.629272,128.958725 351.633850,126.986588 
	C349.961670,131.737473 348.799255,135.161514 347.553131,138.554810 
	C345.086090,145.272720 342.019012,151.838638 340.335205,158.744202 
	C339.600922,161.755478 340.691406,166.397003 342.769104,168.526047 
	C344.372894,170.169479 349.107391,169.914017 351.910370,168.943878 
	C355.573883,167.675934 358.784027,164.982620 362.041840,162.692856 
	C364.834442,160.730072 367.419708,158.472260 370.668518,155.890488 
	C370.488708,157.722809 370.390228,158.683838 370.300659,159.645706 
	C369.461945,168.655136 374.592224,172.623627 382.890167,169.040543 
	C386.514435,167.475571 389.777893,165.061264 393.169037,162.973862 
	C397.007782,160.610886 397.018494,157.722519 394.361115,154.416061 
	C392.659302,155.495789 391.118347,156.473465 388.451660,158.165375 
	C389.754944,153.538727 390.648651,150.366089 391.813629,146.444061 
M504.785034,156.513382 
	C508.059265,167.265274 515.270264,172.057327 524.743164,169.776596 
	C543.540466,165.250885 561.875305,137.727127 558.859192,118.562561 
	C557.945557,112.757324 553.788025,110.287476 548.315613,112.481415 
	C546.018188,113.402458 543.886536,114.736877 541.679260,115.881004 
	C540.897949,115.191193 540.116577,113.904045 539.335266,113.904037 
	C531.590088,113.903999 523.775757,111.997231 517.612976,119.938660 
	C509.304688,130.644806 502.081329,141.258652 504.785034,156.513382 
M493.327698,111.962975 
	C491.012512,112.147118 488.653046,112.105782 486.389130,112.550812 
	C467.095123,116.343590 454.187988,132.201645 454.080627,151.966507 
	C454.068756,154.152512 454.093933,157.770340 452.980896,158.281067 
	C446.805298,161.114899 449.707001,164.562241 451.816956,168.876785 
	C455.911865,164.282822 459.469269,166.067947 463.960297,168.368530 
	C467.480133,170.171646 472.468201,170.395508 476.499115,169.657028 
	C486.065979,167.904266 492.904877,161.598770 499.041138,154.254272 
	C497.628876,152.222977 496.446228,150.521942 495.267426,148.826401 
	C481.205994,159.033081 478.806854,159.842484 474.403931,155.749878 
	C476.712677,154.337982 478.987152,153.014786 481.193268,151.586060 
	C490.218231,145.741272 498.564575,139.156006 503.540863,129.300613 
	C508.564911,119.350548 505.184906,113.208336 493.327698,111.962975 
M277.981476,157.513260 
	C272.507904,156.016464 268.545471,157.786926 267.952881,162.118454 
	C267.478699,165.584274 268.527069,168.971725 272.064301,169.580078 
	C274.545319,170.006775 278.214478,169.151306 279.883057,167.437378 
	C282.831604,164.408646 281.808411,160.718292 277.981476,157.513260 
z"/>
<path fill="#FEFBFA" opacity="1.000000" stroke="none" 
	d="
M241.005066,92.226364 
	C242.599335,88.650215 244.193604,85.074074 246.177292,81.052231 
	C246.727020,80.178185 246.887329,79.749847 247.047638,79.321510 
	C247.094345,79.039284 247.141068,78.757057 247.521072,78.046310 
	C247.854370,77.617790 248.028107,77.189613 248.028107,77.189613 
	C249.182571,74.586693 250.337036,71.983780 252.024170,69.171188 
	C253.001770,68.778702 253.446716,68.595894 253.891663,68.413086 
	C260.956512,68.346985 268.021332,68.280876 275.539917,68.661003 
	C275.976410,69.999451 275.959198,70.891670 275.941986,71.783882 
	C275.225586,74.049301 274.509186,76.314720 273.473389,79.010445 
	C273.079254,79.604393 273.035217,79.775925 273.021912,79.955353 
	C273.021912,79.955353 273.050415,80.014549 272.798462,80.278969 
	C272.407501,81.191444 272.268463,81.839508 272.129425,82.487564 
	C271.885681,83.496063 271.641907,84.504562 270.995728,86.024551 
	C270.491272,86.967773 270.389191,87.399490 270.287109,87.831207 
	C270.098816,88.788818 269.910492,89.746422 269.418701,91.077927 
	C269.115204,91.451820 268.993866,91.902168 268.993866,91.902168 
	C268.993866,91.902168 269.037781,91.985046 268.781494,92.237244 
	C268.351807,93.299080 268.178375,94.108711 268.004974,94.918350 
	C267.812103,95.786278 267.619263,96.654213 267.074524,97.852356 
	C266.509399,98.443565 266.519135,98.705421 266.751831,98.968132 
	C266.007538,101.464752 265.263275,103.961372 264.154083,106.806969 
	C263.554626,107.426804 263.563477,107.699249 263.815704,107.973289 
	C263.711548,108.546661 263.607361,109.120033 263.256409,110.126694 
	C263.009613,110.559998 262.947083,110.799744 262.947083,110.799744 
	C262.947083,110.799744 263.017853,110.915550 262.760864,111.193893 
	C262.371033,112.077408 262.238159,112.682579 262.105286,113.287750 
	C262.105286,113.287750 262.191895,113.686897 261.855469,114.089622 
	C261.350922,115.318283 261.182831,116.144218 261.014740,116.970154 
	C260.856628,117.884438 260.698517,118.798729 260.273499,120.136841 
	C260.006592,120.560661 259.963745,120.704758 259.963745,120.704758 
	C259.886688,121.301483 259.809662,121.898209 259.423462,122.983932 
	C259.055359,123.633430 259.022675,123.799110 259.016327,123.969986 
	C258.795563,125.128571 258.574829,126.287163 258.017090,127.812935 
	C257.476868,128.439102 257.487793,128.696411 257.712830,128.952026 
	C257.630341,129.524231 257.547821,130.096451 257.240112,131.105774 
	C257.014862,131.542877 256.952911,131.761383 256.952911,131.761383 
	C256.952911,131.761383 257.041046,131.922729 256.754211,132.229645 
	C256.301697,133.634186 256.136047,134.731796 255.970398,135.829407 
	C255.949280,136.350662 255.928162,136.871918 255.614532,137.987579 
	C255.256317,138.934372 255.190598,139.286789 255.124878,139.639191 
	C254.984543,141.272552 254.844193,142.905899 254.423447,145.204666 
	C254.439789,147.228806 254.736526,148.587524 255.033279,149.946259 
	C255.286453,150.058105 255.539627,150.169952 256.114563,150.570038 
	C256.436310,150.858261 256.547668,150.852295 256.547668,150.852295 
	C256.770081,150.666290 256.992493,150.480301 257.986053,150.146378 
	C260.165771,150.517776 261.574371,151.037125 262.982941,151.556458 
	C262.222931,152.623734 261.462921,153.690994 260.189941,155.068451 
	C259.491577,155.688568 259.306152,155.998489 259.120728,156.308411 
	C254.539322,160.515274 249.957901,164.722122 244.986832,168.959167 
	C244.597168,168.989365 244.494934,169.024002 244.494934,169.024017 
	C243.626923,169.348511 242.758896,169.673019 241.119263,169.727814 
	C238.300827,169.293945 236.254028,169.129791 234.207214,168.965668 
	C233.595718,168.656342 232.984238,168.347015 232.098969,167.509644 
	C231.439667,166.696320 231.054153,166.411026 230.668640,166.125732 
	C230.116364,165.456314 229.564087,164.786880 228.972733,163.796417 
	C228.933655,163.475357 228.980179,163.495850 228.980194,163.495850 
	C228.590561,162.425552 228.200928,161.355270 227.869934,159.571106 
	C227.854156,158.308792 227.779739,157.760376 227.705307,157.211960 
	C227.581299,156.333633 227.457291,155.455292 227.601013,153.868042 
	C227.877792,152.332367 227.886826,151.505630 227.895859,150.678879 
	C228.119949,148.996231 228.344040,147.313599 228.889313,145.228348 
	C229.419678,144.530426 229.379944,144.258987 229.091232,144.011429 
	C229.086105,142.940338 229.080978,141.869247 229.451782,140.285995 
	C230.223053,138.582520 230.618408,137.391190 231.273224,135.941467 
	C232.358551,132.797623 233.184433,129.912170 234.010315,127.026726 
	C234.093750,126.575020 234.177200,126.123306 234.464066,125.222733 
	C234.856812,124.589439 234.980667,124.368309 235.039047,124.110504 
	C235.039047,124.110504 235.073441,123.996750 235.386749,123.783325 
	C237.437836,118.686363 239.175629,113.802826 240.913422,108.919289 
	C240.238113,108.623138 239.562790,108.326988 238.887466,108.030838 
	C236.936768,112.378365 234.986053,116.725899 233.035339,121.073433 
	C231.024124,125.768326 229.012909,130.463226 226.621704,135.611877 
	C223.463882,140.017624 219.885681,143.564346 219.763504,148.860870 
	C219.763504,148.860870 219.863632,148.876831 219.577560,148.979477 
	C219.064209,149.614731 218.836929,150.147324 218.609650,150.679932 
	C218.609650,150.679932 218.989349,150.993896 218.566040,150.963760 
	C218.052521,151.272629 217.962311,151.611618 217.872101,151.950623 
	C217.872101,151.950623 217.952621,151.954849 217.666702,152.069839 
	C217.158905,152.733002 216.937027,153.281189 216.715134,153.829361 
	C216.715134,153.829361 216.799591,153.826248 216.539825,153.902252 
	C216.171707,154.314804 216.063354,154.651367 215.954987,154.987915 
	C215.954987,154.987915 216.004089,154.996643 215.724884,155.110107 
	C215.195374,155.744522 214.945084,156.265457 214.694794,156.786392 
	C214.694794,156.786392 214.809631,156.820724 214.530579,156.894257 
	C214.140167,157.303543 214.028809,157.639282 213.917450,157.975037 
	C213.917450,157.975037 213.986267,157.983932 213.698318,158.069794 
	C213.147537,158.666550 212.884705,159.177444 212.621872,159.688339 
	C212.621872,159.688339 212.911896,159.943924 212.530151,159.909241 
	C212.016571,160.196365 211.884766,160.518173 211.752960,160.839996 
	C211.752960,160.839996 211.837143,160.844772 211.566650,160.896637 
	C211.151688,161.279160 211.007233,161.609833 210.862778,161.940506 
	C210.862778,161.940506 210.937424,161.937836 210.673996,161.989410 
	C210.262238,162.358490 210.113907,162.675980 209.965607,162.993469 
	C209.965607,162.993484 210.005692,163.001923 209.753250,163.069489 
	C209.345963,163.431427 209.191116,163.725830 209.036270,164.020218 
	C209.036270,164.020218 208.998398,163.999985 208.767395,164.089722 
	C208.371704,164.461472 208.207031,164.743454 208.042358,165.025436 
	C208.042343,165.025436 208.000595,164.998947 207.765045,165.083038 
	C207.361801,165.451218 207.194122,165.735291 207.026428,166.019363 
	C207.026428,166.019363 207.000000,165.999390 206.758026,166.075073 
	C206.335327,166.432144 206.154617,166.713547 205.973907,166.994965 
	C205.973892,166.994949 206.002884,167.005661 205.686340,167.065643 
	C204.166382,167.993652 202.962997,168.861679 201.759598,169.729706 
	C201.759598,169.729706 201.839447,169.795944 201.410736,169.755585 
	C198.001923,169.441864 195.021835,169.168503 192.041748,168.895142 
	C192.041748,168.895142 192.035706,168.972366 191.966675,168.710785 
	C191.589417,168.324112 191.281158,168.199036 190.972916,168.073959 
	C190.972916,168.073959 190.988815,168.008728 190.851639,167.757385 
	C190.134674,167.010239 189.554901,166.514450 188.975113,166.018646 
	C188.975113,166.018646 188.999390,166.001221 188.934143,165.706375 
	C188.265640,164.586014 187.662399,163.760498 187.059174,162.934967 
	C187.059174,162.934967 187.005875,162.979111 187.043304,162.551468 
	C186.926117,157.347931 186.531174,152.564240 186.685577,147.798355 
	C186.834946,143.187897 187.549881,138.595764 188.324097,133.928162 
	C189.575165,132.849335 190.518555,131.837891 191.852859,130.407349 
	C190.077255,129.760468 189.026871,129.377792 187.616974,128.994766 
	C185.914902,128.617599 184.572311,128.240799 183.200684,127.742928 
	C183.171646,127.621857 183.092239,127.385849 183.092224,127.385849 
	C183.193588,127.053772 183.294952,126.721703 183.720337,125.965797 
	C184.044357,125.541969 184.047455,125.487106 184.047455,125.487106 
	C184.172012,125.092903 184.296570,124.698692 184.912735,123.911438 
	C185.566055,122.923073 185.727753,122.327744 185.889465,121.732422 
	C192.339493,104.960220 198.789520,88.188019 205.503616,70.791458 
	C206.089203,69.477554 206.410751,68.788010 206.732300,68.098465 
	C206.732285,68.098465 206.764557,68.164680 207.286133,68.181328 
	C215.568115,68.168915 223.328506,68.139854 231.088898,68.110794 
	C230.542679,70.660217 230.065186,73.226646 229.439270,75.756348 
	C224.811127,94.461082 220.129761,113.152702 215.548523,131.868851 
	C215.168503,133.421371 215.402893,135.124268 215.810913,137.082306 
	C216.637070,137.470093 216.863266,137.314163 216.948593,136.939499 
	C217.337357,136.423615 217.726105,135.907715 218.697845,135.200653 
	C219.774170,133.973526 220.267517,132.937561 220.760864,131.901581 
	C220.973465,131.360764 221.186096,130.819962 221.623566,129.955597 
	C221.848434,129.632034 221.717377,129.653931 221.717377,129.653931 
	C222.879486,127.628136 224.041595,125.602348 225.721024,123.193832 
	C226.530319,122.025414 226.822311,121.239723 227.114319,120.454025 
	C227.200424,120.124962 227.286530,119.795898 227.621475,119.061508 
	C227.870300,118.656189 227.723709,118.727921 227.723694,118.727921 
	C228.255753,117.704994 228.787811,116.682068 229.829102,115.212387 
	C230.480087,114.310928 230.621857,113.856239 230.763611,113.401543 
	C231.639160,111.441437 232.514709,109.481331 233.752029,107.258896 
	C234.113800,106.996582 234.305984,106.930222 234.587280,106.932678 
	C235.377686,106.679604 235.886810,106.424072 236.395935,106.168541 
	C236.036362,105.750282 235.676804,105.332024 235.274719,104.792862 
	C235.232193,104.671967 235.115692,104.443665 235.115692,104.443665 
	C235.194946,104.122276 235.274200,103.800896 235.671875,103.077988 
	C235.990295,102.676476 235.995972,102.612289 235.995972,102.612289 
	C236.399017,101.592491 236.802063,100.572693 237.731186,99.122864 
	C238.465286,98.032913 238.673340,97.372993 238.881378,96.713081 
	C238.881378,96.713081 238.869095,96.272659 239.190430,95.927994 
	C239.630997,95.272820 239.750259,94.962318 239.869507,94.651825 
	C239.960632,94.207008 240.051743,93.762192 240.466400,92.986938 
	C240.789948,92.656509 241.005066,92.226364 241.005066,92.226364 
z"/>
<path fill="#FDF8F7" opacity="1.000000" stroke="none" 
	d="
M328.350067,126.756073 
	C328.350067,126.756073 328.192780,127.005501 327.854034,127.126396 
	C327.277191,127.439835 327.105225,127.679756 326.999359,127.967064 
	C326.999359,127.967064 327.013336,127.998161 326.646545,128.052032 
	C324.538696,129.201263 322.797607,130.296631 321.056549,131.391998 
	C321.434967,132.041519 321.813416,132.691055 322.191833,133.340576 
	C324.797424,131.962448 327.403015,130.584335 330.008606,129.206207 
	C332.090668,127.772545 333.299469,128.283768 333.705902,130.803802 
	C335.650909,142.863480 333.848419,154.112228 325.814178,163.670792 
	C320.908142,169.507629 314.435669,171.602783 306.925262,169.453568 
	C298.516510,167.047272 294.834778,160.631760 293.112701,152.699860 
	C292.658264,150.606644 292.533112,148.441925 292.171234,145.650543 
	C288.275726,146.702240 284.544220,147.709671 280.784027,148.724854 
	C281.148376,141.355621 282.566925,139.370483 289.213043,137.808075 
	C292.091370,137.131424 293.546021,135.788071 294.565186,132.880112 
	C302.860229,109.211945 317.956879,91.638947 341.680145,82.497574 
	C346.982208,80.454506 352.964020,79.665367 358.687988,79.371117 
	C364.380341,79.078506 366.400208,82.061615 363.466400,86.964668 
	C358.549957,95.181145 352.631012,102.810722 346.930511,110.537201 
	C345.214233,112.863480 342.823547,114.692200 340.046570,116.900620 
	C338.651093,117.918907 337.950775,118.785423 337.250488,119.651947 
	C337.250488,119.651947 337.118011,119.959244 336.792114,120.064499 
	C336.262573,120.306290 336.116669,120.488991 336.028595,120.717865 
	C335.678345,121.078796 335.328094,121.439720 334.610443,121.950867 
	C334.243073,122.101089 334.203949,122.170036 334.203949,122.170044 
	C333.691376,122.704628 333.178772,123.239212 331.914886,123.892746 
	C330.225769,124.926483 329.287903,125.841278 328.350067,126.756073 
M321.980255,123.988289 
	C321.980255,123.988289 321.918365,123.944061 322.357025,123.735573 
	C322.633118,123.551483 322.844910,123.310806 323.268707,122.459061 
	C324.411438,121.597778 325.554199,120.736504 327.207977,119.655289 
	C327.446930,119.377174 327.685883,119.099060 328.204254,118.226921 
	C330.788239,115.811119 333.372223,113.395317 336.734680,110.989029 
	C342.449524,109.925781 343.913483,108.102509 342.823883,103.190483 
	C345.345428,99.733185 347.866974,96.275879 350.388489,92.818581 
	C349.880920,92.412773 349.373352,92.006966 348.865784,91.601158 
	C333.554138,99.414375 323.397247,112.279877 314.553284,126.432198 
	C314.844269,126.774536 315.135254,127.116867 315.426239,127.459198 
	C317.139893,126.592224 318.853546,125.725243 321.118805,124.688812 
	C321.398743,124.430992 321.678711,124.173172 321.980255,123.988289 
M311.493774,153.962891 
	C311.755707,154.254654 312.017639,154.546417 312.848541,155.076599 
	C316.682068,155.980637 317.636780,152.826645 317.853149,150.540329 
	C318.336426,145.433640 318.004211,140.249786 318.004211,134.884232 
	C311.544861,137.008942 311.544861,137.008942 310.126709,143.187302 
	C309.980103,143.506165 310.046234,143.763184 310.490417,144.766373 
	C310.434235,145.860001 310.378082,146.953613 310.093811,148.244797 
	C309.986694,148.583527 310.086578,148.831528 310.641571,149.623520 
	C310.675232,150.074570 310.708923,150.525604 310.453156,151.378067 
	C310.717773,151.900452 310.982391,152.422836 311.472809,153.088394 
	C311.472809,153.088394 311.480560,153.355652 311.493774,153.962891 
z"/>
<path fill="#FDF9F7" opacity="1.000000" stroke="none" 
	d="
M440.040222,170.168823 
	C437.922546,176.901306 435.801605,183.215378 433.934265,189.603577 
	C433.162476,192.243820 431.962433,193.440231 429.046051,193.244431 
	C425.101715,192.979614 421.126251,193.178604 416.520844,193.178604 
	C419.557434,183.208603 422.395721,173.889679 425.578186,163.440720 
	C423.584961,164.752686 422.559143,165.383606 421.579498,166.079559 
	C412.567169,172.481964 403.929138,169.141754 401.943817,158.208328 
	C399.965942,147.315964 401.301331,136.650864 407.998260,127.705605 
	C411.773682,122.662697 416.952545,118.342346 422.264709,114.866508 
	C428.066132,111.070564 434.561340,110.822006 440.017181,116.381889 
	C444.930786,109.848061 451.634003,114.457535 458.379364,112.489594 
	C452.084656,132.260742 446.111908,151.020508 440.040222,170.168823 
M418.991119,145.724854 
	C419.692932,148.464172 420.394714,151.203491 421.096527,153.942810 
	C423.662964,152.175125 427.342346,150.968933 428.573853,148.527786 
	C431.519257,142.689438 433.613739,136.354233 435.387726,130.033279 
	C435.925568,128.116898 434.290527,125.590683 433.650726,123.343803 
	C431.453461,124.501465 428.249542,125.102737 427.245209,126.919754 
	C424.073914,132.657349 421.726562,138.850357 418.991119,145.724854 
z"/>
<path fill="#FDF8F6" opacity="1.000000" stroke="none" 
	d="
M391.677979,146.818756 
	C390.648651,150.366089 389.754944,153.538727 388.451660,158.165375 
	C391.118347,156.473465 392.659302,155.495789 394.361115,154.416061 
	C397.018494,157.722519 397.007782,160.610886 393.169037,162.973862 
	C389.777893,165.061264 386.514435,167.475571 382.890167,169.040543 
	C374.592224,172.623627 369.461945,168.655136 370.300659,159.645706 
	C370.390228,158.683838 370.488708,157.722809 370.668518,155.890488 
	C367.419708,158.472260 364.834442,160.730072 362.041840,162.692856 
	C358.784027,164.982620 355.573883,167.675934 351.910370,168.943878 
	C349.107391,169.914017 344.372894,170.169479 342.769104,168.526047 
	C340.691406,166.397003 339.600922,161.755478 340.335205,158.744202 
	C342.019012,151.838638 345.086090,145.272720 347.553131,138.554810 
	C348.799255,135.161514 349.961670,131.737473 351.633850,126.986588 
	C347.629272,128.958725 344.796570,130.353760 341.738831,131.859604 
	C340.503387,127.587532 341.235779,124.610313 345.384552,122.382889 
	C350.800751,119.475006 355.730225,115.619896 361.249573,112.962624 
	C363.868622,111.701683 367.369629,112.272705 370.471100,112.013809 
	C370.611053,114.961685 371.598755,118.188278 370.737701,120.807022 
	C367.726624,129.964813 364.049255,138.902344 360.694397,147.949280 
	C360.018036,149.773148 359.645294,151.709610 359.132538,153.594147 
	C359.563141,154.013077 359.993744,154.432007 360.424377,154.850937 
	C362.885651,152.823700 365.736755,151.120621 367.739655,148.712173 
	C375.716766,139.119995 380.942810,127.989670 385.026306,116.283813 
	C385.352722,115.348145 385.656830,114.404694 386.045898,113.241928 
	C391.361786,113.241928 396.612427,113.241928 402.544830,113.241928 
	C398.917419,124.465111 395.365509,135.454590 391.677979,146.818756 
z"/>
<path fill="#FDF7F5" opacity="1.000000" stroke="none" 
	d="
M504.682861,156.101456 
	C502.081329,141.258652 509.304688,130.644806 517.612976,119.938660 
	C523.775757,111.997231 531.590088,113.903999 539.335266,113.904037 
	C540.116577,113.904045 540.897949,115.191193 541.679382,115.882187 
	C543.886536,114.736877 546.018188,113.402458 548.315613,112.481415 
	C553.788025,110.287476 557.945557,112.757324 558.859192,118.562561 
	C561.875305,137.727127 543.540466,165.250885 524.743164,169.776596 
	C515.270264,172.057327 508.059265,167.265274 504.682861,156.101456 
M541.616821,137.988724 
	C542.516174,134.120789 543.415588,130.252853 544.314941,126.384926 
	C543.618958,125.969521 542.922974,125.554115 542.226990,125.138710 
	C539.288147,127.926590 536.349304,130.714478 533.141052,133.757935 
	C531.674683,132.097961 529.987000,130.187347 528.030334,127.972313 
	C523.350098,134.426834 519.234924,141.257996 520.157471,149.692825 
	C520.442627,152.300110 522.246277,155.973648 524.304626,156.803757 
	C526.312988,157.613724 530.608337,156.229309 532.015198,154.376953 
	C535.662476,149.574615 538.272644,143.984589 541.616821,137.988724 
z"/>
<path fill="#FCF7F5" opacity="1.000000" stroke="none" 
	d="
M493.775696,111.971161 
	C505.184906,113.208336 508.564911,119.350548 503.540863,129.300613 
	C498.564575,139.156006 490.218231,145.741272 481.193268,151.586060 
	C478.987152,153.014786 476.712677,154.337982 474.403931,155.749878 
	C478.806854,159.842484 481.205994,159.033081 495.267426,148.826401 
	C496.446228,150.521942 497.628876,152.222977 499.041138,154.254272 
	C492.904877,161.598770 486.065979,167.904266 476.499115,169.657028 
	C472.468201,170.395508 467.480133,170.171646 463.960297,168.368530 
	C459.469269,166.067947 455.911865,164.282822 451.816956,168.876785 
	C449.707001,164.562241 446.805298,161.114899 452.980896,158.281067 
	C454.093933,157.770340 454.068756,154.152512 454.080627,151.966507 
	C454.187988,132.201645 467.095123,116.343590 486.389130,112.550812 
	C488.653046,112.105782 491.012512,112.147118 493.775696,111.971161 
M476.095520,135.705734 
	C474.825653,139.558929 473.555786,143.412140 472.285950,147.265350 
	C473.021881,147.699677 473.757812,148.134003 474.493774,148.568344 
	C480.186432,141.762070 486.039001,135.078705 491.441223,128.049240 
	C492.565613,126.586166 492.022980,123.841957 492.248566,121.688171 
	C489.997040,122.212128 487.014221,122.012077 485.637756,123.402390 
	C482.179871,126.895081 479.447968,131.106537 476.095520,135.705734 
z"/>
<path fill="#FEFBFA" opacity="1.000000" stroke="none" 
	d="
M177.069763,139.268600 
	C177.872681,137.648193 178.675598,136.027771 180.176895,134.195496 
	C182.673447,134.024643 184.471603,134.065674 186.212891,134.416260 
	C185.991486,135.327988 185.826950,135.930191 185.662415,136.532379 
	C185.662415,136.532379 185.568771,136.578613 185.306656,136.837036 
	C184.025314,139.061020 183.006088,141.026581 181.986877,142.992142 
	C181.889709,143.153229 181.792572,143.314301 181.508636,143.908493 
	C181.142227,144.572632 181.033264,144.833221 180.994934,145.123337 
	C177.314178,150.330444 173.633423,155.537567 169.296051,160.961807 
	C167.863449,162.231308 167.087463,163.283676 166.311462,164.336044 
	C166.311462,164.336044 166.093170,164.082138 165.904221,164.169373 
	C165.139343,164.970535 164.563416,165.684448 163.987488,166.398376 
	C163.442520,166.860825 162.897568,167.323288 161.765198,167.913605 
	C160.783249,168.304352 160.388718,168.567215 159.994186,168.830078 
	C159.994186,168.830078 159.893600,169.053131 159.729218,169.025421 
	C159.564835,168.997726 159.362091,169.080948 159.362091,169.080948 
	C158.536362,169.402878 157.710632,169.724808 156.270081,169.821747 
	C155.112473,169.704575 154.569702,169.812363 154.026932,169.920151 
	C153.158768,169.847580 152.290604,169.775009 150.991547,169.393341 
	C150.560638,169.084229 150.210815,168.970825 150.210815,168.970825 
	C149.864166,168.870941 149.517502,168.771057 149.043884,168.048004 
	C147.908264,166.630753 146.899628,165.836670 145.890976,165.042603 
	C145.220322,163.614059 144.549667,162.185501 143.911713,160.150314 
	C143.777664,159.060608 143.610901,158.577560 143.444153,158.094498 
	C143.355896,155.685242 143.267639,153.275986 143.589111,150.313812 
	C144.048889,148.514908 144.098938,147.268936 144.148987,146.022964 
	C144.237732,145.152176 144.326477,144.281372 144.679565,142.953186 
	C144.943893,142.495773 145.009964,142.145142 145.009949,142.145142 
	C145.199417,141.276779 145.388885,140.408417 145.978607,139.089722 
	C146.513992,138.314987 146.649109,137.990601 146.784225,137.666199 
	C146.784225,137.666199 146.767685,137.752182 146.945831,137.749969 
	C147.418686,137.729019 147.684555,137.631653 147.921616,137.455627 
	C154.308533,137.391953 160.695435,137.328262 167.562531,137.756622 
	C168.117218,138.746078 168.191696,139.243484 168.266174,139.740875 
	C168.450729,140.054123 168.446289,140.364655 167.871841,141.092102 
	C167.340012,142.348785 167.189163,143.185837 167.038330,144.022903 
	C167.038330,144.022903 167.002808,144.012695 166.889557,144.108124 
	C166.578583,144.495834 166.625275,144.758270 166.916397,144.990814 
	C166.977966,145.916061 167.039551,146.841309 167.107697,148.282913 
	C167.144562,149.066376 167.263840,149.289429 167.472061,149.468399 
	C169.734436,147.335922 171.996811,145.203445 174.761871,143.124222 
	C176.156677,143.182724 177.048813,143.187958 177.940933,143.193176 
	C177.650543,141.884979 177.360153,140.576797 177.069763,139.268600 
z"/>
<path fill="#FCF5F2" opacity="1.000000" stroke="none" 
	d="
M278.291046,157.698639 
	C281.808411,160.718292 282.831604,164.408646 279.883057,167.437378 
	C278.214478,169.151306 274.545319,170.006775 272.064301,169.580078 
	C268.527069,168.971725 267.478699,165.584274 267.952881,162.118454 
	C268.545471,157.786926 272.507904,156.016464 278.291046,157.698639 
z"/>
<path fill="#FAEBE9" opacity="1.000000" stroke="none" 
	d="
M233.425018,121.006859 
	C234.986053,116.725899 236.936768,112.378365 238.887466,108.030838 
	C239.562790,108.326988 240.238113,108.623138 240.913422,108.919289 
	C239.175629,113.802826 237.437836,118.686363 235.443207,123.801849 
	C234.729156,123.002625 234.271927,121.971451 233.425018,121.006859 
z"/>
<path fill="#E5272B" opacity="1.000000" stroke="none" 
	d="
M185.928802,136.830322 
	C185.826950,135.930191 185.991486,135.327988 186.418915,134.381409 
	C186.681808,134.037003 186.987274,133.751907 187.246109,133.806259 
	C187.675446,133.905609 187.845932,133.950592 188.016403,133.995575 
	C187.549881,138.595764 186.834946,143.187897 186.685577,147.798355 
	C186.531174,152.564240 186.926117,157.347931 187.077911,162.551544 
	C183.225998,157.371735 185.360291,151.232269 185.544250,145.279663 
	C185.628357,142.558426 185.970200,139.845154 185.928802,136.830322 
z"/>
<path fill="#FDFAF9" opacity="1.000000" stroke="none" 
	d="
M263.234650,151.388779 
	C261.574371,151.037125 260.165771,150.517776 258.392883,149.992767 
	C259.476471,147.809540 260.924316,145.631958 262.681732,142.988815 
	C264.157410,144.328156 265.419220,145.473373 266.895599,146.813354 
	C265.654388,148.418106 264.570374,149.819595 263.234650,151.388779 
z"/>
<path fill="#FEF9F8" opacity="1.000000" stroke="none" 
	d="
M186.987274,133.751907 
	C186.987274,133.751907 186.681808,134.037003 186.475800,134.071854 
	C184.471603,134.065674 182.673447,134.024643 180.427277,133.969879 
	C180.463791,132.707077 180.948303,131.457993 181.663361,129.888428 
	C181.893906,129.567932 181.958496,129.682419 181.958496,129.682419 
	C182.064316,129.369843 182.170120,129.057251 182.670868,128.340973 
	C183.065781,127.937256 183.229736,127.863998 183.229736,127.863998 
	C184.572311,128.240799 185.914902,128.617599 187.563217,129.339447 
	C187.575058,131.040283 187.281158,132.396088 186.987274,133.751907 
z"/>
<path fill="#E5272B" opacity="1.000000" stroke="none" 
	d="
M220.081650,148.726486 
	C219.885681,143.564346 223.463882,140.017624 226.596954,135.975571 
	C224.768066,140.121017 222.583923,144.356552 220.081650,148.726486 
z"/>
<path fill="#FCF2EE" opacity="1.000000" stroke="none" 
	d="
M329.655457,129.116272 
	C327.403015,130.584335 324.797424,131.962448 322.191833,133.340576 
	C321.813416,132.691055 321.434967,132.041519 321.056549,131.391998 
	C322.797607,130.296631 324.538696,129.201263 326.629517,128.052490 
	C327.753632,128.341507 328.527954,128.683929 329.655457,129.116272 
z"/>
<path fill="#D10E12" opacity="1.000000" stroke="none" 
	d="
M230.764008,67.834770 
	C223.328506,68.139854 215.568115,68.168915 207.320312,68.167587 
	C214.701630,67.944382 222.570358,67.751564 230.764008,67.834770 
z"/>
<path fill="#E5272B" opacity="1.000000" stroke="none" 
	d="
M192.213577,169.205872 
	C195.021835,169.168503 198.001923,169.441864 201.407516,169.703812 
	C198.613846,173.394882 195.496384,171.630051 192.213577,169.205872 
z"/>
<path fill="#FAEBE9" opacity="1.000000" stroke="none" 
	d="
M233.660248,127.141449 
	C233.184433,129.912170 232.358551,132.797623 231.078186,135.889160 
	C230.623718,136.095245 230.229355,136.013382 230.229370,136.013382 
	C231.256302,133.094315 232.283249,130.175247 233.660248,127.141449 
z"/>
<path fill="#FBF1ED" opacity="1.000000" stroke="none" 
	d="
M176.839294,139.452408 
	C177.360153,140.576797 177.650543,141.884979 177.940933,143.193176 
	C177.048813,143.187958 176.156677,143.182724 175.057129,142.925598 
	C175.436081,141.661194 176.022446,140.648712 176.839294,139.452408 
z"/>
<path fill="#E5272B" opacity="1.000000" stroke="none" 
	d="
M182.307037,142.873016 
	C183.006088,141.026581 184.025314,139.061020 185.303818,136.889175 
	C184.584473,138.706558 183.605835,140.730225 182.307037,142.873016 
z"/>
<path fill="#FDFAF9" opacity="1.000000" stroke="none" 
	d="
M234.433685,169.205170 
	C236.254028,169.129791 238.300827,169.293945 240.651764,169.678772 
	C238.857300,169.747879 236.758728,169.596283 234.433685,169.205170 
z"/>
<path fill="#FEF9F8" opacity="1.000000" stroke="none" 
	d="
M145.936554,165.368362 
	C146.899628,165.836670 147.908264,166.630753 148.917877,167.799316 
	C147.939926,167.347244 146.961014,166.520676 145.936554,165.368362 
z"/>
<path fill="#FCEEE7" opacity="1.000000" stroke="none" 
	d="
M220.515884,132.037125 
	C220.267517,132.937561 219.774170,133.973526 218.977493,135.033798 
	C219.206406,134.096283 219.738663,133.134476 220.515884,132.037125 
z"/>
<path fill="#FEF9F8" opacity="1.000000" stroke="none" 
	d="
M166.606613,164.205963 
	C167.087463,163.283676 167.863449,162.231308 169.014038,161.160553 
	C168.559677,162.120071 167.730713,163.097977 166.606613,164.205963 
z"/>
<path fill="#FCF2EE" opacity="1.000000" stroke="none" 
	d="
M328.645569,126.585739 
	C329.287903,125.841278 330.225769,124.926483 331.560669,124.014267 
	C330.952179,124.816376 329.946625,125.615891 328.645569,126.585739 
z"/>
<path fill="#FEF9F8" opacity="1.000000" stroke="none" 
	d="
M144.008636,146.334473 
	C144.098938,147.268936 144.048889,148.514908 143.722641,149.880615 
	C143.587067,148.882233 143.727676,147.764099 144.008636,146.334473 
z"/>
<path fill="#E5272B" opacity="1.000000" stroke="none" 
	d="
M202.112198,169.777893 
	C202.962997,168.861679 204.166382,167.993652 205.682953,167.050613 
	C204.819000,167.925751 203.641891,168.875916 202.112198,169.777893 
z"/>
<path fill="#FDFAF9" opacity="1.000000" stroke="none" 
	d="
M230.149902,136.364166 
	C230.229355,136.013382 230.623718,136.095245 230.818741,136.147552 
	C230.618408,137.391190 230.223053,138.582520 229.516754,139.887848 
	C229.494003,138.906235 229.782211,137.810577 230.149902,136.364166 
z"/>
<path fill="#FDFAF9" opacity="1.000000" stroke="none" 
	d="
M235.317245,104.913765 
	C235.676804,105.332024 236.036362,105.750282 236.395935,106.168541 
	C235.886810,106.424072 235.377686,106.679604 234.541412,106.806763 
	C234.214279,106.678398 234.104156,106.437187 234.104156,106.437187 
	C234.174026,106.163887 234.243912,105.890587 234.710663,105.300964 
	C235.107513,104.984650 235.317245,104.913765 235.317245,104.913765 
z"/>
<path fill="#FCF2EE" opacity="1.000000" stroke="none" 
	d="
M337.552979,119.512260 
	C337.950775,118.785423 338.651093,117.918907 339.738525,117.026443 
	C339.368958,117.791191 338.612213,118.581879 337.552979,119.512260 
z"/>
<path fill="#FDFAF9" opacity="1.000000" stroke="none" 
	d="
M254.986145,149.553085 
	C254.736526,148.587524 254.439789,147.228806 254.240402,145.576508 
	C254.538177,146.575272 254.738586,147.867599 254.986145,149.553085 
z"/>
<path fill="#FEF9F8" opacity="1.000000" stroke="none" 
	d="
M164.247009,166.322083 
	C164.563416,165.684448 165.139343,164.970535 166.026489,164.283752 
	C165.727310,164.955856 165.116928,165.600815 164.247009,166.322083 
z"/>
<path fill="#FDFAF9" opacity="1.000000" stroke="none" 
	d="
M276.138184,71.542648 
	C275.959198,70.891670 275.976410,69.999451 275.996460,68.772186 
	C276.110962,69.391899 276.222687,70.346649 276.138184,71.542648 
z"/>
<path fill="#FEF9F8" opacity="1.000000" stroke="none" 
	d="
M154.195404,170.049332 
	C154.569702,169.812363 155.112473,169.704575 155.816620,169.771027 
	C155.439957,170.023010 154.901901,170.100769 154.195404,170.049332 
z"/>
<path fill="#FAEBE9" opacity="1.000000" stroke="none" 
	d="
M226.920532,120.613579 
	C226.822311,121.239723 226.530319,122.025414 226.006195,122.927490 
	C226.091644,122.286964 226.409210,121.530052 226.920532,120.613579 
z"/>
<path fill="#E5272B" opacity="1.000000" stroke="none" 
	d="
M187.027069,163.277451 
	C187.662399,163.760498 188.265640,164.586014 188.924042,165.718079 
	C188.317795,165.223068 187.656372,164.421494 187.027069,163.277451 
z"/>
<path fill="#FDFAF9" opacity="1.000000" stroke="none" 
	d="
M256.134277,135.541611 
	C256.136047,134.731796 256.301697,133.634186 256.673889,132.274414 
	C256.686371,133.092758 256.492279,134.173294 256.134277,135.541611 
z"/>
<path fill="#FEF9F8" opacity="1.000000" stroke="none" 
	d="
M167.208832,143.753479 
	C167.189163,143.185837 167.340012,142.348785 167.701996,141.266510 
	C167.735229,141.842224 167.557297,142.663132 167.208832,143.753479 
z"/>
<path fill="#FDFAF9" opacity="1.000000" stroke="none" 
	d="
M268.201721,94.674255 
	C268.178375,94.108711 268.351807,93.299080 268.740753,92.260452 
	C268.770325,92.831017 268.584412,93.630585 268.201721,94.674255 
z"/>
<path fill="#FDFAF9" opacity="1.000000" stroke="none" 
	d="
M238.656601,96.854752 
	C238.673340,97.372993 238.465286,98.032913 238.030853,98.837662 
	C238.013596,98.320473 238.222702,97.658447 238.656601,96.854752 
z"/>
<path fill="#E5272B" opacity="1.000000" stroke="none" 
	d="
M189.009979,166.331635 
	C189.554901,166.514450 190.134674,167.010239 190.822433,167.773941 
	C190.301895,167.576096 189.673370,167.110367 189.009979,166.331635 
z"/>
<path fill="#FDFAF9" opacity="1.000000" stroke="none" 
	d="
M227.727936,150.955978 
	C227.886826,151.505630 227.877792,152.332367 227.783203,153.454865 
	C227.651764,152.911438 227.605896,152.072266 227.727936,150.955978 
z"/>
<path fill="#FDFAF9" opacity="1.000000" stroke="none" 
	d="
M261.221832,116.724655 
	C261.182831,116.144218 261.350922,115.318283 261.732361,114.252579 
	C261.773468,114.834923 261.601196,115.657036 261.221832,116.724655 
z"/>
<path fill="#E5272B" opacity="1.000000" stroke="none" 
	d="
M216.988495,153.685684 
	C216.937027,153.281189 217.158905,152.733002 217.642914,152.037292 
	C217.690643,152.440506 217.476242,152.991257 216.988495,153.685684 
z"/>
<path fill="#FDFAF9" opacity="1.000000" stroke="none" 
	d="
M253.621201,68.315491 
	C253.446716,68.595894 253.001770,68.778702 252.311920,68.971115 
	C252.494934,68.726456 252.922836,68.472183 253.621201,68.315491 
z"/>
<path fill="#FDFAF9" opacity="1.000000" stroke="none" 
	d="
M227.582901,157.478821 
	C227.779739,157.760376 227.854156,158.308792 227.906799,159.139313 
	C227.743500,158.862854 227.601990,158.304276 227.582901,157.478821 
z"/>
<path fill="#FDFAF9" opacity="1.000000" stroke="none" 
	d="
M262.326294,113.058044 
	C262.238159,112.682579 262.371033,112.077408 262.702881,111.229156 
	C262.783691,111.600166 262.665497,112.214249 262.326294,113.058044 
z"/>
<path fill="#FEF9F8" opacity="1.000000" stroke="none" 
	d="
M168.490295,139.514801 
	C168.191696,139.243484 168.117218,138.746078 168.017151,137.873077 
	C168.232529,138.094559 168.473465,138.691650 168.490295,139.514801 
z"/>
<path fill="#D10E12" opacity="1.000000" stroke="none" 
	d="
M206.376236,68.300140 
	C206.410751,68.788010 206.089203,69.477554 205.505920,70.440788 
	C205.502853,69.976929 205.761505,69.239365 206.376236,68.300140 
z"/>
<path fill="#FAEBE9" opacity="1.000000" stroke="none" 
	d="
M230.544312,113.521751 
	C230.621857,113.856239 230.480087,114.310928 230.131805,114.903336 
	C230.058502,114.574684 230.191757,114.108322 230.544312,113.521751 
z"/>
<path fill="#FDFAF9" opacity="1.000000" stroke="none" 
	d="
M272.374756,82.250336 
	C272.268463,81.839508 272.407501,81.191444 272.769531,80.294495 
	C272.868378,80.701431 272.744232,81.357269 272.374756,82.250336 
z"/>
<path fill="#FEF9F8" opacity="1.000000" stroke="none" 
	d="
M143.376892,158.357025 
	C143.610901,158.577560 143.777664,159.060608 143.937927,159.801727 
	C143.724167,159.579712 143.516907,159.099625 143.376892,158.357025 
z"/>
<path fill="#E5272B" opacity="1.000000" stroke="none" 
	d="
M212.913727,159.596008 
	C212.884705,159.177444 213.147537,158.666550 213.679443,158.040695 
	C213.700867,158.451721 213.453232,158.977707 212.913727,159.596008 
z"/>
<path fill="#E5272B" opacity="1.000000" stroke="none" 
	d="
M214.971924,156.663345 
	C214.945084,156.265457 215.195374,155.744522 215.710159,155.089966 
	C215.732788,155.484329 215.490921,156.012314 214.971924,156.663345 
z"/>
<path fill="#FDFAF9" opacity="1.000000" stroke="none" 
	d="
M246.859863,79.469467 
	C246.887329,79.749847 246.727020,80.178185 246.401428,80.768776 
	C246.381470,80.493164 246.526779,80.055298 246.859863,79.469467 
z"/>
<path fill="#E5272B" opacity="1.000000" stroke="none" 
	d="
M218.898834,150.566605 
	C218.836929,150.147324 219.064209,149.614731 219.547379,148.938751 
	C219.598190,149.348022 219.393112,149.900650 218.898834,150.566605 
z"/>
<path fill="#FBF1ED" opacity="1.000000" stroke="none" 
	d="
M185.643661,121.930740 
	C185.727753,122.327744 185.566055,122.923073 185.163330,123.720863 
	C185.080826,123.325241 185.239349,122.727150 185.643661,121.930740 
z"/>
<path fill="#FEF9F8" opacity="1.000000" stroke="none" 
	d="
M160.243469,168.842056 
	C160.388718,168.567215 160.783249,168.304352 161.414001,167.997559 
	C161.264404,168.253754 160.878571,168.553894 160.243469,168.842056 
z"/>
<path fill="#FDFAF9" opacity="1.000000" stroke="none" 
	d="
M230.732880,166.366974 
	C231.054153,166.411026 231.439667,166.696320 231.911240,167.214081 
	C231.597229,167.167114 231.197159,166.887665 230.732880,166.366974 
z"/>
<path fill="#E5272B" opacity="1.000000" stroke="none" 
	d="
M216.178833,154.847168 
	C216.063354,154.651367 216.171707,154.314804 216.526672,153.862091 
	C216.649719,154.066101 216.526184,154.386261 216.178833,154.847168 
z"/>
<path fill="#FDFAF9" opacity="1.000000" stroke="none" 
	d="
M259.378784,156.184875 
	C259.306152,155.998489 259.491577,155.688568 259.897247,155.217453 
	C259.957306,155.391296 259.797089,155.726318 259.378784,156.184875 
z"/>
<path fill="#E5272B" opacity="1.000000" stroke="none" 
	d="
M218.091278,151.802307 
	C217.962311,151.611618 218.052521,151.272629 218.379425,150.803009 
	C218.514252,150.999588 218.412354,151.326782 218.091278,151.802307 
z"/>
<path fill="#E5272B" opacity="1.000000" stroke="none" 
	d="
M210.199402,162.876617 
	C210.113907,162.675980 210.262238,162.358490 210.668198,161.952530 
	C210.761627,162.162628 210.597412,162.461197 210.199402,162.876617 
z"/>
<path fill="#E5272B" opacity="1.000000" stroke="none" 
	d="
M214.145569,157.835785 
	C214.028809,157.639282 214.140167,157.303543 214.495193,156.845886 
	C214.617142,157.048157 214.495407,157.372345 214.145569,157.835785 
z"/>
<path fill="#E5272B" opacity="1.000000" stroke="none" 
	d="
M211.997070,160.730255 
	C211.884766,160.518173 212.016571,160.196365 212.395905,159.770172 
	C212.509354,159.984039 212.375275,160.302277 211.997070,160.730255 
z"/>
<path fill="#E5272B" opacity="1.000000" stroke="none" 
	d="
M211.103851,161.819946 
	C211.007233,161.609833 211.151688,161.279160 211.558990,160.855164 
	C211.662888,161.074356 211.503906,161.386871 211.103851,161.819946 
z"/>
<path fill="#FDFAF9" opacity="1.000000" stroke="none" 
	d="
M273.165131,79.879692 
	C273.035217,79.775925 273.079254,79.604393 273.220856,79.327171 
	C273.467621,79.404350 273.474487,79.601166 273.165131,79.879692 
z"/>
<path fill="#E5272B" opacity="1.000000" stroke="none" 
	d="
M209.273849,163.927628 
	C209.191116,163.725830 209.345963,163.431427 209.744263,163.051056 
	C209.828964,163.255051 209.670197,163.545044 209.273849,163.927628 
z"/>
<path fill="#FDFAF9" opacity="1.000000" stroke="none" 
	d="
M228.965454,163.436646 
	C228.980179,163.495850 228.933655,163.475357 228.939896,163.464737 
	C228.946136,163.454117 228.950714,163.377441 228.965454,163.436646 
z"/>
<path fill="#E5272B" opacity="1.000000" stroke="none" 
	d="
M208.281281,164.948654 
	C208.207031,164.743454 208.371704,164.461472 208.779022,164.107849 
	C208.854507,164.314758 208.687347,164.593323 208.281281,164.948654 
z"/>
<path fill="#E5272B" opacity="1.000000" stroke="none" 
	d="
M207.264740,165.942184 
	C207.194122,165.735291 207.361801,165.451218 207.777435,165.104385 
	C207.851257,165.316086 207.677139,165.590546 207.264740,165.942184 
z"/>
<path fill="#E5272B" opacity="1.000000" stroke="none" 
	d="
M206.218735,166.922867 
	C206.154617,166.713547 206.335327,166.432144 206.767715,166.088409 
	C206.834106,166.300964 206.648834,166.575867 206.218735,166.922867 
z"/>
<path fill="#E5272B" opacity="1.000000" stroke="none" 
	d="
M191.079102,168.306274 
	C191.281158,168.199036 191.589417,168.324112 191.997406,168.687195 
	C191.793182,168.796326 191.489227,168.667465 191.079102,168.306274 
z"/>
<path fill="#FEF9F8" opacity="1.000000" stroke="none" 
	d="
M150.245667,169.098297 
	C150.210815,168.970825 150.560638,169.084229 150.640869,169.125977 
	C150.721100,169.167725 150.519028,169.334167 150.519028,169.334167 
	C150.519028,169.334167 150.280502,169.225784 150.245667,169.098297 
z"/>
<path fill="#FEF9F8" opacity="1.000000" stroke="none" 
	d="
M159.414703,169.175415 
	C159.362091,169.080948 159.564835,168.997726 159.615814,168.979492 
	C159.666809,168.961258 159.467331,169.269882 159.414703,169.175415 
z"/>
<path fill="#FDFAF9" opacity="1.000000" stroke="none" 
	d="
M244.488037,169.115417 
	C244.494934,169.024002 244.597168,168.989365 244.622299,168.980728 
	C244.647430,168.972092 244.481140,169.206818 244.488037,169.115417 
z"/>
<path fill="#FDFAF9" opacity="1.000000" stroke="none" 
	d="
M239.644073,94.798012 
	C239.750259,94.962318 239.630997,95.272820 239.344696,95.770737 
	C239.257980,95.620171 239.338318,95.282188 239.644073,94.798012 
z"/>
<path fill="#FDFAF9" opacity="1.000000" stroke="none" 
	d="
M257.842316,128.735321 
	C257.487793,128.696411 257.476868,128.439102 257.801514,128.098129 
	C257.939209,128.183655 257.955505,128.351151 257.842316,128.735321 
z"/>
<path fill="#FCF2EE" opacity="1.000000" stroke="none" 
	d="
M327.209900,127.873199 
	C327.105225,127.679756 327.277191,127.439835 327.706665,127.131538 
	C327.852234,127.341232 327.693024,127.595749 327.209900,127.873199 
z"/>
<path fill="#FBF1ED" opacity="1.000000" stroke="none" 
	d="
M183.200684,127.742928 
	C183.229736,127.863998 183.065781,127.937256 182.977280,127.952209 
	C182.704361,127.823166 182.685272,127.659851 182.961868,127.431534 
	C183.092239,127.385849 183.171646,127.621857 183.200684,127.742928 
z"/>
<path fill="#FDFAF9" opacity="1.000000" stroke="none" 
	d="
M266.887634,98.753098 
	C266.519135,98.705421 266.509399,98.443565 266.850952,98.106949 
	C266.993988,98.200241 267.008698,98.369148 266.887634,98.753098 
z"/>
<path fill="#FBF1ED" opacity="1.000000" stroke="none" 
	d="
M183.966217,125.477753 
	C184.047455,125.487106 184.044357,125.541969 184.034119,125.550140 
	C184.023880,125.558304 183.884979,125.468391 183.966217,125.477753 
z"/>
<path fill="#FAEBE9" opacity="1.000000" stroke="none" 
	d="
M234.777069,124.112442 
	C234.980667,124.368309 234.856812,124.589439 234.506195,124.878403 
	C234.401642,124.693405 234.458374,124.403885 234.777069,124.112442 
z"/>
<path fill="#FAEBE9" opacity="1.000000" stroke="none" 
	d="
M235.917877,102.575043 
	C235.995972,102.612289 235.990295,102.676476 235.977325,102.686539 
	C235.964371,102.696609 235.839798,102.537804 235.917877,102.575043 
z"/>
<path fill="#FBF1ED" opacity="1.000000" stroke="none" 
	d="
M181.966248,129.628876 
	C181.958496,129.682419 181.893906,129.567932 181.882080,129.544479 
	C181.870270,129.521027 181.973999,129.575317 181.966248,129.628876 
z"/>
<path fill="#FDFAF9" opacity="1.000000" stroke="none" 
	d="
M259.149658,123.888519 
	C259.022675,123.799110 259.055359,123.633430 259.166687,123.358475 
	C259.410217,123.412392 259.431519,123.600067 259.149658,123.888519 
z"/>
<path fill="#FCF2EE" opacity="1.000000" stroke="none" 
	d="
M334.235138,122.250443 
	C334.203949,122.170036 334.243073,122.101089 334.264191,122.103180 
	C334.285309,122.105263 334.266327,122.330849 334.235138,122.250443 
z"/>
<path fill="#FAEBE9" opacity="1.000000" stroke="none" 
	d="
M235.274719,104.792862 
	C235.317245,104.913765 235.107513,104.984650 234.996918,104.989349 
	C234.711823,104.845795 234.702957,104.688210 234.987701,104.482483 
	C235.115692,104.443665 235.232193,104.671967 235.274719,104.792862 
z"/>
<path fill="#FCF2EE" opacity="1.000000" stroke="none" 
	d="
M336.221588,120.692284 
	C336.116669,120.488991 336.262573,120.306290 336.627899,120.096527 
	C336.795929,120.314346 336.670929,120.528809 336.221588,120.692284 
z"/>
<path fill="#FDFAF9" opacity="1.000000" stroke="none" 
	d="
M260.062256,120.702316 
	C259.963745,120.704758 260.006592,120.560661 260.012207,120.524536 
	C260.017853,120.488419 260.160797,120.699867 260.062256,120.702316 
z"/>
<path fill="#FAEBE9" opacity="1.000000" stroke="none" 
	d="
M227.795547,118.760384 
	C227.723709,118.727921 227.870300,118.656189 227.878082,118.620529 
	C227.885864,118.584862 227.867386,118.792847 227.795547,118.760384 
z"/>
<path fill="#FAEBE9" opacity="1.000000" stroke="none" 
	d="
M233.980072,106.482529 
	C234.104156,106.437187 234.214279,106.678398 234.260132,106.804306 
	C234.305984,106.930222 234.113800,106.996582 234.012146,106.994308 
	C233.728928,106.856499 233.710754,106.701782 233.980072,106.482529 
z"/>
<path fill="#FDFAF9" opacity="1.000000" stroke="none" 
	d="
M263.050842,110.776276 
	C262.947083,110.799744 263.009613,110.559998 263.020813,110.499947 
	C263.032043,110.439896 263.154602,110.752815 263.050842,110.776276 
z"/>
<path fill="#FDFAF9" opacity="1.000000" stroke="none" 
	d="
M255.333893,139.438278 
	C255.190598,139.286789 255.256317,138.934372 255.446899,138.345551 
	C255.562149,138.485214 255.552521,138.861282 255.333893,139.438278 
z"/>
<path fill="#FDFAF9" opacity="1.000000" stroke="none" 
	d="
M256.518036,150.782745 
	C256.547668,150.852295 256.436310,150.858261 256.421631,150.849426 
	C256.406982,150.840607 256.488403,150.713181 256.518036,150.782745 
z"/>
<path fill="#FEF9F8" opacity="1.000000" stroke="none" 
	d="
M167.453476,149.185852 
	C167.263840,149.289429 167.144562,149.066376 167.096115,148.631439 
	C167.196930,148.610168 167.315903,148.756744 167.453476,149.185852 
z"/>
<path fill="#FDFAF9" opacity="1.000000" stroke="none" 
	d="
M228.958801,144.246155 
	C229.379944,144.258987 229.419678,144.530426 229.078781,144.915985 
	C228.906845,144.831100 228.866608,144.655991 228.958801,144.246155 
z"/>
<path fill="#FBF1ED" opacity="1.000000" stroke="none" 
	d="
M181.246521,145.024765 
	C181.033264,144.833221 181.142227,144.572632 181.470428,144.188049 
	C181.578690,144.331726 181.538391,144.628967 181.246521,145.024765 
z"/>
<path fill="#FEF9F8" opacity="1.000000" stroke="none" 
	d="
M167.037521,144.763519 
	C166.625275,144.758270 166.578583,144.495834 166.906738,144.119583 
	C167.077652,144.202484 167.118149,144.369354 167.037521,144.763519 
z"/>
<path fill="#FDFAF9" opacity="1.000000" stroke="none" 
	d="
M263.966003,107.750259 
	C263.563477,107.699249 263.554626,107.426804 263.924438,107.074142 
	C264.078552,107.170639 264.097412,107.348938 263.966003,107.750259 
z"/>
<path fill="#FEF9F8" opacity="1.000000" stroke="none" 
	d="
M144.891861,142.195770 
	C145.009964,142.145142 144.943893,142.495773 144.916946,142.579926 
	C144.889999,142.664078 144.703110,142.491165 144.703110,142.491165 
	C144.703110,142.491165 144.773758,142.246399 144.891861,142.195770 
z"/>
<path fill="#FDFAF9" opacity="1.000000" stroke="none" 
	d="
M247.887177,77.236633 
	C248.028107,77.189613 247.854370,77.617790 247.792328,77.713844 
	C247.557541,77.629150 247.562866,77.453735 247.887177,77.236633 
z"/>
<path fill="#FEF9F8" opacity="1.000000" stroke="none" 
	d="
M146.502731,137.769135 
	C146.649109,137.990601 146.513992,138.314987 146.183365,138.820053 
	C146.065628,138.624496 146.143433,138.248291 146.502731,137.769135 
z"/>
<path fill="#FCEEE7" opacity="1.000000" stroke="none" 
	d="
M216.705017,136.953705 
	C216.863266,137.314163 216.637070,137.470093 216.150177,137.301941 
	C216.030350,137.196579 216.461441,136.967896 216.705017,136.953705 
z"/>
<path fill="#FEF9F8" opacity="1.000000" stroke="none" 
	d="
M147.702972,137.351669 
	C147.684555,137.631653 147.418686,137.729019 146.908966,137.726379 
	C146.848221,137.363754 147.111694,137.211319 147.702972,137.351669 
z"/>
<path fill="#FDFAF9" opacity="1.000000" stroke="none" 
	d="
M270.546692,87.596443 
	C270.389191,87.399490 270.491272,86.967773 270.794189,86.268845 
	C270.932098,86.454987 270.869171,86.908333 270.546692,87.596443 
z"/>
<path fill="#FDFAF9" opacity="1.000000" stroke="none" 
	d="
M269.125732,91.835815 
	C268.993866,91.902168 269.115204,91.451820 269.167297,91.348877 
	C269.406433,91.407684 269.419189,91.582199 269.125732,91.835815 
z"/>
<path fill="#FDFAF9" opacity="1.000000" stroke="none" 
	d="
M240.861298,92.264587 
	C241.005066,92.226364 240.789948,92.656509 240.711594,92.745453 
	C240.497894,92.631248 240.525986,92.454056 240.861298,92.264587 
z"/>
<path fill="#FDFAF9" opacity="1.000000" stroke="none" 
	d="
M257.057343,131.745392 
	C256.952911,131.761383 257.014862,131.542877 257.025879,131.487640 
	C257.036926,131.432419 257.161774,131.729401 257.057343,131.745392 
z"/>
<path fill="#FAEBE9" opacity="1.000000" stroke="none" 
	d="
M221.741882,129.753693 
	C221.717377,129.653931 221.848434,129.632034 221.858734,129.585526 
	C221.869049,129.539017 221.766388,129.853470 221.741882,129.753693 
z"/>
<path fill="#FBF1ED" opacity="1.000000" stroke="none" 
	d="
M187.246109,133.806259 
	C187.281158,132.396088 187.575058,131.040283 187.922714,129.339783 
	C189.026871,129.377792 190.077255,129.760468 191.852859,130.407349 
	C190.518555,131.837891 189.575165,132.849335 188.324097,133.928162 
	C187.845932,133.950592 187.675446,133.905609 187.246109,133.806259 
z"/>
<path fill="#F11019" opacity="1.000000" stroke="none" 
	d="
M320.567200,124.858276 
	C318.853546,125.725243 317.139893,126.592224 315.426239,127.459198 
	C315.135254,127.116867 314.844269,126.774536 314.553284,126.432198 
	C323.397247,112.279877 333.554138,99.414375 348.865784,91.601158 
	C349.373352,92.006966 349.880920,92.412773 350.388489,92.818581 
	C347.866974,96.275879 345.345428,99.733185 342.395691,103.670685 
	C339.963745,106.427101 337.959991,108.703316 335.956207,110.979523 
	C333.372223,113.395317 330.788239,115.811119 327.791443,118.607895 
	C327.151428,119.284317 326.924194,119.579773 326.696960,119.875229 
	C325.554199,120.736504 324.411438,121.597778 322.875122,122.787613 
	C322.293823,123.392136 322.106079,123.668091 321.918365,123.944061 
	C321.918365,123.944061 321.980255,123.988289 321.677246,124.005905 
	C321.105255,124.301781 320.836212,124.580025 320.567200,124.858276 
z"/>
<path fill="#F40A10" opacity="1.000000" stroke="none" 
	d="
M310.375183,143.020691 
	C311.544861,137.008942 311.544861,137.008942 318.004211,134.884232 
	C318.004211,140.249786 318.336426,145.433640 317.853149,150.540329 
	C317.636780,152.826645 316.682068,155.980637 312.509827,154.672424 
	C311.940948,153.964050 311.710754,153.659851 311.480560,153.355652 
	C311.480560,153.355652 311.472809,153.088394 311.363953,152.670502 
	C311.084290,151.827301 310.913452,151.401978 310.742584,150.976654 
	C310.708923,150.525604 310.675232,150.074570 310.601990,149.063049 
	C310.482300,148.350784 310.402130,148.199020 310.321930,148.047241 
	C310.378082,146.953613 310.434235,145.860001 310.525452,144.133636 
	C310.498718,143.340836 310.436951,143.180771 310.375183,143.020691 
z"/>
<path fill="#FCF2EE" opacity="1.000000" stroke="none" 
	d="
M336.345459,110.984276 
	C337.959991,108.703316 339.963745,106.427101 342.233307,103.980362 
	C343.913483,108.102509 342.449524,109.925781 336.345459,110.984276 
z"/>
<path fill="#F8CFCA" opacity="1.000000" stroke="none" 
	d="
M310.597870,151.177368 
	C310.913452,151.401978 311.084290,151.827301 311.251068,152.598923 
	C310.982391,152.422836 310.717773,151.900452 310.597870,151.177368 
z"/>
<path fill="#F8CFCA" opacity="1.000000" stroke="none" 
	d="
M311.487183,153.659271 
	C311.710754,153.659851 311.940948,153.964050 312.225342,154.553223 
	C312.017639,154.546417 311.755707,154.254654 311.487183,153.659271 
z"/>
<path fill="#FCF2EE" opacity="1.000000" stroke="none" 
	d="
M322.137695,123.839813 
	C322.106079,123.668091 322.293823,123.392136 322.736969,123.064865 
	C322.844910,123.310806 322.633118,123.551483 322.137695,123.839813 
z"/>
<path fill="#FCF2EE" opacity="1.000000" stroke="none" 
	d="
M320.843018,124.773544 
	C320.836212,124.580025 321.105255,124.301781 321.666473,123.969437 
	C321.678711,124.173172 321.398743,124.430992 320.843018,124.773544 
z"/>
<path fill="#FCF2EE" opacity="1.000000" stroke="none" 
	d="
M326.952454,119.765259 
	C326.924194,119.579773 327.151428,119.284317 327.651733,118.904907 
	C327.685883,119.099060 327.446930,119.377174 326.952454,119.765259 
z"/>
<path fill="#F8CFCA" opacity="1.000000" stroke="none" 
	d="
M310.207886,148.146027 
	C310.402130,148.199020 310.482300,148.350784 310.477936,148.745697 
	C310.086578,148.831528 309.986694,148.583527 310.207886,148.146027 
z"/>
<path fill="#F8CFCA" opacity="1.000000" stroke="none" 
	d="
M310.250946,143.104004 
	C310.436951,143.180771 310.498718,143.340836 310.442749,143.729645 
	C310.046234,143.763184 309.980103,143.506165 310.250946,143.104004 
z"/>
<path fill="#F70D16" opacity="1.000000" stroke="none" 
	d="
M419.025757,145.296005 
	C421.726562,138.850357 424.073914,132.657349 427.245209,126.919754 
	C428.249542,125.102737 431.453461,124.501465 433.650726,123.343796 
	C434.290527,125.590683 435.925568,128.116898 435.387726,130.033279 
	C433.613739,136.354233 431.519257,142.689438 428.573853,148.527786 
	C427.342346,150.968933 423.662964,152.175125 421.096527,153.942810 
	C420.394714,151.203491 419.692932,148.464172 419.025757,145.296005 
z"/>
<path fill="#F70B13" opacity="1.000000" stroke="none" 
	d="
M541.456787,138.348862 
	C538.272644,143.984589 535.662476,149.574615 532.015198,154.376953 
	C530.608337,156.229309 526.312988,157.613724 524.304626,156.803757 
	C522.246277,155.973648 520.442627,152.300110 520.157471,149.692825 
	C519.234924,141.257996 523.350098,134.426834 528.030334,127.972313 
	C529.987000,130.187347 531.674683,132.097961 533.141052,133.757935 
	C536.349304,130.714478 539.288147,127.926590 542.226990,125.138710 
	C542.922974,125.554115 543.618958,125.969521 544.314941,126.384926 
	C543.415588,130.252853 542.516174,134.120789 541.456787,138.348862 
z"/>
<path fill="#F31118" opacity="1.000000" stroke="none" 
	d="
M476.260254,135.367767 
	C479.447968,131.106537 482.179871,126.895081 485.637756,123.402390 
	C487.014221,122.012077 489.997040,122.212128 492.248566,121.688171 
	C492.022980,123.841957 492.565613,126.586166 491.441223,128.049240 
	C486.039001,135.078705 480.186432,141.762070 474.493774,148.568344 
	C473.757812,148.134003 473.021881,147.699677 472.285950,147.265350 
	C473.555786,143.412140 474.825653,139.558929 476.260254,135.367767 
z"/>
</svg>
