<?xml version="1.0" standalone="no"?>
<!DOCTYPE svg PUBLIC "-//W3C//DTD SVG 20010904//EN"
 "http://www.w3.org/TR/2001/REC-SVG-20010904/DTD/svg10.dtd">
<svg version="1.0" xmlns="http://www.w3.org/2000/svg"
 width="200.000000pt" height="200.000000pt" viewBox="0 0 200.000000 200.000000"
 preserveAspectRatio="xMidYMid meet">

<g transform="translate(0.000000,200.000000) scale(0.100000,-0.100000)"
fill="#000000" stroke="none">
<path d="M1482 1735 c-60 -60 -64 -66 -58 -98 5 -27 2 -38 -15 -53 -19 -17
-37 -19 -153 -19 -128 0 -133 -1 -197 -32 -42 -21 -85 -53 -118 -88 -47 -49
-53 -60 -49 -90 4 -33 -4 -42 -169 -207 -166 -165 -174 -172 -209 -169 -33 2
-43 -4 -156 -116 -127 -124 -158 -171 -158 -238 0 -70 34 -122 163 -252 131
-133 192 -173 261 -173 65 0 115 33 240 159 111 113 117 122 115 155 -3 35 4
43 169 209 165 165 174 173 207 169 30 -4 41 2 90 49 35 33 67 77 88 118 31
64 32 70 32 193 0 119 1 128 24 152 18 19 30 24 53 19 25 -5 36 2 93 59 43 42
65 73 65 88 0 32 -198 230 -230 230 -15 0 -46 -22 -88 -65z m188 -70 l95 -95
-58 -57 -57 -58 -97 97 -98 98 55 55 c30 30 57 55 60 55 3 0 48 -43 100 -95z
m-135 -145 l59 -60 -34 -35 -35 -36 0 -132 c0 -119 -2 -136 -24 -177 -27 -53
-119 -150 -141 -150 -20 0 -430 410 -430 430 0 22 97 114 150 141 41 22 58 24
182 24 137 0 138 0 165 28 15 15 32 27 38 27 6 0 37 -27 70 -60z m-417 -767
l-173 -173 -182 182 -183 183 172 172 173 173 182 -182 183 -183 -172 -172z
m-386 -20 c115 -114 208 -215 208 -223 0 -9 -27 -42 -60 -75 l-60 -60 -222
223 -223 222 60 60 c33 33 66 60 75 60 8 0 108 -93 222 -207z m10 -435 c-53
-51 -96 -65 -159 -53 -32 6 -63 32 -185 153 -121 122 -147 153 -153 185 -12
62 2 105 53 159 l46 49 223 -223 224 -223 -49 -47z"/>
</g>
</svg>
