<?xml version="1.0" standalone="no"?>
<!DOCTYPE svg PUBLIC "-//W3C//DTD SVG 20010904//EN"
 "http://www.w3.org/TR/2001/REC-SVG-20010904/DTD/svg10.dtd">
<svg version="1.0" xmlns="http://www.w3.org/2000/svg"
 width="512.000000pt" height="512.000000pt" viewBox="0 0 512.000000 512.000000"
 preserveAspectRatio="xMidYMid meet">

<g transform="translate(0.000000,512.000000) scale(0.100000,-0.100000)"
fill="#000000" stroke="none">
<path d="M3531 5094 c-90 -45 -133 -139 -110 -239 11 -47 26 -64 277 -317
l266 -267 -1305 -4 c-1150 -3 -1312 -5 -1374 -19 -409 -93 -709 -374 -822
-770 -26 -90 -26 -102 -30 -424 -4 -316 -4 -333 15 -370 84 -163 299 -165 382
-4 16 31 18 71 22 330 6 325 10 355 72 477 88 175 240 293 433 337 64 14 207
16 1340 16 l1268 0 -257 -257 c-141 -142 -264 -274 -274 -293 -38 -73 -16
-188 48 -247 56 -52 159 -68 231 -35 57 26 953 925 968 971 18 52 13 124 -10
168 -11 22 -217 234 -478 494 -391 389 -464 457 -499 467 -63 18 -105 14 -163
-14z"/>
<path d="M4400 2544 c-45 -19 -87 -59 -110 -104 -16 -31 -18 -71 -22 -330 -5
-323 -10 -355 -69 -473 -90 -177 -243 -297 -436 -341 -64 -14 -207 -16 -1340
-16 l-1268 0 257 258 c141 141 264 273 274 292 38 73 16 188 -48 247 -56 52
-159 68 -231 35 -57 -26 -953 -925 -968 -971 -18 -52 -13 -124 10 -168 11 -22
217 -234 478 -494 391 -389 464 -457 499 -467 63 -18 105 -14 163 14 90 45
133 139 110 239 -11 47 -26 64 -277 318 l-266 267 1242 0 c816 0 1276 4 1339
11 442 49 796 350 920 784 25 87 26 101 30 421 4 316 4 333 -15 370 -54 104
-172 151 -272 108z"/>
</g>
</svg>
