<svg id="Слой_1" data-name="Слой 1" xmlns="http://www.w3.org/2000/svg" viewBox="0 0 410.55 97.78"><defs><style>.cls-1{fill:#654870;}.cls-2{fill:#65486f;}.cls-3{fill:#64476f;}.cls-4{fill:#664970;}</style></defs><title>Familia</title><path class="cls-1" d="M219.11,353.65c4.32-4.41,9.89-4.77,15.66-4.72,10.6.1,21.2,0,31.8,0,8.66,0,15.36,5.11,17.24,13a20.8,20.8,0,0,1,.51,4.66c0,16.79,0,33.59.06,50.38,0,2-.61,2.63-2.55,2.53-2.52-.14-5.06,0-7.89,0v-2.76q0-25,0-49.94c0-5.18-2.31-7.49-7.48-7.5H231.74c-5.14,0-7.61,2.52-7.61,7.75q0,24.85,0,49.72v2.54H213.8v-2.53q0-25.18,0-50.39c0-4.54-2.48-7.08-7-7.08q-17.69,0-35.38,0c-4.86,0-7.32,2.45-7.32,7.27v52.73H153.77v-2.27q0-26.54,0-53.07c0-5.51,6.49-13.24,12.15-14.29a41,41,0,0,1,7.25-.71c10.82-.07,21.65,0,32.47,0C211,348.93,214.88,350,219.11,353.65Z" transform="translate(-39.64 -321.86)"/><path class="cls-1" d="M450.19,409.42v10c-4.44.05-8-1.81-11.51-4.68-4.65,4.67-10.63,4.48-16.64,4.43q-15.77-.15-31.55,0c-8.19.08-14.52-6.13-16.18-12.61a19.08,19.08,0,0,1-.57-4.64c-.05-11.86-.11-23.72,0-35.58.07-7.47,3.51-13.05,10.43-16a19.63,19.63,0,0,1,7.34-1.35c11.63-.14,23.27-.08,34.91-.06,7.31,0,12.83,3.18,15.93,9.84a18.37,18.37,0,0,1,1.55,7.29c.16,11.79.07,23.58.07,35.36C444,406,445.67,408.19,450.19,409.42ZM409,359.33c-6,0-11.93,0-17.89,0-4.37,0-7,2.53-7,6.92q-.06,17.89,0,35.79c0,4.37,2.7,7.05,7.09,7.07,11.86.06,23.72,0,35.58,0,3.66,0,6.92-2.1,7-7,.12-12,.08-24,0-36,0-4.41-2.59-6.77-7.08-6.77C420.74,359.32,414.85,359.33,409,359.33Z" transform="translate(-39.64 -321.86)"/><path class="cls-1" d="M146.54,409.35c0,3,0,5.8,0,8.62,0,2-1.42,1.83-2.48,1.44-3.13-1.16-6.18-2.54-9.4-3.89-2.28,1-5,2.21-7.78,3.25a10.44,10.44,0,0,1-3.5.38c-12.24,0-24.48,0-36.72,0-8.22,0-14.33-5.52-16.68-13.54a6.59,6.59,0,0,1,0-1.78v-37.4c0-10.12,7.09-17.41,17.21-17.48,11.87-.09,23.74,0,35.6,0a17.08,17.08,0,0,1,17.4,17.56c-.21,11.79.06,23.59-.11,35.38C140,405.63,143.2,409.4,146.54,409.35ZM80.19,384.07c0,6,0,11.94,0,17.91,0,4.33,2.55,7.11,6.85,7.13q18,.12,36.05,0a6.53,6.53,0,0,0,6.76-6.84q.09-18,0-36c0-4.39-2.62-6.89-7-6.89q-17.8,0-35.6,0c-4.54,0-7,2.5-7.06,7C80.17,372.27,80.19,378.17,80.19,384.07Z" transform="translate(-39.64 -321.86)"/><path class="cls-2" d="M63.67,322.09c0,2.88,0,5.64,0,8.4,0,1.27-.49,1.74-1.72,1.7-2-.05-4,0-6,0-2.77,0-5.55,2.1-5.71,4.88-.23,3.92-.06,7.87-.06,12H63.54v10.22H50.06v2.89c0,18.28,0,36.56,0,54.84,0,2-.53,2.67-2.51,2.56-2.52-.13-5.06,0-7.78,0-.05-.75-.15-1.4-.15-2q0-39.28,0-78.58c0-9,6-15.37,12.73-16.7C55.94,321.51,59.75,322.09,63.67,322.09Z" transform="translate(-39.64 -321.86)"/><path class="cls-3" d="M323.32,419.53V323.14h10.11v2.37q0,45.64,0,91.3c0,2.18-.61,2.92-2.78,2.76C328.32,419.4,325.93,419.53,323.32,419.53Z" transform="translate(-39.64 -321.86)"/><path class="cls-1" d="M349.3,419.53c0-.86-.1-1.58-.1-2.31,0-16.86.09-33.73-.05-50.59-.07-9.49,6.65-15.72,12.4-17.08a38,38,0,0,1,3.9-.49v10.13c-4.9,1-6,4.41-5.92,9.06.17,16.27,0,32.53.11,48.8,0,2-.62,2.62-2.55,2.52C354.56,419.43,352,419.53,349.3,419.53Z" transform="translate(-39.64 -321.86)"/><path class="cls-1" d="M296.88,419.53c0-.89-.09-1.61-.09-2.34,0-17,.06-34,0-51-.05-8.52,6.16-15.21,12.33-16.63a35,35,0,0,1,4-.46v10c-5.3,1-6.17,4.89-6.14,9.65.12,16,0,32.06.09,48.09,0,2-.51,2.83-2.63,2.68C302,419.4,299.52,419.53,296.88,419.53Z" transform="translate(-39.64 -321.86)"/><path class="cls-4" d="M308.8,338a6.84,6.84,0,0,1-7.31,6.7c-3.52-.08-6.89-3.86-6.66-7.24s3.59-6.78,7.1-6.61C306.84,331.11,308.89,334.68,308.8,338Z" transform="translate(-39.64 -321.86)"/><path class="cls-1" d="M361.21,337.71a6.87,6.87,0,0,1-7,7c-3.36,0-6.91-3.45-7-6.8s3.31-7.15,6.63-7.06C358.55,331,361,333.52,361.21,337.71Z" transform="translate(-39.64 -321.86)"/></svg>