<svg width="200" height="200" viewBox="0 0 200 200" fill="none" xmlns="http://www.w3.org/2000/svg">
<g clip-path="url(#clip0_6463_3)">
<path fill-rule="evenodd" clip-rule="evenodd" d="M5.55876 88.3069C8.92087 86.2416 13.1223 86.109 16.9065 86.8669C20.8393 87.7384 23.9281 90.969 24.9544 94.7679C23.0216 95.1279 21.0887 95.4832 19.1559 95.8242C18.2926 93.7921 16.6331 91.9684 14.3549 91.5563C11.7842 91.1869 8.78658 92.0679 7.41008 94.389C6.16307 96.3121 6.45084 98.6947 6.43646 100.864C6.43646 102.787 6.94485 104.881 8.52279 106.146C10.2974 107.785 13.0024 107.965 15.2374 107.287C17.1223 106.691 18.4077 105.061 19.1559 103.323C21.1271 103.578 23.0983 103.858 25.0648 104.142C24.0048 108.239 20.542 111.726 16.2446 112.365C12.7098 112.896 8.7578 112.896 5.68825 110.84C3.94245 109.755 2.47483 108.211 1.61631 106.345C0.158279 103.455 0.508399 100.125 0.53238 97.0037C0.599526 93.5174 2.59473 90.1684 5.55876 88.3069ZM29.3813 94.2942C30.0432 90.3011 33.4676 87.1795 37.4628 86.5542C40.9401 86.1563 44.8441 86.0379 47.7938 88.2169C50.5372 90.2537 51.458 93.8205 51.4964 97.0605C51.5396 102.101 51.4964 107.141 51.5108 112.185C49.6499 112.185 47.7938 112.185 45.9329 112.181C45.9425 111.295 45.952 110.409 45.9712 109.523C42.3837 113.223 36.1151 113.711 31.6978 111.228C28.4892 109.087 27.4724 104.327 29.5396 101.096C31.2374 98.7469 34.0288 97.1979 36.9401 96.9563C39.8513 96.6532 42.7866 96.7858 45.7026 96.8853C45.5204 95.2037 45.4005 93.1905 43.8082 92.1626C41.5779 90.8363 38.3789 90.9358 36.446 92.769C35.7698 93.4463 35.3429 94.3179 34.8585 95.1279C33.0312 94.8484 31.2038 94.5737 29.3813 94.2942ZM36.494 101.764C34.3261 102.465 33.8417 105.506 35.5588 106.908C37.6739 108.287 40.5084 107.955 42.6954 106.908C44.7914 105.748 45.6978 103.318 45.8225 101.054C42.7194 101.158 39.4916 100.841 36.494 101.759V101.764ZM103.242 86.6537C106.638 86.2984 110.297 86.2084 113.4 87.8332C115.487 88.8232 117.084 90.6232 118.144 92.6269C119.544 95.4737 119.4 98.7279 119.319 101.807C119.257 105.397 117.295 108.888 114.192 110.774C111.261 112.806 107.482 112.811 104.058 112.55C98.9449 112.252 94.3645 108.031 93.8609 102.967C93.6835 100.594 93.6595 98.1974 93.8753 95.829C94.4652 91.13 98.5516 87.3263 103.242 86.6537ZM103.799 92.0158C101.444 92.75 99.7602 95.0616 99.7458 97.4963C99.7122 99.699 99.4389 102.034 100.297 104.128C102.36 108.865 110.278 108.974 112.614 104.431C113.597 102.612 113.377 100.457 113.391 98.4674C113.4 96.4447 112.734 94.2847 111.089 92.9821C109.031 91.4758 106.187 91.0732 103.799 92.0158ZM159.185 86.8479C164.038 85.8295 170.091 86.559 173.127 90.8884C175.295 93.8963 175.496 97.7237 175.458 101.286C169.094 101.305 162.729 101.267 156.365 101.309C156.456 103.484 157.381 105.705 159.329 106.875C162.777 108.964 167.751 107.714 169.679 104.156C171.458 104.45 173.237 104.767 175.012 105.094C173.928 108.306 171.237 110.873 167.971 111.873C163.098 113.45 156.998 112.934 153.448 108.931C150.384 105.592 150.192 100.779 150.624 96.5253C151.113 91.9826 154.609 87.8142 159.185 86.8479ZM158.139 93.0674C157.118 93.9484 156.748 95.289 156.374 96.5205C160.767 96.5821 165.161 96.5584 169.554 96.5347C169.165 95.2511 168.767 93.8679 167.703 92.9537C165.113 90.6042 160.705 90.7511 158.139 93.0674ZM57.3429 86.9616C60.3022 86.9569 63.2614 86.9616 66.2254 86.9616C68.6235 93.2616 70.9736 99.5805 73.3717 105.881C75.7794 99.5853 78.1151 93.2616 80.5036 86.9616H89.06C89.0743 95.3647 89.06 103.773 89.0696 112.181C87.1655 112.185 85.2614 112.185 83.3573 112.185C83.3573 105.757 83.3573 99.3295 83.3573 92.9016C80.8633 99.32 78.4125 105.762 75.9329 112.185H70.0863C67.6067 105.819 65.1799 99.429 62.6811 93.0721C62.6667 99.4432 62.6763 105.809 62.6763 112.181C60.8969 112.185 59.1127 112.185 57.3333 112.185C57.3333 103.777 57.3333 95.3695 57.3333 86.9616H57.3429ZM126.269 86.9616C132.796 86.9569 139.319 86.9569 145.842 86.9616C145.851 95.3695 145.842 103.777 145.842 112.185C143.818 112.185 141.799 112.185 139.779 112.181C139.779 105.549 139.779 98.9221 139.779 92.2905H131.789C131.683 96.4021 131.674 100.514 131.429 104.621C131.233 107.013 130.691 109.779 128.48 111.172C126.216 112.484 123.472 112.143 120.964 112.181V106.889C122.345 106.79 124.067 107.126 125.084 105.961C125.923 104.739 125.962 103.195 126.038 101.774C126.158 96.8379 126.235 91.9021 126.264 86.9616H126.269ZM176.839 86.9616C184.518 86.9616 192.197 86.9569 199.875 86.9663C199.875 88.7379 199.875 90.5142 199.875 92.2858C197.036 92.2953 194.201 92.2858 191.367 92.2905V112.185H185.362C185.353 105.554 185.362 98.9221 185.357 92.2905C182.518 92.2858 179.679 92.2953 176.839 92.2905C176.839 90.5142 176.839 88.7379 176.839 86.9616Z" fill="#3579F5"/>
</g>
<defs>
<clipPath id="clip0_6463_3">
<rect width="200" height="27" fill="white" transform="translate(0 86)"/>
</clipPath>
</defs>
</svg>
