<?xml version="1.0" standalone="no"?>
<!DOCTYPE svg PUBLIC "-//W3C//DTD SVG 20010904//EN"
 "http://www.w3.org/TR/2001/REC-SVG-20010904/DTD/svg10.dtd">
<svg version="1.0" xmlns="http://www.w3.org/2000/svg"
 width="401.000000pt" height="283.000000pt" viewBox="0 0 401.000000 283.000000"
 preserveAspectRatio="xMidYMid meet">

<g transform="translate(0.000000,283.000000) scale(0.100000,-0.100000)"
fill="#000000" stroke="none">
<path d="M73 2791 c-2 -10 -18 -28 -34 -40 -16 -12 -29 -29 -29 -39 0 -9 30
-71 66 -137 92 -168 234 -453 288 -577 24 -58 77 -195 116 -304 119 -328 184
-450 303 -560 67 -63 170 -122 252 -145 30 -8 95 -14 160 -13 96 0 121 4 196
30 107 38 211 106 283 185 l55 61 35 -49 c50 -67 159 -290 194 -399 58 -176
95 -395 108 -639 4 -72 11 -136 17 -142 13 -17 52 -16 66 0 6 8 15 63 20 123
16 175 71 404 148 614 40 108 177 392 197 409 11 9 23 6 52 -15 221 -150 504
-159 731 -22 147 89 250 205 333 373 59 121 85 199 150 455 28 107 64 238 81
290 31 97 112 282 136 311 41 49 14 56 -298 70 -410 18 -609 0 -831 -75 -133
-45 -236 -107 -335 -200 -191 -180 -283 -400 -270 -646 3 -58 13 -130 22 -160
23 -75 76 -180 119 -236 l35 -46 -40 -72 c-96 -169 -173 -350 -224 -526 l-33
-115 -11 45 c-64 259 -152 462 -286 664 -30 45 -55 86 -55 91 0 5 11 36 24 69
130 326 23 793 -244 1056 -237 236 -614 329 -1323 330 -157 0 -169 -1 -174
-19z m387 -91 c310 -23 438 -40 578 -76 212 -53 327 -118 458 -257 116 -123
190 -257 235 -427 30 -109 32 -282 5 -380 -31 -112 -26 -111 -120 -17 -127
127 -291 244 -435 309 -84 39 -240 90 -252 82 -22 -13 -4 -35 64 -74 239 -142
459 -304 589 -437 l68 -68 -46 -57 c-171 -216 -456 -255 -695 -96 -129 86
-216 229 -314 518 -101 295 -195 505 -368 822 -53 98 -97 180 -97 184 0 3 12
3 28 0 15 -3 151 -15 302 -26z m3360 -227 c-51 -100 -89 -216 -144 -443 -70
-286 -103 -372 -205 -525 -61 -93 -201 -231 -281 -278 -179 -104 -365 -105
-524 -3 -83 53 -84 57 -40 118 141 198 337 398 537 547 117 88 137 107 137
130 0 31 -16 51 -41 51 -22 0 -208 -131 -317 -223 -117 -99 -265 -256 -359
-378 l-77 -100 -18 23 c-27 34 -68 115 -90 178 -87 253 46 589 309 776 182
131 393 180 823 193 135 4 264 8 287 9 l42 2 -39 -77z"/>
</g>
</svg>
