<svg width="800" height="208" version="1.1" xmlns="http://www.w3.org/2000/svg"><path fill="rgb(226,6,16)" stroke="rgb(226,6,16)" stroke-width="1" opacity="0.9647058823529412" d="M 85.5 46 L 94.5 47 Q 102.8 50.2 108 56.5 Q 128.7 78.3 131 118.5 L 127 138.5 Q 122.5 149.5 113.5 156 Q 102.8 165.3 80.5 163 Q 64.1 159.9 56 148.5 Q 44.1 134.4 47 105.5 Q 53.2 69.2 76.5 50 L 85.5 46 Z "></path><path fill="rgb(226,6,16)" stroke="rgb(226,6,16)" stroke-width="1" opacity="0.9647058823529412" d="M 161 52 L 215.5 52 L 217 53.5 L 232.5 112 L 247 56.5 L 249.5 52 L 304 52 L 304 157 L 272 157 L 272 80.5 L 271 80.5 L 251 157 L 214.5 157 L 214 154.5 L 193.5 80 L 193 157 L 161.5 157 L 161 156.5 L 161 52 Z "></path><path fill="rgb(226,6,16)" stroke="rgb(226,6,16)" stroke-width="1" opacity="0.9647058823529412" d="M 312 52 L 401.5 52 L 402 52.5 L 402 81 L 373 81 L 373 157 L 341 157 L 341 81.5 L 340.5 81 L 312 81 L 312 52 Z "></path><path fill="rgb(226,6,16)" stroke="rgb(226,6,16)" stroke-width="1" opacity="0.9647058823529412" d="M 462.5 52 L 514 52 L 514 81 L 463.5 81 Q 462 83.5 456.5 82 Q 444.5 84 439 92.5 Q 434.8 98.3 436 109.5 L 442.5 121 L 448.5 125 L 460.5 128 L 514 128 L 514 157 L 457.5 157 L 434.5 152 Q 420.6 146.4 412 135.5 L 404 118.5 L 403 113.5 L 403 95.5 Q 406.8 76.3 419.5 66 L 438.5 56 L 451.5 53 L 461.5 53 L 462.5 52 Z "></path><path fill="rgb(226,6,16)" stroke="rgb(226,6,16)" stroke-width="1" opacity="0.9647058823529412" d="M 544 52 L 586 52 L 586 66 L 559.5 66 L 559 66.5 L 559 72 L 579.5 72 L 587 76.5 Q 591.8 81.7 590 93.5 Q 588.5 100 583.5 103 L 578.5 105 L 544 105 L 544 52 Z M 559 83 L 559 93 Q 568 94 573 92 L 574 90 L 573 84 Q 568 82 559 83 Z "></path><path fill="rgb(226,6,16)" stroke="rgb(226,6,16)" stroke-width="1" opacity="0.9647058823529412" d="M 607 52 L 629.5 52 L 630 53.5 L 646 105 L 629.5 105 L 629 103.5 L 625.5 95 L 609.5 95 L 609 96.5 L 605.5 105 L 591 104.5 L 607 52 Z M 618 67 L 613 81 L 614 83 L 622 83 L 618 67 Z "></path><path fill="rgb(226,6,16)" stroke="rgb(226,6,16)" stroke-width="1" opacity="0.9647058823529412" d="M 650 52 L 666 52 L 666 71 L 682 71 L 682 52 L 698 52 L 698 104.5 L 697.5 105 L 682 105 L 682 85 L 666 85 L 666 105 L 650 105 L 650 52 Z "></path><path fill="rgb(226,6,16)" stroke="rgb(226,6,16)" stroke-width="1" opacity="0.9647058823529412" d="M 706 52 L 722 52 L 722 70.5 L 723.5 71 L 737.5 52 L 753.5 52 L 754 53.5 L 737 77.5 L 754 101.5 L 755 105 L 737.5 105 L 735 102.5 L 724 85 L 722 85.5 L 722 105 L 706 105 L 706 52 Z "></path><path fill="rgb(0,0,0)" stroke="rgb(0,0,0)" stroke-width="1" opacity="0" d="M 0 0 L 799.5 0 L 800 0.5 L 800 208 L 0.5 208 L 0 207.5 L 0 0 Z M 86 46 L 77 50 Q 53 69 47 106 Q 44 134 56 149 Q 64 160 81 163 Q 103 165 114 156 Q 122 149 127 139 L 131 119 Q 129 78 108 57 Q 103 50 95 47 L 86 46 Z M 161 52 L 161 157 L 162 157 L 193 157 L 194 80 L 214 155 L 215 157 L 251 157 L 271 81 L 272 81 L 272 157 L 304 157 L 304 52 L 250 52 L 247 57 L 233 112 L 217 54 L 216 52 L 161 52 Z M 312 52 L 312 81 L 341 81 L 341 82 L 341 157 L 373 157 L 373 81 L 402 81 L 402 53 L 402 52 L 312 52 Z M 463 52 L 462 53 L 452 53 L 439 56 L 420 66 Q 407 76 403 96 L 403 114 L 404 119 L 412 136 Q 421 146 435 152 L 458 157 L 514 157 L 514 128 L 461 128 L 449 125 L 443 121 L 436 110 Q 435 98 439 93 Q 444 84 457 82 Q 462 84 464 81 L 514 81 L 514 52 L 463 52 Z M 544 52 L 544 105 L 579 105 L 584 103 Q 588 100 590 94 Q 592 82 587 77 L 580 72 L 559 72 L 559 67 L 560 66 L 586 66 L 586 52 L 544 52 Z M 607 52 L 591 105 L 606 105 L 609 97 L 610 95 L 626 95 L 629 104 L 630 105 L 646 105 L 630 54 L 630 52 L 607 52 Z M 650 52 L 650 105 L 666 105 L 666 85 L 682 85 L 682 105 L 698 105 L 698 105 L 698 52 L 682 52 L 682 71 L 666 71 L 666 52 L 650 52 Z M 706 52 L 706 105 L 722 105 L 722 86 L 724 85 L 735 103 L 738 105 L 755 105 L 754 102 L 737 78 L 754 54 L 754 52 L 738 52 L 724 71 L 722 71 L 722 52 L 706 52 Z "></path><path fill="rgb(0,0,0)" stroke="rgb(0,0,0)" stroke-width="1" opacity="0" d="M 617.5 67 L 622 83 L 613.5 83 L 613 80.5 L 617.5 67 Z "></path><path fill="rgb(0,0,0)" stroke="rgb(0,0,0)" stroke-width="1" opacity="0" d="M 559 83 Q 568 81.9 573 84 L 574 89.5 L 573 92 Q 568 94.1 559 93 L 559 83 Z "></path></svg>