<?xml version="1.0" encoding="UTF-8"?> <svg xmlns="http://www.w3.org/2000/svg" width="558" height="217" viewBox="0 0 558 217" fill="none"><path d="M248.323 70.153C248.323 68.8756 246.62 68.4717 246.063 69.618C242.427 77.2386 234.752 84.3243 224.347 89.8814C179.781 113.671 90.9542 161.109 46.5189 184.833C28.2317 194.594 11.2437 191.438 2.26929 186.121C1.48321 185.652 0.50061 186.241 0.50061 187.159V210.02C0.50061 210.457 0.718965 210.861 1.07925 211.101C9.71519 216.844 28.3409 220.698 46.7373 210.872C90.7577 187.366 180.305 139.557 224.566 115.92C240.025 107.666 248.29 95.7333 248.323 84.1932C248.323 81.2455 248.323 75.2079 248.323 70.1421V70.153Z" fill="#1D1D1B"></path><path d="M5.44664 166.502C12.2047 172.802 23.712 175.935 33.1341 174.45C34.7608 174.177 36.3657 173.806 37.8287 173.271C42.7198 171.481 46.552 167.856 46.552 164.865V133.061C46.552 135.649 48.5827 138.891 51.5414 141.653C58.2995 147.953 69.8068 151.086 79.2288 149.602C80.8556 149.329 82.4605 148.957 83.9234 148.422C88.8146 146.632 92.6467 143.007 92.6467 140.016V108.398C92.6467 110.985 94.6774 114.228 97.6362 116.99C104.394 123.29 115.902 126.423 125.324 124.938C126.95 124.665 128.555 124.294 130.018 123.759C134.909 121.969 138.742 118.344 138.742 115.353V55.3158C138.742 54.1258 137.224 53.6345 136.569 54.6171C135.204 56.6478 133.119 58.471 130.029 59.5956C128.566 60.1305 126.972 60.5345 125.334 60.7747C115.912 62.2595 104.372 59.1261 97.6471 52.8266C96.4898 51.7566 95.5727 50.5557 94.8521 49.3438C94.2298 48.2957 92.6577 48.7433 92.6577 49.9552V73.0026C92.6577 77.0312 90.1247 81.9879 83.9344 84.2479C82.4714 84.7828 80.8774 85.1868 79.2397 85.427C69.8177 86.9118 58.2776 83.7784 51.5523 77.4789C50.395 76.4089 49.4779 75.2189 48.7683 74.0179C48.146 72.9698 46.5629 73.4174 46.5629 74.6402V97.8623C46.5629 101.891 44.03 106.848 37.8396 109.108C36.3766 109.643 34.7826 110.047 33.145 110.287C23.723 111.772 12.1829 108.638 5.45755 102.339C4.31119 101.28 3.3941 100.09 2.68444 98.8995C2.06213 97.8514 0.46814 98.2881 0.46814 99.5218V157.921C0.46814 160.508 2.49884 163.751 5.45755 166.513L5.44664 166.502Z" fill="#1D1D1B"></path><path d="M154.289 84.9465C169.29 87.9598 183.319 88.1781 194.138 86.4968C203.451 85.0447 210.373 82.1843 213.474 78.4067C215.133 76.3869 215.668 73.8213 215.668 71.1246V1.31645C215.668 0.312021 214.413 -0.102854 213.823 0.70506C213.714 0.857909 213.594 1.01076 213.474 1.16361C210.384 4.9084 203.462 7.8016 194.138 9.25366C183.428 10.9241 169.552 10.7166 154.703 7.79068C153.972 7.64875 153.306 8.21648 153.306 8.9698V83.7346C153.306 84.3241 153.721 84.8373 154.289 84.9574V84.9465Z" fill="#1D1D1B"></path><path d="M277.364 115.353V67.5547H284.974L285.443 71.4633C286.71 69.9894 288.249 68.8649 290.018 68.0569C291.786 67.26 293.719 66.8232 295.859 66.8232C298.195 66.8232 300.368 67.2599 302.366 68.1552C304.364 69.0505 306.067 70.2623 307.541 71.7908C309.004 73.3302 310.139 75.1644 310.947 77.2606C311.777 79.3677 312.181 81.6277 312.181 84.1388C312.181 86.6499 311.777 88.9099 310.947 91.017C310.117 93.1241 308.982 94.9583 307.541 96.4868C306.078 98.0262 304.375 99.2599 302.366 100.122C300.368 100.996 298.195 101.454 295.859 101.454C293.828 101.454 291.95 101.083 290.258 100.319C288.555 99.5547 287.059 98.5175 285.793 97.2183V115.374H277.386V115.342L277.364 115.353ZM294.581 93.7246C297.213 93.7246 299.352 92.8512 300.99 91.1262C302.595 89.3902 303.425 87.0538 303.425 84.117C303.425 81.1801 302.628 78.9419 300.99 77.1733C299.385 75.4373 297.256 74.5749 294.581 74.5749C291.907 74.5749 289.81 75.4483 288.173 77.1733C286.568 78.9092 285.738 81.2456 285.738 84.117C285.738 86.9883 286.535 89.3575 288.173 91.1262C289.778 92.8621 291.907 93.7246 294.581 93.7246Z" fill="#1D1D1B"></path><path d="M334.519 66.7905C337.892 66.7905 340.895 67.5548 343.591 69.0614C346.299 70.5681 348.395 72.6315 349.935 75.2736C351.474 77.9157 352.238 80.8526 352.238 84.117C352.238 87.3814 351.474 90.362 349.935 92.9931C348.395 95.6352 346.299 97.6987 343.591 99.2053C340.884 100.679 337.849 101.443 334.519 101.443C331.189 101.443 328.143 100.712 325.446 99.2053C322.738 97.7314 320.642 95.668 319.103 92.9931C317.563 90.351 316.799 87.3814 316.799 84.117C316.799 80.8526 317.563 77.9048 319.103 75.2736C320.642 72.6315 322.738 70.5681 325.446 69.0614C328.154 67.5548 331.156 66.7905 334.519 66.7905ZM334.519 74.5312C332.75 74.5312 331.178 74.9352 329.846 75.7322C328.514 76.5292 327.444 77.6319 326.712 79.073C325.948 80.5032 325.577 82.1736 325.577 84.0843C325.577 85.9949 325.948 87.6544 326.712 89.1283C327.444 90.6021 328.514 91.6939 329.846 92.5018C331.178 93.2988 332.75 93.7028 334.519 93.7028C336.287 93.7028 337.859 93.2988 339.191 92.5018C340.523 91.7048 341.593 90.5694 342.292 89.1283C343.024 87.6544 343.395 85.9949 343.395 84.0843C343.395 82.1736 343.024 80.5141 342.292 79.073C341.561 77.6428 340.523 76.5401 339.191 75.7322C337.859 74.9352 336.287 74.5312 334.519 74.5312Z" fill="#1D1D1B"></path><path d="M359.378 51.0361H367.785V78.3414H371.421L380.559 67.5219H390.636L377.655 82.3701L390.767 100.723H380.963L370.886 86.3987H367.785V100.723H359.378V50.9924V51.0252V51.0361Z" fill="#1D1D1B"></path><path d="M395.942 100.734V51.0034H404.348V100.734H395.942Z" fill="#1D1D1B"></path><path d="M429.208 66.7905C432.582 66.7905 435.584 67.5548 438.281 69.0614C440.989 70.5681 443.085 72.6315 444.624 75.2736C446.164 77.9157 446.928 80.8526 446.928 84.117C446.928 87.3814 446.164 90.362 444.624 92.9931C443.085 95.6352 440.989 97.6987 438.281 99.2053C435.574 100.679 432.538 101.443 429.208 101.443C425.879 101.443 422.833 100.712 420.136 99.2053C417.428 97.7314 415.332 95.668 413.793 92.9931C412.253 90.351 411.489 87.3814 411.489 84.117C411.489 80.8526 412.253 77.9048 413.793 75.2736C415.332 72.6315 417.428 70.5681 420.136 69.0614C422.843 67.5548 425.846 66.7905 429.208 66.7905ZM429.208 74.5312C427.44 74.5312 425.868 74.9352 424.536 75.7322C423.204 76.5292 422.134 77.6319 421.402 79.073C420.638 80.5032 420.267 82.1736 420.267 84.0843C420.267 85.9949 420.638 87.6544 421.402 89.1283C422.134 90.6021 423.204 91.6939 424.536 92.5018C425.868 93.2988 427.44 93.7028 429.208 93.7028C430.977 93.7028 432.549 93.2988 433.881 92.5018C435.213 91.7048 436.283 90.5694 436.982 89.1283C437.713 87.6544 438.085 85.9949 438.085 84.0843C438.085 82.1736 437.713 80.5141 436.982 79.073C436.25 77.6428 435.213 76.5401 433.881 75.7322C432.549 74.9352 430.977 74.5312 429.208 74.5312Z" fill="#1D1D1B"></path><path d="M454.057 100.734V67.522H461.666L462.136 70.8301C463.402 69.4981 464.909 68.4937 466.569 67.8277C468.239 67.129 470.008 66.7905 471.875 66.7905C473.741 66.7905 475.379 67.0853 476.984 67.6858C478.589 68.2863 479.954 69.1924 481.122 70.3606C482.29 71.5616 483.218 73.0027 483.895 74.7277C484.594 76.4637 484.932 78.4289 484.932 80.6998V100.723H476.525V82.0317C476.525 79.6298 475.925 77.8284 474.691 76.5292C473.49 75.2627 471.853 74.5967 469.822 74.5967C467.791 74.5967 466.055 75.1972 464.614 76.3982C463.184 77.5991 462.442 79.466 462.442 82.0426V100.734H454.035H454.068H454.057Z" fill="#1D1D1B"></path><path d="M493.896 51.0361H502.303V78.3414H505.938L515.076 67.5219H525.154L512.172 82.3701L525.285 100.723H515.48L505.403 86.3987H502.303V100.723H493.896V50.9924V51.0252V51.0361Z" fill="#1D1D1B"></path><path d="M527.632 77.468C528.462 74.16 530.198 71.5615 532.84 69.6619C535.471 67.7622 538.845 66.8232 542.95 66.8232C547.492 66.8232 551.062 67.9914 553.66 70.3606C556.226 72.7297 557.525 76.1688 557.525 80.7434V100.767H550.09L549.489 96.1265C548.256 97.7969 546.716 99.0961 544.882 100.035C543.048 100.974 540.941 101.433 538.604 101.433C537.109 101.433 535.7 101.203 534.401 100.767C533.102 100.33 531.966 99.6966 530.995 98.8341C530.023 98.0043 529.259 96.9672 528.691 95.7662C528.123 94.5653 527.861 93.1678 527.861 91.6284C527.861 88.495 528.997 86.0931 531.235 84.4227C533.506 82.7522 536.639 81.4858 540.646 80.5469L549.118 78.6144C548.485 75.481 546.378 73.9089 542.742 73.9089C540.843 73.9089 539.27 74.3456 538.07 75.1753C536.869 76.0051 536.039 77.2825 535.602 78.942L527.599 77.468H527.632ZM536.443 90.9842C536.443 92.1197 536.814 93.0259 537.513 93.5827C538.211 94.1831 539.183 94.4888 540.417 94.4888C541.552 94.4888 542.688 94.2923 543.758 93.9211C544.828 93.5499 545.788 92.9822 546.629 92.2179C547.459 91.4537 548.125 90.5475 548.627 89.4448C549.129 88.3421 549.358 87.0429 549.358 85.6018V84.8703L541.214 86.8682C539.674 87.2394 538.473 87.698 537.676 88.3421C536.847 88.9754 536.443 89.8488 536.443 90.9842Z" fill="#1D1D1B"></path><path d="M277.364 172.529V124.731H284.974L285.443 128.64C286.71 127.166 288.249 126.041 290.018 125.233C291.786 124.436 293.719 124 295.859 124C298.195 124 300.368 124.436 302.366 125.331C304.364 126.205 306.067 127.439 307.541 128.967C309.004 130.506 310.139 132.341 310.947 134.437C311.777 136.544 312.181 138.804 312.181 141.315C312.181 143.826 311.777 146.086 310.947 148.193C310.117 150.3 308.982 152.135 307.541 153.663C306.078 155.202 304.375 156.436 302.366 157.299C300.368 158.172 298.195 158.631 295.859 158.631C293.828 158.631 291.95 158.259 290.258 157.495C288.555 156.731 287.059 155.694 285.793 154.395V172.551H277.386V172.518L277.364 172.529ZM294.581 150.901C297.213 150.901 299.352 150.027 300.99 148.302C302.595 146.567 303.425 144.23 303.425 141.293C303.425 138.356 302.628 136.118 300.99 134.35C299.385 132.614 297.256 131.751 294.581 131.751C291.907 131.751 289.81 132.614 288.173 134.35C286.568 136.085 285.738 138.422 285.738 141.293C285.738 144.165 286.535 146.534 288.173 148.302C289.778 150.038 291.907 150.901 294.581 150.901Z" fill="#1D1D1B"></path><path d="M319.332 157.943V108.212H327.738V157.943H319.332Z" fill="#1D1D1B"></path><path d="M335.119 134.677C335.949 131.369 337.685 128.771 340.327 126.871C342.958 124.971 346.332 124.032 350.437 124.032C354.979 124.032 358.549 125.2 361.147 127.57C363.713 129.939 365.012 133.411 365.012 137.952V157.976H357.577L356.977 153.335C355.743 155.006 354.204 156.305 352.369 157.244C350.535 158.183 348.428 158.642 346.092 158.642C344.596 158.642 343.188 158.412 341.888 157.976C340.589 157.539 339.454 156.906 338.482 156.043C337.51 155.213 336.746 154.176 336.178 152.975C335.611 151.774 335.349 150.377 335.349 148.837C335.349 145.704 336.484 143.302 338.722 141.632C340.993 139.961 344.126 138.695 348.133 137.756L356.605 135.823C355.972 132.69 353.865 131.118 350.229 131.118C348.33 131.118 346.758 131.555 345.557 132.384C344.356 133.214 343.526 134.491 343.089 136.151L335.087 134.677H335.119ZM343.93 148.193C343.93 149.329 344.301 150.235 345 150.792C345.699 151.392 346.67 151.698 347.904 151.698C349.039 151.698 350.175 151.501 351.245 151.13C352.315 150.759 353.276 150.191 354.116 149.427C354.946 148.663 355.612 147.757 356.114 146.654C356.616 145.551 356.846 144.252 356.846 142.811V142.079L348.701 144.077C347.162 144.448 345.961 144.907 345.164 145.551C344.334 146.184 343.93 147.058 343.93 148.193Z" fill="#1D1D1B"></path><path d="M371.551 141.391C371.551 138.116 372.315 135.147 373.822 132.515C375.329 129.873 377.392 127.777 380.056 126.27C382.687 124.764 385.657 124 388.932 124C392.939 124 396.367 125.069 399.173 127.242C401.979 129.415 403.78 132.286 404.577 135.856L396.105 137.396C395.668 135.627 394.806 134.262 393.572 133.258C392.339 132.253 390.766 131.751 388.899 131.751C387.262 131.751 385.799 132.155 384.5 132.919C383.2 133.684 382.163 134.819 381.464 136.26C380.733 137.734 380.362 139.426 380.362 141.37C380.362 143.313 380.733 145.005 381.432 146.446C382.13 147.877 383.135 148.979 384.369 149.755C385.635 150.519 387.109 150.923 388.768 150.923C390.799 150.923 392.47 150.42 393.802 149.383C395.134 148.379 396.007 146.981 396.433 145.213L404.708 146.61C404.304 148.881 403.376 150.912 401.935 152.757C400.472 154.591 398.594 156.032 396.334 157.058C394.064 158.096 391.563 158.631 388.823 158.631C385.559 158.631 382.622 157.899 379.98 156.392C377.348 154.919 375.307 152.855 373.811 150.213C372.348 147.571 371.573 144.634 371.573 141.37L371.54 141.402L371.551 141.391Z" fill="#1D1D1B"></path><path d="M408.486 141.523C408.486 139.022 408.923 136.686 409.753 134.513C410.582 132.373 411.783 130.506 413.29 128.967C414.829 127.428 416.631 126.194 418.727 125.331C420.834 124.458 423.127 124 425.671 124C428.214 124 430.343 124.403 432.374 125.168C434.405 125.932 436.141 127.035 437.615 128.476C439.078 129.906 440.18 131.609 440.988 133.585C441.785 135.55 442.189 137.723 442.189 140.125C442.189 141.359 442.058 142.625 441.785 143.892H417.133C417.537 146.392 418.498 148.259 420.004 149.503C421.544 150.704 423.542 151.338 426.075 151.338C428.214 151.338 429.907 150.901 431.217 150.071C432.516 149.241 433.455 148.073 434.023 146.632L441.829 148.237C440.857 151.545 438.99 154.111 436.228 155.912C433.455 157.714 430.092 158.62 426.053 158.62C423.345 158.62 420.91 158.183 418.749 157.353C416.576 156.523 414.742 155.312 413.213 153.816C411.674 152.277 410.506 150.475 409.709 148.379C408.879 146.272 408.475 144.001 408.475 141.501L408.508 141.533L408.486 141.523ZM433.346 137.483C432.975 135.409 432.145 133.815 430.846 132.679C429.514 131.544 427.811 130.976 425.671 130.976C423.673 130.976 421.97 131.511 420.496 132.614C419.022 133.684 417.995 135.321 417.395 137.483H433.379H433.346Z" fill="#1D1D1B"></path></svg> 