<?xml version="1.0" standalone="no"?>
<!DOCTYPE svg PUBLIC "-//W3C//DTD SVG 20010904//EN"
 "http://www.w3.org/TR/2001/REC-SVG-20010904/DTD/svg10.dtd">
<svg version="1.0" xmlns="http://www.w3.org/2000/svg"
 width="512.000000pt" height="512.000000pt" viewBox="0 0 512.000000 512.000000"
 preserveAspectRatio="xMidYMid meet">

<g transform="translate(0.000000,512.000000) scale(0.100000,-0.100000)"
fill="#000000" stroke="none">
<path d="M2420 4905 c-30 -8 -91 -32 -136 -55 -95 -46 -219 -156 -289 -254
-40 -57 -600 -999 -610 -1028 -3 -8 55 -48 162 -111 91 -53 167 -96 168 -95 1
2 135 228 296 502 311 529 358 595 454 641 53 26 137 26 190 0 97 -47 141
-109 483 -688 177 -300 322 -548 322 -550 0 -3 -70 -46 -155 -97 l-156 -93
488 -292 488 -293 3 581 c1 319 0 582 -2 584 -2 2 -76 -40 -165 -93 -89 -53
-163 -95 -165 -93 -1 2 -139 236 -306 519 -167 283 -326 548 -353 588 -74 108
-200 223 -300 272 -45 22 -109 47 -142 55 -74 18 -201 17 -275 0z"/>
<path d="M881 2866 c-260 -156 -478 -289 -483 -294 -6 -6 39 -39 129 -92 76
-46 142 -86 146 -90 4 -4 -117 -218 -269 -476 -378 -640 -399 -687 -398 -904
2 -129 21 -199 85 -306 72 -120 241 -236 404 -278 109 -29 335 -37 910 -34
l560 3 3 198 2 197 -652 0 c-708 0 -734 2 -825 55 -107 63 -128 185 -58 340
17 39 565 976 581 994 2 2 79 -41 171 -97 l168 -100 3 295 c1 162 1 425 0 584
l-3 289 -474 -284z"/>
<path d="M4340 2154 c-85 -52 -156 -98 -158 -104 -2 -5 111 -199 250 -432 158
-263 261 -446 273 -483 41 -128 18 -223 -68 -282 -89 -60 -124 -63 -736 -63
l-551 0 0 196 c0 108 -3 194 -8 192 -25 -11 -972 -584 -972 -588 0 -3 219
-137 488 -298 l487 -292 3 195 2 195 483 0 c678 1 765 9 942 95 336 162 436
527 248 900 -47 93 -513 865 -521 864 -4 0 -77 -43 -162 -95z"/>
</g>
</svg>
