<?xml version="1.0" encoding="UTF-8"?>
<svg width="402px" height="160px" viewBox="0 0 402 160" version="1.1" xmlns="http://www.w3.org/2000/svg" xmlns:xlink="http://www.w3.org/1999/xlink">
    <!-- Generator: Sketch 40.3 (33839) - http://www.bohemiancoding.com/sketch -->
    <title>Логотип_новый_Реми</title>
    <desc>Created with Sketch.</desc>
    <defs></defs>
    <g id="Page-1" stroke="none" stroke-width="1" fill="none" fill-rule="evenodd">
        <g id="Логотип_новый_Реми" transform="translate(0.000000, -1.000000)">
            <path d="M35.3671,88.4177 L23.7471,88.4177 L23.7471,56.1457 L35.8021,56.1457 C46.6591,56.1457 55.8851,61.3237 55.8851,72.0497 C55.8851,83.8797 47.2681,88.4177 35.3671,88.4177 L35.3671,88.4177 Z M36.8591,34.0407 L1.6931,34.0407 L1.6931,134.5687 L23.7491,134.5687 L23.7471,110.3237 L37.4491,110.3237 C91.3291,110.3237 91.3221,34.0407 36.8591,34.0407 L36.8591,34.0407 Z" id="Fill-1" fill="#84BF41"></path>
            <polygon id="Fill-3" fill="#84BF41" points="307.5696 134.7297 285.4006 134.7297 275.3026 72.5807 255.7116 134.8507 232.6066 134.8907 213.1116 72.8127 202.1756 134.7297 180.0576 134.7297 197.4116 34.5227 222.3256 34.3867 244.6656 101.6457 266.5856 33.9187 290.3496 34.0127"></polygon>
            <polygon id="Fill-5" fill="#84BF41" points="401.5258 134.3989 380.3088 134.3989 380.3088 72.5569 339.9948 134.3989 321.8268 134.3989 321.8268 34.3419 343.5758 34.3419 343.5758 95.6269 383.7568 34.3419 401.5258 34.3419"></polygon>
            <path d="M157.8764,72.3458 C154.8834,60.2278 142.6274,53.9988 130.1754,53.9988 C117.8414,53.9988 106.1994,60.2278 102.9664,72.3458 L157.8764,72.3458 Z M129.9844,33.7008 C141.1194,33.7008 150.7594,36.7308 158.9004,42.7898 C167.0424,48.8488 172.7644,57.2228 176.1434,67.8758 C178.0294,73.8228 179.3534,81.7398 179.3534,89.6168 L101.4224,90.1858 C103.6984,103.6378 116.1424,114.6088 130.0314,114.6088 C139.8514,114.6088 150.9524,109.9048 153.9474,102.8758 L171.1584,112.7948 C167.7724,117.7138 163.6254,121.9218 158.7204,125.4108 C150.4594,131.2878 141.0604,134.2288 130.5234,134.2288 C116.0344,134.2288 104.2094,129.5308 95.0494,120.1398 C85.8894,110.7488 81.3094,98.7188 81.3094,84.0558 C81.3094,70.3598 86.0374,58.5448 95.4974,48.6078 C104.9584,38.6688 116.4524,33.7008 129.9844,33.7008 L129.9844,33.7008 Z" id="Fill-7" fill="#DD3E3D"></path>
            <path d="M154.2663,21.04 C155.4723,22.562 161.1743,14.343 166.2323,19.607 C170.2683,23.806 175.4393,22.518 176.5283,22.086 C172.3513,28.048 169.6293,32.388 162.9603,32.434 C159.6853,32.458 153.8673,28.566 153.9663,24.087 C153.9843,23.292 153.3713,22.908 152.7623,23.114 C150.0013,25.795 147.1153,29.457 144.3543,32.138 C151.4573,20.293 161.3313,5.043 162.0893,0.979 C163.7513,2.881 165.7803,4.473 168.1133,5.805 C163.2663,10.414 158.8193,13.728 154.2663,21.04" id="Fill-9" fill="#84BF41"></path>
            <polygon id="Fill-11" fill="#DD3E3D" points="0.8423 152.7005 6.3523 152.7005 6.3523 154.0655 2.4843 154.0655 2.4843 160.8345 0.8423 160.8345"></polygon>
            <polygon id="Fill-13" fill="#DD3E3D" points="9.7236 152.7005 11.2606 152.7005 11.2606 158.1165 14.5566 152.7005 16.1936 152.7005 16.1936 160.8345 14.6566 160.8345 14.6566 155.5245 11.3656 160.8345 9.7236 160.8345"></polygon>
            <polygon id="Fill-15" fill="#DD3E3D" points="20.3911 152.7005 26.8611 152.7005 26.8611 160.8345 25.2181 160.8345 25.2181 154.0655 22.0331 154.0655 22.0331 160.8345 20.3911 160.8345"></polygon>
            <polygon id="Fill-17" fill="#DD3E3D" points="31.0366 160.8348 31.0366 152.7008 37.0686 152.7008 37.0686 154.0768 32.6796 154.0768 32.6796 155.8798 36.7636 155.8798 36.7636 157.2508 32.6796 157.2508 32.6796 159.4638 37.2236 159.4638 37.2236 160.8348"></polygon>
            <path d="M42.7588,154.0765 L42.7588,156.3845 L43.6578,156.3845 C44.3048,156.3845 44.7378,156.3425 44.9558,156.2575 C45.1748,156.1725 45.3448,156.0385 45.4688,155.8575 C45.5928,155.6765 45.6548,155.4655 45.6548,155.2245 C45.6548,154.9295 45.5688,154.6845 45.3948,154.4925 C45.2208,154.3005 45.0008,154.1805 44.7338,154.1315 C44.5378,154.0955 44.1438,154.0765 43.5518,154.0765 L42.7588,154.0765 Z M41.1158,160.8345 L41.1158,152.7005 L43.7518,152.7005 C44.7508,152.7005 45.4018,152.7415 45.7048,152.8225 C46.1718,152.9445 46.5618,153.2095 46.8758,153.6185 C47.1908,154.0275 47.3478,154.5555 47.3478,155.2025 C47.3478,155.7015 47.2568,156.1215 47.0758,156.4625 C46.8948,156.8025 46.6638,157.0705 46.3848,157.2645 C46.1058,157.4585 45.8218,157.5865 45.5328,157.6495 C45.1408,157.7275 44.5728,157.7665 43.8298,157.7665 L42.7588,157.7665 L42.7588,160.8345 L41.1158,160.8345 Z" id="Fill-19" fill="#DD3E3D"></path>
            <polygon id="Fill-21" fill="#DD3E3D" points="51.0239 160.8348 51.0239 152.7008 53.4819 152.7008 54.9579 158.2488 56.4169 152.7008 58.8809 152.7008 58.8809 160.8348 57.3549 160.8348 57.3549 154.4318 55.7399 160.8348 54.1589 160.8348 52.5499 154.4318 52.5499 160.8348"></polygon>
            <path d="M67.3237,157.6165 L66.2027,154.5975 L65.1037,157.6165 L67.3237,157.6165 Z M70.3477,160.8345 L68.5607,160.8345 L67.8507,158.9875 L64.5987,158.9875 L63.9277,160.8345 L62.1857,160.8345 L65.3537,152.7005 L67.0907,152.7005 L70.3477,160.8345 Z" id="Fill-23" fill="#DD3E3D"></path>
            <path d="M75.3613,154.0765 L75.3613,156.3845 L76.2603,156.3845 C76.9073,156.3845 77.3403,156.3425 77.5583,156.2575 C77.7773,156.1725 77.9473,156.0385 78.0713,155.8575 C78.1953,155.6765 78.2573,155.4655 78.2573,155.2245 C78.2573,154.9295 78.1713,154.6845 77.9973,154.4925 C77.8233,154.3005 77.6033,154.1805 77.3363,154.1315 C77.1403,154.0955 76.7463,154.0765 76.1543,154.0765 L75.3613,154.0765 Z M73.7183,160.8345 L73.7183,152.7005 L76.3543,152.7005 C77.3533,152.7005 78.0043,152.7415 78.3073,152.8225 C78.7743,152.9445 79.1643,153.2095 79.4783,153.6185 C79.7933,154.0275 79.9503,154.5555 79.9503,155.2025 C79.9503,155.7015 79.8593,156.1215 79.6783,156.4625 C79.4973,156.8025 79.2663,157.0705 78.9873,157.2645 C78.7083,157.4585 78.4243,157.5865 78.1353,157.6495 C77.7433,157.7275 77.1753,157.7665 76.4323,157.7665 L75.3613,157.7665 L75.3613,160.8345 L73.7183,160.8345 Z" id="Fill-25" fill="#DD3E3D"></path>
            <path d="M83.8262,152.7005 L85.4692,152.7005 L85.4692,156.1625 C85.8352,156.1255 86.0822,156.0315 86.2122,155.8795 C86.3422,155.7285 86.5412,155.3065 86.8112,154.6145 C87.1522,153.7345 87.4942,153.1865 87.8382,152.9715 C88.1782,152.7575 88.7272,152.6505 89.4862,152.6505 C89.5232,152.6505 89.6022,152.6485 89.7242,152.6445 L89.7242,153.8605 L89.4922,153.8545 C89.1552,153.8545 88.9092,153.8965 88.7532,153.9795 C88.5982,154.0625 88.4722,154.1895 88.3762,154.3595 C88.2802,154.5295 88.1382,154.8795 87.9492,155.4085 C87.8492,155.6895 87.7412,155.9245 87.6242,156.1125 C87.5082,156.3015 87.3022,156.4785 87.0062,156.6455 C87.3722,156.7485 87.6742,156.9585 87.9132,157.2725 C88.1512,157.5865 88.4132,158.0315 88.6982,158.6045 L89.8072,160.8345 L87.8772,160.8345 L86.9062,158.7315 C86.8912,158.7025 86.8592,158.6445 86.8112,158.5595 C86.7932,158.5305 86.7242,158.4025 86.6062,158.1775 C86.3952,157.7775 86.2222,157.5275 86.0872,157.4285 C85.9522,157.3275 85.7462,157.2765 85.4692,157.2725 L85.4692,160.8345 L83.8262,160.8345 L83.8262,152.7005 Z" id="Fill-27" fill="#DD3E3D"></path>
            <polygon id="Fill-29" fill="#DD3E3D" points="93.2344 160.8348 93.2344 152.7008 99.2664 152.7008 99.2664 154.0768 94.8774 154.0768 94.8774 155.8798 98.9614 155.8798 98.9614 157.2508 94.8774 157.2508 94.8774 159.4638 99.4214 159.4638 99.4214 160.8348"></polygon>
            <polygon id="Fill-31" fill="#DD3E3D" points="105.145 160.8348 105.145 154.0768 102.731 154.0768 102.731 152.7008 109.196 152.7008 109.196 154.0768 106.788 154.0768 106.788 160.8348"></polygon>
            <path d="M120.535,160.834 L122.178,160.834 L122.178,152.7 L120.535,152.7 L120.535,160.834 Z M114.443,159.47 L116.046,159.47 C116.557,159.47 116.913,159.445 117.115,159.395 C117.316,159.345 117.496,159.231 117.653,159.054 C117.81,158.876 117.889,158.659 117.889,158.405 C117.889,158.042 117.76,157.77 117.503,157.589 C117.246,157.408 116.782,157.317 116.113,157.317 L114.443,157.317 L114.443,159.47 Z M112.8,152.7 L114.443,152.7 L114.443,155.952 L116.64,155.952 C117.217,155.952 117.714,156.031 118.13,156.188 C118.546,156.345 118.893,156.626 119.17,157.031 C119.448,157.436 119.586,157.901 119.586,158.427 C119.586,158.978 119.442,159.452 119.154,159.85 C118.865,160.247 118.544,160.511 118.191,160.64 C117.838,160.77 117.321,160.835 116.64,160.835 L112.8,160.835 L112.8,152.7 Z" id="Fill-33" fill="#DD3E3D"></path>
            <path d="M154.2153,157.844 L155.8073,158.349 C155.5633,159.237 155.1573,159.896 154.5903,160.327 C154.0223,160.758 153.3013,160.973 152.4283,160.973 C151.3483,160.973 150.4603,160.604 149.7653,159.866 C149.0693,159.129 148.7213,158.119 148.7213,156.84 C148.7213,155.486 149.0713,154.434 149.7703,153.685 C150.4693,152.936 151.3883,152.562 152.5283,152.562 C153.5233,152.562 154.3313,152.856 154.9533,153.444 C155.3223,153.792 155.6003,154.291 155.7853,154.942 L154.1593,155.33 C154.0633,154.908 153.8623,154.576 153.5573,154.332 C153.2523,154.088 152.8813,153.966 152.4443,153.966 C151.8423,153.966 151.3533,154.182 150.9773,154.615 C150.6023,155.048 150.4143,155.748 150.4143,156.718 C150.4143,157.746 150.5993,158.478 150.9693,158.915 C151.3393,159.351 151.8193,159.57 152.4113,159.57 C152.8483,159.57 153.2233,159.431 153.5383,159.154 C153.8523,158.876 154.0783,158.44 154.2153,157.844" id="Fill-35" fill="#DD3E3D"></path>
            <path d="M158.8901,152.7005 L160.7261,152.7005 L162.6241,156.9225 L164.2441,152.7005 L165.9591,152.7005 L163.2121,158.8815 C162.9131,159.5515 162.6081,160.0605 162.2971,160.4105 C161.9861,160.7605 161.5851,160.9345 161.0931,160.9345 C160.6081,160.9345 160.2291,160.9035 159.9551,160.8405 L159.9551,159.6195 C160.1881,159.6345 160.3991,159.6415 160.5881,159.6415 C160.9691,159.6415 161.2421,159.5725 161.4071,159.4335 C161.5711,159.2955 161.7291,158.9965 161.8811,158.5375 L158.8901,152.7005 Z" id="Fill-36" fill="#DD3E3D"></path>
            <polygon id="Fill-37" fill="#DD3E3D" points="169.3081 152.7005 175.7781 152.7005 175.7781 160.8345 174.1351 160.8345 174.1351 154.0655 170.9501 154.0655 170.9501 160.8345 169.3081 160.8345"></polygon>
            <polygon id="Fill-38" fill="#DD3E3D" points="179.9536 160.8348 179.9536 152.7008 185.9856 152.7008 185.9856 154.0768 181.5966 154.0768 181.5966 155.8798 185.6806 155.8798 185.6806 157.2508 181.5966 157.2508 181.5966 159.4638 186.1406 159.4638 186.1406 160.8348"></polygon>
            <path d="M191.6758,154.0765 L191.6758,156.3845 L192.5748,156.3845 C193.2218,156.3845 193.6548,156.3425 193.8728,156.2575 C194.0918,156.1725 194.2618,156.0385 194.3858,155.8575 C194.5098,155.6765 194.5718,155.4655 194.5718,155.2245 C194.5718,154.9295 194.4858,154.6845 194.3118,154.4925 C194.1378,154.3005 193.9178,154.1805 193.6508,154.1315 C193.4548,154.0955 193.0608,154.0765 192.4688,154.0765 L191.6758,154.0765 Z M190.0328,160.8345 L190.0328,152.7005 L192.6688,152.7005 C193.6678,152.7005 194.3188,152.7415 194.6218,152.8225 C195.0888,152.9445 195.4788,153.2095 195.7928,153.6185 C196.1078,154.0275 196.2648,154.5555 196.2648,155.2025 C196.2648,155.7015 196.1738,156.1215 195.9928,156.4625 C195.8118,156.8025 195.5808,157.0705 195.3018,157.2645 C195.0228,157.4585 194.7388,157.5865 194.4498,157.6495 C194.0578,157.7275 193.4898,157.7665 192.7468,157.7665 L191.6758,157.7665 L191.6758,160.8345 L190.0328,160.8345 Z" id="Fill-39" fill="#DD3E3D"></path>
            <polygon id="Fill-40" fill="#DD3E3D" points="199.9409 160.8348 199.9409 152.7008 202.3989 152.7008 203.8749 158.2488 205.3339 152.7008 207.7979 152.7008 207.7979 160.8348 206.2719 160.8348 206.2719 154.4318 204.6569 160.8348 203.0749 160.8348 201.4669 154.4318 201.4669 160.8348"></polygon>
            <path d="M216.2402,157.6165 L215.1192,154.5975 L214.0202,157.6165 L216.2402,157.6165 Z M219.2642,160.8345 L217.4772,160.8345 L216.7672,158.9875 L213.5152,158.9875 L212.8442,160.8345 L211.1022,160.8345 L214.2702,152.7005 L216.0082,152.7005 L219.2642,160.8345 Z" id="Fill-41" fill="#DD3E3D"></path>
            <path d="M224.2783,154.0765 L224.2783,156.3845 L225.1773,156.3845 C225.8253,156.3845 226.2573,156.3425 226.4753,156.2575 C226.6943,156.1725 226.8653,156.0385 226.9893,155.8575 C227.1133,155.6765 227.1743,155.4655 227.1743,155.2245 C227.1743,154.9295 227.0883,154.6845 226.9143,154.4925 C226.7403,154.3005 226.5203,154.1805 226.2543,154.1315 C226.0573,154.0955 225.6643,154.0765 225.0723,154.0765 L224.2783,154.0765 Z M222.6363,160.8345 L222.6363,152.7005 L225.2723,152.7005 C226.2703,152.7005 226.9223,152.7415 227.2253,152.8225 C227.6913,152.9445 228.0813,153.2095 228.3953,153.6185 C228.7103,154.0275 228.8673,154.5555 228.8673,155.2025 C228.8673,155.7015 228.7773,156.1215 228.5953,156.4625 C228.4143,156.8025 228.1843,157.0705 227.9053,157.2645 C227.6263,157.4585 227.3413,157.5865 227.0523,157.6495 C226.6613,157.7275 226.0923,157.7665 225.3493,157.7665 L224.2783,157.7665 L224.2783,160.8345 L222.6363,160.8345 Z" id="Fill-42" fill="#DD3E3D"></path>
            <path d="M232.7432,152.7005 L234.3862,152.7005 L234.3862,156.1625 C234.7522,156.1255 235.0002,156.0315 235.1292,155.8795 C235.2592,155.7285 235.4582,155.3065 235.7282,154.6145 C236.0682,153.7345 236.4112,153.1865 236.7552,152.9715 C237.0962,152.7575 237.6442,152.6505 238.4032,152.6505 C238.4392,152.6505 238.5192,152.6485 238.6412,152.6445 L238.6412,153.8605 L238.4082,153.8545 C238.0722,153.8545 237.8262,153.8965 237.6712,153.9795 C237.5142,154.0625 237.3892,154.1895 237.2932,154.3595 C237.1972,154.5295 237.0552,154.8795 236.8662,155.4085 C236.7652,155.6895 236.6582,155.9245 236.5412,156.1125 C236.4252,156.3015 236.2192,156.4785 235.9232,156.6455 C236.2892,156.7485 236.5912,156.9585 236.8302,157.2725 C237.0682,157.5865 237.3302,158.0315 237.6152,158.6045 L238.7242,160.8345 L236.7942,160.8345 L235.8222,158.7315 C235.8072,158.7025 235.7762,158.6445 235.7282,158.5595 C235.7102,158.5305 235.6412,158.4025 235.5232,158.1775 C235.3122,157.7775 235.1392,157.5275 235.0042,157.4285 C234.8692,157.3275 234.6632,157.2765 234.3862,157.2725 L234.3862,160.8345 L232.7432,160.8345 L232.7432,152.7005 Z" id="Fill-43" fill="#DD3E3D"></path>
            <polygon id="Fill-44" fill="#DD3E3D" points="242.1523 160.8348 242.1523 152.7008 248.1833 152.7008 248.1833 154.0768 243.7943 154.0768 243.7943 155.8798 247.8783 155.8798 247.8783 157.2508 243.7943 157.2508 243.7943 159.4638 248.3393 159.4638 248.3393 160.8348"></polygon>
            <polygon id="Fill-45" fill="#DD3E3D" points="254.0625 160.8348 254.0625 154.0768 251.6485 154.0768 251.6485 152.7008 258.1125 152.7008 258.1125 154.0768 255.7045 154.0768 255.7045 160.8348"></polygon>
            <path d="M269.452,160.834 L271.095,160.834 L271.095,152.7 L269.452,152.7 L269.452,160.834 Z M263.359,159.47 L264.963,159.47 C265.474,159.47 265.829,159.445 266.031,159.395 C266.232,159.345 266.412,159.231 266.569,159.054 C266.727,158.876 266.805,158.659 266.805,158.405 C266.805,158.042 266.677,157.77 266.419,157.589 C266.162,157.408 265.699,157.317 265.029,157.317 L263.359,157.317 L263.359,159.47 Z M261.717,152.7 L263.359,152.7 L263.359,155.952 L265.557,155.952 C266.134,155.952 266.63,156.031 267.047,156.188 C267.463,156.345 267.81,156.626 268.087,157.031 C268.364,157.436 268.503,157.901 268.503,158.427 C268.503,158.978 268.358,159.452 268.07,159.85 C267.781,160.247 267.461,160.511 267.107,160.64 C266.754,160.77 266.237,160.835 265.557,160.835 L261.717,160.835 L261.717,152.7 Z" id="Fill-46" fill="#DD3E3D"></path>
            <path d="M297.1006,152.7005 L298.9376,152.7005 L300.8346,156.9225 L302.4546,152.7005 L304.1696,152.7005 L301.4226,158.8815 C301.1226,159.5515 300.8186,160.0605 300.5076,160.4105 C300.1976,160.7605 299.7946,160.9345 299.3036,160.9345 C298.8186,160.9345 298.4396,160.9035 298.1656,160.8405 L298.1656,159.6195 C298.3996,159.6345 298.6096,159.6415 298.7986,159.6415 C299.1796,159.6415 299.4526,159.5725 299.6176,159.4335 C299.7816,159.2955 299.9396,158.9965 300.0916,158.5375 L297.1006,152.7005 Z" id="Fill-47" fill="#DD3E3D"></path>
            <polygon id="Fill-48" fill="#DD3E3D" points="307.502 160.8348 307.502 152.7008 309.145 152.7008 309.145 155.9018 312.363 155.9018 312.363 152.7008 314.006 152.7008 314.006 160.8348 312.363 160.8348 312.363 157.2778 309.145 157.2778 309.145 160.8348"></polygon>
            <polygon id="Fill-49" fill="#DD3E3D" points="318.2246 152.7005 319.7616 152.7005 319.7616 158.1165 323.0576 152.7005 324.6946 152.7005 324.6946 160.8345 323.1586 160.8345 323.1586 155.5245 319.8676 160.8345 318.2246 160.8345"></polygon>
            <path d="M330.5186,157.2894 L330.5186,159.4644 L332.0396,159.4644 C332.6306,159.4644 333.0066,159.4474 333.1646,159.4144 C333.4096,159.3704 333.6086,159.2614 333.7616,159.0894 C333.9146,158.9174 333.9926,158.6874 333.9926,158.3984 C333.9926,158.1544 333.9326,157.9474 333.8146,157.7774 C333.6966,157.6074 333.5256,157.4834 333.3016,157.4054 C333.0776,157.3284 332.5916,157.2894 331.8446,157.2894 L330.5186,157.2894 Z M330.5186,154.0544 L330.5186,155.9354 L331.5946,155.9354 C332.2356,155.9354 332.6326,155.9264 332.7886,155.9074 C333.0696,155.8744 333.2896,155.7774 333.4516,155.6164 C333.6126,155.4554 333.6926,155.2434 333.6926,154.9804 C333.6926,154.7294 333.6226,154.5254 333.4846,154.3674 C333.3456,154.2104 333.1396,154.1154 332.8666,154.0814 C332.7036,154.0634 332.2356,154.0544 331.4616,154.0544 L330.5186,154.0544 Z M328.8756,152.7004 L332.1276,152.7004 C332.7716,152.7004 333.2506,152.7274 333.5676,152.7804 C333.8836,152.8344 334.1666,152.9464 334.4166,153.1164 C334.6656,153.2864 334.8736,153.5134 335.0406,153.7964 C335.2066,154.0794 335.2906,154.3964 335.2906,154.7474 C335.2906,155.1284 335.1876,155.4784 334.9826,155.7964 C334.7776,156.1144 334.4986,156.3534 334.1476,156.5124 C334.6436,156.6564 335.0246,156.9024 335.2906,157.2504 C335.5566,157.5984 335.6906,158.0064 335.6906,158.4764 C335.6906,158.8464 335.6046,159.2064 335.4316,159.5564 C335.2596,159.9054 335.0256,160.1854 334.7276,160.3934 C334.4296,160.6024 334.0626,160.7314 333.6256,160.7794 C333.3526,160.8094 332.6916,160.8274 331.6456,160.8344 L328.8756,160.8344 L328.8756,152.7004 Z" id="Fill-50" fill="#DD3E3D"></path>
            <polygon id="Fill-51" fill="#DD3E3D" points="339.5781 160.8348 339.5781 152.7008 345.6091 152.7008 345.6091 154.0768 341.2201 154.0768 341.2201 155.8798 345.3041 155.8798 345.3041 157.2508 341.2201 157.2508 341.2201 159.4638 345.7651 159.4638 345.7651 160.8348"></polygon>
            <path d="M351.2988,154.0765 L351.2988,156.3845 L352.1978,156.3845 C352.8458,156.3845 353.2778,156.3425 353.4958,156.2575 C353.7148,156.1725 353.8858,156.0385 354.0098,155.8575 C354.1338,155.6765 354.1948,155.4655 354.1948,155.2245 C354.1948,154.9295 354.1088,154.6845 353.9348,154.4925 C353.7608,154.3005 353.5408,154.1805 353.2748,154.1315 C353.0778,154.0955 352.6848,154.0765 352.0928,154.0765 L351.2988,154.0765 Z M349.6568,160.8345 L349.6568,152.7005 L352.2928,152.7005 C353.2908,152.7005 353.9428,152.7415 354.2458,152.8225 C354.7118,152.9445 355.1018,153.2095 355.4158,153.6185 C355.7308,154.0275 355.8878,154.5555 355.8878,155.2025 C355.8878,155.7015 355.7978,156.1215 355.6158,156.4625 C355.4348,156.8025 355.2048,157.0705 354.9258,157.2645 C354.6468,157.4585 354.3618,157.5865 354.0728,157.6495 C353.6818,157.7275 353.1128,157.7665 352.3698,157.7665 L351.2988,157.7665 L351.2988,160.8345 L349.6568,160.8345 Z" id="Fill-52" fill="#DD3E3D"></path>
            <path d="M364.6582,157.844 L366.2512,158.349 C366.0072,159.237 365.6002,159.896 365.0332,160.327 C364.4652,160.758 363.7452,160.973 362.8722,160.973 C361.7922,160.973 360.9032,160.604 360.2082,159.866 C359.5122,159.129 359.1652,158.119 359.1652,156.84 C359.1652,155.486 359.5142,154.434 360.2142,153.685 C360.9132,152.936 361.8322,152.562 362.9712,152.562 C363.9672,152.562 364.7752,152.856 365.3962,153.444 C365.7662,153.792 366.0442,154.291 366.2282,154.942 L364.6022,155.33 C364.5072,154.908 364.3052,154.576 364.0012,154.332 C363.6952,154.088 363.3252,153.966 362.8882,153.966 C362.2852,153.966 361.7962,154.182 361.4212,154.615 C361.0452,155.048 360.8572,155.748 360.8572,156.718 C360.8572,157.746 361.0432,158.478 361.4122,158.915 C361.7822,159.351 362.2632,159.57 362.8552,159.57 C363.2922,159.57 363.6672,159.431 363.9812,159.154 C364.2962,158.876 364.5212,158.44 364.6582,157.844" id="Fill-53" fill="#DD3E3D"></path>
            <path d="M374.1885,157.6165 L373.0685,154.5975 L371.9695,157.6165 L374.1885,157.6165 Z M377.2125,160.8345 L375.4265,160.8345 L374.7155,158.9875 L371.4645,158.9875 L370.7925,160.8345 L369.0505,160.8345 L372.2185,152.7005 L373.9565,152.7005 L377.2125,160.8345 Z" id="Fill-54" fill="#DD3E3D"></path>
            <polygon id="Fill-55" fill="#DD3E3D" points="380.5615 160.8348 380.5615 152.7008 383.0195 152.7008 384.4955 158.2488 385.9555 152.7008 388.4175 152.7008 388.4175 160.8348 386.8925 160.8348 386.8925 154.4318 385.2785 160.8348 383.6965 160.8348 382.0865 154.4318 382.0865 160.8348"></polygon>
            <path d="M400.33,160.834 L401.973,160.834 L401.973,152.7 L400.33,152.7 L400.33,160.834 Z M394.237,159.47 L395.841,159.47 C396.352,159.47 396.707,159.445 396.909,159.395 C397.11,159.345 397.29,159.231 397.447,159.054 C397.604,158.876 397.683,158.659 397.683,158.405 C397.683,158.042 397.555,157.77 397.297,157.589 C397.04,157.408 396.577,157.317 395.907,157.317 L394.237,157.317 L394.237,159.47 Z M392.595,152.7 L394.237,152.7 L394.237,155.952 L396.435,155.952 C397.012,155.952 397.508,156.031 397.925,156.188 C398.341,156.345 398.687,156.626 398.965,157.031 C399.242,157.436 399.381,157.901 399.381,158.427 C399.381,158.978 399.236,159.452 398.948,159.85 C398.659,160.247 398.339,160.511 397.985,160.64 C397.632,160.77 397.115,160.835 396.435,160.835 L392.595,160.835 L392.595,152.7 Z" id="Fill-56" fill="#DD3E3D"></path>
            <path d="M137.6745,156.3551 C137.6745,157.1621 137.0205,157.8171 136.2125,157.8171 C135.4055,157.8171 134.7515,157.1621 134.7515,156.3551 C134.7515,155.5481 135.4055,154.8931 136.2125,154.8931 C137.0205,154.8931 137.6745,155.5481 137.6745,156.3551" id="Fill-57" fill="#DD3E3D"></path>
            <path d="M285.9299,156.3551 C285.9299,157.1621 285.2759,157.8171 284.4679,157.8171 C283.6609,157.8171 283.0069,157.1621 283.0069,156.3551 C283.0069,155.5481 283.6609,154.8931 284.4679,154.8931 C285.2759,154.8931 285.9299,155.5481 285.9299,156.3551" id="Fill-58" fill="#DD3E3D"></path>
        </g>
    </g>
</svg>