<?xml version="1.0" standalone="no"?>
<!DOCTYPE svg PUBLIC "-//W3C//DTD SVG 20010904//EN"
 "http://www.w3.org/TR/2001/REC-SVG-20010904/DTD/svg10.dtd">
<svg version="1.0" xmlns="http://www.w3.org/2000/svg"
 width="235.000000pt" height="215.000000pt" viewBox="0 0 235.000000 215.000000"
 preserveAspectRatio="xMidYMid meet">

<g transform="translate(0.000000,215.000000) scale(0.100000,-0.100000)"
fill="#000000" stroke="none">
<path d="M1040 2136 c-73 -22 -98 -34 -171 -81 -71 -46 -217 -180 -272 -249
-29 -36 -29 -39 -12 -49 67 -37 94 -114 103 -294 l7 -127 -27 -27 c-25 -24
-28 -35 -28 -94 0 -100 34 -168 91 -180 18 -4 29 -13 29 -23 0 -28 49 -123 91
-179 21 -29 39 -55 39 -58 0 -4 -10 -28 -21 -56 -35 -80 -95 -106 -372 -165
-191 -40 -257 -61 -316 -104 -86 -62 -124 -145 -160 -348 l-18 -102 1171 0
1172 0 -18 102 c-34 193 -64 266 -135 328 -57 50 -123 75 -303 115 -344 75
-383 95 -424 212 -14 39 -14 39 35 103 28 37 56 88 65 118 11 38 20 52 34 52
10 0 27 8 37 18 24 21 65 131 66 179 1 46 -31 77 -78 76 l-35 -1 35 40 c129
151 122 403 -17 554 -44 48 -125 94 -165 94 -14 0 -39 17 -63 44 -60 64 -145
106 -227 111 -41 3 -86 -1 -113 -9z m396 -465 c83 -62 119 -183 103 -345 -10
-96 -2 -113 42 -91 71 37 84 13 47 -87 l-21 -60 -35 7 c-42 8 -52 -3 -52 -61
0 -83 -113 -225 -224 -281 -68 -34 -164 -42 -234 -19 -64 21 -142 91 -194 170
-35 55 -48 87 -63 159 -5 23 -10 27 -40 27 -48 0 -68 33 -69 113 l-1 62 30 -1
c17 -1 44 -3 60 -5 l30 -4 1 75 c2 158 83 230 302 269 107 19 220 59 243 87
17 20 30 17 75 -15z m6 -991 l37 -70 -66 -177 c-36 -98 -68 -181 -72 -185 -4
-4 -26 38 -50 93 l-43 99 28 37 c34 45 36 89 5 115 -35 27 -158 26 -195 -3
-38 -30 -33 -72 15 -125 19 -20 19 -22 -23 -122 -24 -56 -45 -102 -48 -102 -3
0 -39 84 -81 187 l-76 186 28 46 c16 25 29 51 29 58 0 18 4 17 75 -18 86 -42
161 -48 251 -21 38 12 85 32 104 46 19 14 37 25 40 25 3 1 22 -31 42 -69z"/>
</g>
</svg>
