<?xml version="1.0" standalone="no"?>
<!DOCTYPE svg PUBLIC "-//W3C//DTD SVG 1.0//EN" "http://www.w3.org/TR/2001/REC-SVG-20010904/DTD/svg10.dtd">
<svg xmlns="http://www.w3.org/2000/svg" xmlns:xlink="http://www.w3.org/1999/xlink" id="body_1" width="353" height="64">

<g transform="matrix(0.3478261 0 0 0.3478261 1.1956522 -0)">
    <path d="M77.5 10.593C 76.4 10.859 72.463 11.783 68.75 12.646C 65.037 13.509 62 14.644 62 15.167C 62 15.69 61.581 15.859 61.069 15.543C 60.557 15.226 59.851 15.432 59.5 16C 59.149 16.568 58.443 16.774 57.931 16.457C 57.419 16.141 57 16.385 57 17C 57 17.615 56.55 17.84 56 17.5C 55.45 17.16 55 17.385 55 18C 55 18.615 54.588 18.864 54.085 18.553C 53.582 18.242 53.02 18.345 52.835 18.781C 52.651 19.217 50.25 20.869 47.5 22.451C 37.017 28.481 28.824 35.731 21.572 45.393L21.572 45.393L17.899 50.285L20.637 53.143C 23.79 56.434 24.943 56.718 25.14 54.25C 25.217 53.288 25.611 55.972 26.017 60.215C 26.481 65.069 27.634 69.704 29.127 72.715L29.127 72.715L31.5 77.5L89.657 77.758L147.814 78.016L149.869 73.758C 157.023 58.935 153.741 43.043 140.886 30.271C 137.691 27.097 132.134 22.889 128.536 20.919C 124.938 18.95 122.32 17.014 122.717 16.617C 123.114 16.219 122.591 16.22 121.555 16.617C 120.254 17.117 119.893 16.982 120.388 16.181C 120.856 15.425 120.566 15.229 119.552 15.618C 118.698 15.946 118 15.779 118 15.246C 118 13.031 106.366 10.803 93 10.458C 85.575 10.267 78.6 10.327 77.5 10.593M14.098 57.809C 11.867 62.182 7 78.094 7 81.015C 7 82 8.952 84.963 11.338 87.598L11.338 87.598L15.677 92.39L16.333 85.324C 16.694 81.438 18.134 74.31 19.533 69.484L19.533 69.484L22.075 60.709L19.803 58.105C 18.553 56.672 17.222 55.109 16.846 54.631C 16.47 54.153 15.233 55.583 14.098 57.809M176.583 96.417C 175.124 116.285 168.487 133.964 157.113 148.277C 150.938 156.047 139.484 165.767 132.531 169.136C 128.136 171.266 129.845 169.637 135.175 166.615C 140.339 163.688 136.922 163.585 127.265 166.378C 100.956 173.986 78.361 174.002 52.043 166.432C 37.736 162.317 37.538 163.422 51.259 170.818C 60.48 175.789 66.316 177.85 77.324 180.023C 81.65 180.877 83.008 181.536 82.605 182.586C 82.162 183.74 83.719 184 91.074 184C 113.887 184 136.218 174.75 152.583 158.523C 169.335 141.912 178.185 121.901 179.68 97.25C 180.211 88.491 180.081 87 178.788 87C 177.592 87 177.129 88.98 176.583 96.417" stroke="none" fill="#B2CBDB" fill-rule="nonzero" />
    <path d="M76.798 3.01C 45.273 8.017 18.017 29.587 6.949 58.289C 1.164 73.289 0.495 77.131 0.557 95C 0.611 110.318 0.816 112.109 3.425 120C 11.635 144.834 27.496 163.676 49.533 174.772C 61.191 180.642 79.963 185.437 82.266 183.134C 82.871 182.529 83.16 181.827 82.908 181.574C 82.655 181.322 78.185 180.199 72.974 179.08C 66.254 177.636 60.5 175.512 53.181 171.772C 37.493 163.756 37.151 162.149 52.043 166.432C 78.361 174.002 100.956 173.986 127.265 166.378C 136.922 163.585 140.339 163.688 135.175 166.615C 129.845 169.637 128.136 171.266 132.531 169.136C 139.484 165.767 150.938 156.047 157.113 148.277C 168.487 133.964 175.124 116.285 176.583 96.417C 176.963 91.238 177.662 87 178.137 87C 181.02 87 176.609 67.228 171.107 55.488C 159 29.652 137.781 11.74 111.198 4.915C 102.341 2.641 85.126 1.688 76.798 3.01M77.5 10.593C 76.4 10.859 72.463 11.783 68.75 12.646C 65.037 13.509 62 14.644 62 15.167C 62 15.69 61.581 15.859 61.069 15.543C 60.557 15.226 59.851 15.432 59.5 16C 59.149 16.568 58.443 16.774 57.931 16.457C 57.419 16.141 57 16.385 57 17C 57 17.615 56.55 17.84 56 17.5C 55.45 17.16 55 17.385 55 18C 55 18.615 54.588 18.864 54.085 18.553C 53.582 18.242 53.02 18.345 52.835 18.781C 52.651 19.217 50.25 20.869 47.5 22.451C 37.017 28.481 28.824 35.731 21.572 45.393L21.572 45.393L17.899 50.285L20.637 53.143C 23.79 56.434 24.943 56.718 25.14 54.25C 25.217 53.288 25.611 55.972 26.017 60.215C 26.481 65.069 27.634 69.704 29.127 72.715L29.127 72.715L31.5 77.5L89.657 77.758L147.814 78.016L149.869 73.758C 157.023 58.935 153.741 43.043 140.886 30.271C 137.691 27.097 132.134 22.889 128.536 20.919C 124.938 18.95 122.32 17.014 122.717 16.617C 123.114 16.219 122.591 16.22 121.555 16.617C 120.254 17.117 119.893 16.982 120.388 16.181C 120.856 15.425 120.566 15.229 119.552 15.618C 118.698 15.946 118 15.779 118 15.246C 118 13.031 106.366 10.803 93 10.458C 85.575 10.267 78.6 10.327 77.5 10.593M208 100.5L208 168L232.5 168L257 168L257 116.517L257 65.034L282.093 64.767L307.186 64.5L313.593 49.709C 317.117 41.574 320 34.487 320 33.959C 320 33.358 299.077 33 264 33L264 33L208 33L208 100.5zM321.636 48.25C 317.976 56.638 314.986 63.837 314.991 64.25C 314.996 64.662 324.675 65 336.5 65L336.5 65L358 65L358 116.52L358 168.041L378.58 167.77L399.161 167.5L403.044 158.5L406.927 149.5L406.964 107.273L407 65.045L425.205 64.773L443.41 64.5L449.674 50C 453.119 42.025 455.952 34.938 455.969 34.25C 455.993 33.263 442.579 33 392.146 33L392.146 33L328.291 33L321.636 48.25zM435.685 99.75C 419.899 136.463 406.987 166.838 406.992 167.25C 406.996 167.662 417.243 168 429.761 168L429.761 168L452.522 168L474.511 116.519L496.5 65.039L509.25 65.019L522 65L522 116.552L522 168.105L527.148 167.802L532.297 167.5L560.152 102C 575.472 65.975 588.26 35.712 588.571 34.75C 589.104 33.096 585.713 33 526.76 33L526.76 33L464.386 33L435.685 99.75zM595.175 37.5C 591.577 45.236 540 166.62 540 167.352C 540 167.708 553.05 168 569 168L569 168L598 168L598 146.716L598 125.432L603.318 120.18L608.636 114.928L625.702 141.214L642.769 167.5L671.981 167.765L701.193 168.031L697.736 163.265C 683.907 144.202 642.948 84.672 643.194 83.994C 643.362 83.532 655.179 71.981 669.454 58.327L669.454 58.327L695.408 33.5L667.454 33.2L639.5 32.899L618.798 54.2L598.097 75.5L597.798 54L597.5 32.5L595.175 37.5zM725.433 35.314C 725.156 36.037 725.057 41.55 725.214 47.564C 725.488 58.044 725.594 58.513 727.75 58.82C 729.961 59.134 730 58.957 730 48.619L730 48.619L730 38.1L735.74 37.8C 740.268 37.563 741.551 37.13 741.814 35.75C 742.109 34.2 741.221 34 734.042 34C 728.269 34 725.792 34.378 725.433 35.314M746.261 41.529C 741.135 45.12 741.593 55.704 746.997 58.498C 750.647 60.386 752.355 60.385 756.013 58.493C 761.776 55.513 761.865 44.139 756.15 41.08C 753.275 39.542 748.81 39.745 746.261 41.529M765.455 42.455C 762.339 45.57 761.986 53.527 764.809 57.012C 767.156 59.911 773.929 60.28 776.816 57.666C 779.706 55.051 780.293 52 777.906 52C 776.858 52 776 52.418 776 52.929C 776 54.326 773.044 57 771.5 57C 767.626 57 765.12 47.28 768.2 44.2C 770.059 42.341 773.813 42.782 775 45C 776.369 47.558 779 47.596 779 45.057C 779 40.053 769.652 38.257 765.455 42.455M821.522 42.387C 818.967 44.942 818.876 47 821.318 47C 821.979 47 823.098 46.072 823.807 44.938C 825.516 42.201 830.5 42.586 830.5 45.455C 830.5 46.915 829.534 47.611 826.69 48.202C 820.751 49.436 819 50.736 819 53.913C 819 57.223 821.011 59.235 824.228 59.146C 825.478 59.111 828.68 59.024 831.343 58.953C 835.794 58.833 836.14 58.647 835.607 56.661C 835.288 55.472 835.021 52.224 835.014 49.441C 834.996 43.051 833.493 41.01 828.291 40.312C 824.749 39.837 823.773 40.136 821.522 42.387M844.583 40.866C 844.289 41.342 842.898 41.512 841.492 41.243L841.492 41.243L838.936 40.755L839.218 53.127C 839.451 63.333 839.763 65.5 841 65.5C 842.006 65.5 842.601 64.289 842.806 61.822C 843.102 58.269 843.207 58.176 845.888 59.111C 854.561 62.134 860.535 49.456 853.81 42.298C 851.637 39.984 845.697 39.063 844.583 40.866M862.048 41.76C 859.337 43.956 858.26 50.799 859.974 54.938C 862.366 60.713 871.732 61.353 874.535 55.932C 876.427 52.273 876.39 52 874 52C 872.876 52 872 52.667 872 53.521C 872 54.358 870.877 55.555 869.504 56.18C 865.926 57.81 863 54.992 863 49.916C 863 43.772 868.437 40.525 871.232 45C 872.533 47.082 876 47.777 876 45.955C 876 45.38 874.895 43.805 873.545 42.455C 870.585 39.494 865.245 39.172 862.048 41.76M916.243 41.223C 913.265 42.66 911.391 48.86 912.616 53.227C 913.9 57.804 919.579 60.624 924.347 59.051C 928.401 57.712 931.23 53 927.979 53C 926.89 53 926 53.434 926 53.965C 926 54.495 925.043 55.442 923.874 56.068C 921.161 57.52 917.491 55.987 916.732 53.085C 916.219 51.12 916.586 51 923.094 51C 929.389 51 930 50.819 930 48.95C 930 41.956 922.944 37.993 916.243 41.223M976 40.694C 974.094 41.375 972 43.991 972 45.691C 972 47.745 974.811 47.222 976.032 44.94C 977.577 42.053 982.376 42.625 982.82 45.75C 983.078 47.569 982.66 48 980.635 48C 974.632 48 970.544 51.538 971.652 55.775C 972.358 58.477 977.239 60.24 980.537 58.986C 981.891 58.471 984.349 58.32 986 58.65C 988.349 59.12 989 58.897 989 57.625C 989 56.731 988.55 56 988 56C 987.437 56 987 53.186 987 49.557C 987 44.032 986.683 42.891 984.777 41.557C 982.579 40.017 978.905 39.656 976 40.694M783.927 49.713C 787.87 58.816 788.099 62 784.81 62C 782.479 62 782.673 65.313 785.031 65.767C 787.957 66.331 790.047 63.399 793.421 54C 795.297 48.775 797.142 43.712 797.523 42.75C 798.043 41.432 797.714 41 796.187 41C 794.625 41 793.77 42.204 792.457 46.25C 791.521 49.138 790.424 51.863 790.02 52.307C 789.617 52.751 788.267 50.388 787.021 47.057C 785.152 42.058 784.354 41 782.455 41C 780.165 41 780.173 41.046 783.927 49.713M802 44.634C 802 49.659 799.959 56 798.342 56C 797.443 56 797 57.321 797 60C 797 62.889 797.417 64 798.5 64C 799.433 64 800 63.056 800 61.5C 800 59.056 800.167 59 807.5 59C 814.833 59 815 59.056 815 61.5C 815 63.056 815.567 64 816.5 64C 817.583 64 818 62.889 818 60C 818 57.111 817.583 56 816.5 56C 815.3 56 815 54.5 815 48.5L815 48.5L815 41L808.5 41L802 41L802 44.634zM877 42.5C 877 43.5 878 44 880 44L880 44L883 44L883 51.5C 883 58.333 883.178 59 885 59C 886.822 59 887 58.333 887 51.5L887 51.5L887 44L890 44C 892 44 893 43.5 893 42.5C 893 41.292 891.444 41 885 41C 878.556 41 877 41.292 877 42.5M895 50L895 59L900.566 59C 903.627 59 907.002 58.534 908.066 57.965C 910.398 56.717 910.74 51.221 908.538 50.376C 907.288 49.896 907.274 49.501 908.441 47.657C 909.36 46.205 909.521 44.765 908.935 43.25C 908.155 41.235 907.382 41 901.532 41L901.532 41L895 41L895 50zM933 50C 933 58.333 933.148 59 935 59C 936.667 59 937 58.333 937 55L937 55L937 51L941 51L945 51L945 55C 945 58.333 945.333 59 947 59C 948.852 59 949 58.333 949 50C 949 41.667 948.852 41 947 41C 945.381 41 945 41.667 945 44.5C 945 47.917 944.905 48 941 48C 937.095 48 937 47.917 937 44.5C 937 41.667 936.619 41 935 41C 933.148 41 933 41.667 933 50M953 50C 953 58.333 953.148 59 955 59C 956.667 59 957 58.333 957 55L957 55L957 51L961 51L965 51L965 55.073C 965 58.413 965.315 59.086 966.75 58.812C 968.23 58.529 968.545 57.13 968.789 49.739C 969.061 41.517 968.957 41 967.039 41C 965.375 41 965 41.644 965 44.5C 965 47.917 964.905 48 961 48C 957.095 48 957 47.917 957 44.5C 957 41.667 956.619 41 955 41C 953.148 41 953 41.667 953 50M992.2 42.2C 990.196 44.204 990.721 49.78 993.031 51.017L993.031 51.017L995.062 52.104L993.031 54.956C 990.517 58.487 990.503 59 992.918 59C 994.032 59 995.744 57.532 997 55.5C 998.19 53.575 999.801 52 1000.582 52C 1001.536 52 1002 53.145 1002 55.5C 1002 58.333 1002.381 59 1004 59C 1005.852 59 1006 58.333 1006 50L1006 50L1006 41L999.7 41C 996.133 41 992.879 41.521 992.2 42.2M748.2 44.2C 747.54 44.86 747 47.57 747 50.221C 747 54.325 747.353 55.204 749.374 56.124C 754.167 58.309 756.803 54.887 756.018 47.5C 755.575 43.337 750.996 41.404 748.2 44.2M844.067 44.874C 842.313 48.153 842.783 53.494 845.004 55.504C 849.532 59.601 854.779 52.499 851.814 46.286C 850.124 42.744 845.644 41.928 844.067 44.874M917.53 45.25C 915.962 47.479 915.99 47.503 920.581 47.809C 926.029 48.173 926.533 47.865 925.046 45.086C 923.556 42.302 919.542 42.39 917.53 45.25M804.986 47.75C 804.979 49.813 804.701 52.513 804.37 53.75C 803.816 55.817 804.102 56 807.883 56L807.883 56L812 56L812 50L812 44L808.5 44C 805.125 44 805 44.134 804.986 47.75M899 46C 899 47.797 899.504 48.078 902.25 47.813C 904.333 47.613 905.5 46.961 905.5 46C 905.5 45.039 904.333 44.387 902.25 44.187C 899.504 43.922 899 44.203 899 46M994.754 45.25C 993.86 47.681 995.207 49 998.583 49C 1001.561 49 1002 48.679 1002 46.5C 1002 44.325 1001.56 44 998.607 44C 996.741 44 995.007 44.563 994.754 45.25M827 50.954C 824.335 51.37 823.424 52.038 823.18 53.754C 822.556 58.151 829.099 57.413 830.524 52.926C 831.346 50.334 831.265 50.289 827 50.954M899 53.5C 899 55.861 899.329 56.095 902.25 55.813C 904.729 55.574 905.5 55.025 905.5 53.5C 905.5 51.975 904.729 51.426 902.25 51.187C 899.329 50.905 899 51.139 899 53.5M975.958 52.55C 974.897 53.829 974.956 54.385 976.299 55.728C 977.632 57.06 978.385 57.146 980.463 56.199C 984.139 54.524 983.908 51 980.122 51C 978.54 51 976.666 51.698 975.958 52.55M14.098 57.809C 11.867 62.182 7 78.094 7 81.015C 7 82 8.952 84.963 11.338 87.598L11.338 87.598L15.677 92.39L16.333 85.324C 16.694 81.438 18.134 74.31 19.533 69.484L19.533 69.484L22.075 60.709L19.803 58.105C 18.553 56.672 17.222 55.109 16.846 54.631C 16.47 54.153 15.233 55.583 14.098 57.809M723.667 70.667C 721.788 72.545 723.228 74 726.966 74L726.966 74L730.932 74L731.216 84.738C 731.462 94.037 731.735 95.521 733.25 95.811C 734.831 96.114 735 95.08 735 85.073L735 85.073L735 74L739 74C 742.333 74 743 73.667 743 72C 743 70.143 742.333 70 733.667 70C 728.533 70 724.033 70.3 723.667 70.667M752.724 76.609C 752.331 77.002 750.432 77.265 748.504 77.193L748.504 77.193L745 77.061L745 89.53C 745 101.333 745.107 102 747 102C 748.683 102 749 101.333 749 97.8C 749 94.533 749.267 93.867 750.2 94.8C 751.655 96.255 756.443 96.368 758.986 95.008C 763.182 92.762 763.996 82.108 760.23 78.715C 758.162 76.851 753.727 75.607 752.724 76.609M808.851 77.129C 803.502 79.089 802.35 90.436 807.108 94.289C 810.503 97.037 816.741 96.252 819.347 92.747C 820.995 90.532 821.148 89.751 820.13 88.747C 819.117 87.748 818.465 88.047 816.85 90.25C 812.908 95.626 808 93.041 808 85.589C 808 81.122 811.615 78.189 814.933 79.964C 816.07 80.573 817 81.505 817 82.035C 817 82.566 817.89 83 818.979 83C 820.715 83 820.821 82.701 819.841 80.55C 819.227 79.202 817.369 77.627 815.713 77.05C 812.253 75.844 812.361 75.842 808.851 77.129M848.273 77.113C 843.883 78.381 842.529 81.319 842.889 88.795C 843.071 92.555 847.322 96 851.78 96C 858.349 96 861.957 90.051 859.903 82.609C 859.104 79.719 858.07 78.509 855.463 77.42C 853.594 76.639 851.937 76.041 851.782 76.09C 851.627 76.14 850.048 76.6 848.273 77.113M870.618 76.716C 870.224 77.109 868.462 77.447 866.701 77.466L866.701 77.466L863.5 77.5L863.219 89.75C 862.95 101.487 863.023 102 864.969 102C 866.664 102 867 101.353 867 98.087C 867 94.208 867.025 94.183 869.824 95.24C 876.033 97.583 881 93.243 881 85.473C 881 79.827 873.68 73.653 870.618 76.716M766.557 79.223C 765.701 80.445 765 81.795 765 82.223C 765 83.648 768.777 83.023 769.362 81.5C 770.136 79.483 775.877 79.517 776.655 81.543C 777.459 83.639 776.829 84.079 772.123 84.71C 767.214 85.369 764.737 87.841 765.175 91.643C 765.583 95.179 769.669 96.941 773.825 95.372C 775.666 94.677 777.315 94.661 778.799 95.323C 781.629 96.586 782.774 95.469 781.212 92.968C 780.545 91.901 780 88.337 780 85.049C 780 78.182 778.844 77 772.122 77C 769.113 77 767.725 77.554 766.557 79.223M785 86.573C 785 95.151 785.182 96.112 786.75 95.815C 788.027 95.573 788.583 94.335 788.807 91.241C 789.113 87.022 789.136 87 793.057 87L793.057 87L797 87L797 91.573C 797 95.39 797.29 96.091 798.75 95.812C 800.24 95.527 800.543 94.107 800.788 86.239C 801.059 77.516 800.961 77 799.038 77C 797.376 77 797 77.645 797 80.5C 797 83.917 796.905 84 793 84C 789.095 84 789 83.917 789 80.5C 789 77.667 788.619 77 787 77C 785.139 77 785 77.667 785 86.573M824 86.573C 824 95.151 824.182 96.112 825.75 95.812C 827.206 95.535 827.549 94.177 827.792 87.739L827.792 87.739L828.084 80L832.042 80L836 80L836 88.073C 836 95.223 836.2 96.108 837.75 95.812C 839.24 95.527 839.543 94.107 839.788 86.239L839.788 86.239L840.075 77L832.038 77L824 77L824 86.573zM882 78.5C 882 79.495 882.995 80 884.958 80L884.958 80L887.916 80L888.208 87.75C 888.438 93.842 888.821 95.5 890 95.5C 891.179 95.5 891.562 93.842 891.792 87.75L891.792 87.75L892.084 80L895.042 80C 897.005 80 898 79.495 898 78.5C 898 77.292 896.444 77 890 77C 883.556 77 882 77.292 882 78.5M900.212 86.25C 900.443 93.678 900.795 95.5 902 95.5C 903.05 95.5 903.592 94.224 903.807 91.25C 904.113 87.032 904.144 87 908 87C 911.856 87 911.887 87.032 912.193 91.25C 912.408 94.224 912.95 95.5 914 95.5C 915.205 95.5 915.557 93.678 915.788 86.25C 916.059 77.516 915.961 77 914.038 77C 912.376 77 912 77.645 912 80.5C 912 83.917 911.905 84 908 84C 904.095 84 904 83.917 904 80.5C 904 77.645 903.624 77 901.962 77C 900.039 77 899.941 77.516 900.212 86.25M921 79C 919.9 80.1 919 81.45 919 82C 919 83.622 922.732 83.142 923.386 81.436C 924.222 79.257 930.367 79.884 930.804 82.193C 931.044 83.46 930.164 84.055 927.312 84.555C 921.198 85.629 918.831 87.593 919.191 91.294C 919.586 95.348 923.453 97.023 928.244 95.214C 930.341 94.422 931.753 94.353 932.408 95.008C 934.33 96.93 936.279 96.148 935.544 93.75C 935.165 92.513 934.912 89.32 934.981 86.656C 935.165 79.608 933.138 77 927.477 77C 924.333 77 922.404 77.596 921 79M939.655 78.829C 937.336 81.391 937.564 85.581 940.119 87.371L940.119 87.371L942.239 88.856L940.119 91.832C 937.614 95.351 937.511 96 939.457 96C 940.259 96 942.171 94.425 943.707 92.5C 947.187 88.14 948.783 88.064 949.187 92.242C 949.393 94.377 950.097 95.597 951.25 95.815C 952.818 96.112 953 95.15 953 86.573L953 86.573L953 77L947.155 77C 942.762 77 940.899 77.454 939.655 78.829M751.223 80.557C 747.031 83.492 748.781 93 753.512 93C 758.82 93 760.833 82.587 756.023 80.012C 753.64 78.737 753.856 78.712 751.223 80.557M848.571 80.571C 846.7 82.442 846.449 90.049 848.2 91.8C 849.766 93.366 853.478 93.338 854.78 91.75C 857.959 87.872 855.677 79 851.5 79C 850.754 79 849.436 79.707 848.571 80.571M869 81C 864.912 85.088 867.413 93 872.794 93C 877.055 93 878.599 84.599 875 81C 873.9 79.9 872.55 79 872 79C 871.45 79 870.1 79.9 869 81M942.667 80.667C 941.431 81.903 941.988 84.781 943.582 85.393C 947.318 86.827 949 86.084 949 83C 949 80.373 948.648 80 946.167 80C 944.608 80 943.033 80.3 942.667 80.667M771.5 87.732C 767.411 88.753 767.451 93 771.55 93C 773.645 93 777 89.784 777 87.777C 777 86.943 774.732 86.924 771.5 87.732M925.191 87.714C 922.374 88.252 922.479 92.285 925.324 92.827C 927.394 93.222 931 90.374 931 88.345C 931 87.011 929.641 86.863 925.191 87.714M729 114.935C 729 124.095 727.996 127.506 725.077 128.27C 722.094 129.05 722.398 132 725.461 132C 730.584 132 733 126.832 733 115.875L733 115.875L733 110L737 110L741 110L741 121C 741 131.333 741.121 132 743 132C 744.893 132 745 131.333 745 119.5L745 119.5L745 107L737 107L729 107L729 114.935zM773 113.694C 771.346 114.285 769 116.923 769 118.191C 769 119.676 772.777 119.023 773.387 117.433C 774.308 115.033 779.5 115.939 779.5 118.5C 779.5 119.949 778.726 120.589 776.691 120.822C 773.172 121.226 773.673 123.384 777.386 123.822C 780.555 124.196 781.764 126.374 779.989 128.513C 778.276 130.578 775.645 130.37 773.5 128C 771.429 125.712 769 125.358 769 127.345C 769 130.892 776.079 133.681 780.66 131.939C 785.141 130.235 786.401 126.543 783.492 123.635C 782.558 122.701 782.368 121.891 782.992 121.505C 784.801 120.387 784.061 116.156 781.777 114.557C 779.579 113.017 775.905 112.656 773 113.694M844.455 115.455C 841.216 118.693 840.943 126.943 843.975 129.975C 850.773 136.773 861.27 130.287 859.421 120.43C 858.106 113.42 849.388 110.522 844.455 115.455M883.389 113.98C 881.131 114.892 879.632 117.596 880.556 119.09C 881.552 120.702 883.751 120.059 884.29 118C 884.915 115.607 889.143 115.263 890.964 117.456C 892.719 119.572 891.587 120.658 886.985 121.275C 884.75 121.575 882.264 122.366 881.461 123.033C 879.652 124.534 879.549 129.381 881.295 130.83C 883.226 132.433 897 131.984 897 130.319C 897 129.594 896.55 129 896 129C 895.437 129 895 126.186 895 122.557C 895 117.032 894.683 115.891 892.777 114.557C 890.359 112.863 886.709 112.638 883.389 113.98M750 123C 750 131.159 750.177 132 751.89 132C 753.102 132 755.164 129.856 757.64 126.02L757.64 126.02L761.5 120.039L762 125.761C 762.386 130.173 762.901 131.558 764.25 131.815C 765.812 132.111 766 131.174 766 123.073C 766 114.682 765.85 114 764.01 114C 762.699 114 760.738 115.936 758.26 119.676L758.26 119.676L754.5 125.352L754.2 119.676C 753.943 114.818 753.619 114 751.95 114C 750.161 114 750 114.743 750 123M788 123C 788 131.392 788.138 132 790.04 132C 791.463 132 793.352 130 796.29 125.384L796.29 125.384L800.5 118.769L800.796 125.384C 801.019 130.37 801.45 132 802.546 132C 803.71 132 804 130.208 804 123C 804 114.629 803.858 114 801.975 114C 800.58 114 798.715 115.946 795.984 120.25L795.984 120.25L792.019 126.5L792.01 120.25C 792.001 114.67 791.786 114 790 114C 788.148 114 788 114.667 788 123M808.211 122.739C 808.455 130.13 808.77 131.529 810.25 131.812C 811.685 132.086 812 131.413 812 128.073L812 128.073L812 124L816 124L820 124L820 128C 820 131.333 820.333 132 822 132C 823.852 132 824 131.333 824 123C 824 114.667 823.852 114 822 114C 820.381 114 820 114.667 820 117.5C 820 120.917 819.905 121 816 121C 812.095 121 812 120.917 812 117.5C 812 114.644 811.625 114 809.961 114C 808.043 114 807.939 114.517 808.211 122.739M828 123C 828 131.333 828.148 132 830 132C 831.822 132 832 131.333 832 124.5L832 124.5L832 117L836.5 117C 839.833 117 841 116.611 841 115.5C 841 114.321 839.611 114 834.5 114L834.5 114L828 114L828 123zM862 123L862 132L868.345 132C 873.222 132 875.073 131.577 876.345 130.171C 878.404 127.896 878.455 125.598 876.492 123.635C 875.558 122.701 875.368 121.891 875.992 121.505C 877.381 120.647 877.259 116.659 875.8 115.2C 875.121 114.521 871.867 114 868.3 114L868.3 114L862 114L862 123zM900.2 115.2C 898.196 117.204 898.721 122.78 901.031 124.017L901.031 124.017L903.062 125.104L901.031 127.956C 898.517 131.487 898.503 132 900.918 132C 902.032 132 903.744 130.532 905 128.5C 906.19 126.575 907.801 125 908.582 125C 909.536 125 910 126.145 910 128.5C 910 131.333 910.381 132 912 132C 913.852 132 914 131.333 914 123L914 123L914 114L907.7 114C 904.133 114 900.879 114.521 900.2 115.2M847.2 117.2C 845.449 118.951 845.7 126.558 847.571 128.429C 849.491 130.348 851.053 130.413 853.433 128.673C 855.651 127.05 856.082 120.008 854.107 117.629C 852.519 115.716 848.908 115.492 847.2 117.2M866 118.5C 866 120.617 866.465 121 869.031 121C 870.888 121 872.301 120.38 872.677 119.399C 873.395 117.528 871.444 116.037 868.25 116.015C 866.513 116.003 866 116.57 866 118.5M904.692 116.701C 903.508 117.007 902.99 117.917 903.192 119.335C 903.424 120.966 904.301 121.577 906.75 121.813C 909.778 122.105 910 121.917 910 119.063C 910 115.931 909.14 115.548 904.692 116.701M888.324 123.799C 884.185 124.212 882.104 126.533 884.092 128.52C 886.091 130.52 889.952 129.255 891.105 126.225C 892.224 123.282 892.356 123.398 888.324 123.799M866 126.5C 866 128.917 866.292 129.097 869.75 128.81C 872.73 128.564 873.5 128.089 873.5 126.5C 873.5 124.911 872.73 124.436 869.75 124.19C 866.292 123.903 866 124.083 866 126.5M726 155.427C 726 167.333 726.106 168 728 168C 729.761 168 730 167.333 730 162.419L730 162.419L730 156.839L735.1 162.419C 738.671 166.326 740.945 168 742.684 168C 744.994 168 744.777 167.568 739.584 161.83C 736.513 158.436 734 155.381 734 155.042C 734 154.703 736.25 152.209 739 149.5C 741.75 146.791 744 144.221 744 143.788C 744 141.516 739.844 143.591 735.462 148.05L735.462 148.05L730.5 153.1L730 148.309C 729.632 144.786 729.037 143.429 727.75 143.185C 726.159 142.883 726 143.992 726 155.427M751.091 150.09C 747.424 151.556 746.067 154.026 746.032 159.295C 745.992 165.346 749.112 169 754.32 169C 764.196 169 767.445 154.173 758.397 150.392C 754.58 148.798 754.347 148.788 751.091 150.09M766 158.934C 766 167.333 766.147 168 768 168C 769.763 168 770.005 167.32 770.04 162.25L770.04 162.25L770.08 156.5L772.446 162C 775.67 169.497 777.819 169.7 780.697 162.781L780.697 162.781L782.895 157.5L782.947 162.75C 782.993 167.316 783.261 168 785 168C 786.852 168 787 167.333 787 159C 787 150.19 786.95 150 784.622 150C 782.63 150 781.878 150.979 779.992 156.021C 778.754 159.333 777.421 162.24 777.03 162.481C 776.64 162.723 775.177 160.126 773.78 156.71C 771.673 151.559 770.793 150.446 768.62 150.184L768.62 150.184L766 149.867L766 158.934zM791 159C 791 167.333 791.148 168 793 168C 794.822 168 795 167.333 795 160.5L795 160.5L795 153L799 153L803 153L803 160.5C 803 167.333 803.178 168 805 168C 806.852 168 807 167.333 807 159L807 159L807 150L799 150L791 150L791 159zM811.557 152.223C 810.701 153.445 810 154.795 810 155.223C 810 156.683 813.784 156.004 814.386 154.436C 815.212 152.285 821.366 152.88 821.796 155.153C 822.033 156.402 821.058 156.98 817.805 157.519C 810.987 158.649 809.842 159.593 810.194 163.797C 810.443 166.78 811.02 167.645 813.286 168.437C 815.134 169.083 816.999 169.061 818.825 168.372C 820.666 167.677 822.315 167.661 823.799 168.323C 826.629 169.586 827.774 168.469 826.212 165.968C 825.545 164.901 825 161.411 825 158.214C 825 155.016 824.46 151.86 823.8 151.2C 823.14 150.54 820.466 150 817.857 150C 814.089 150 812.793 150.457 811.557 152.223M830 159C 830 167.333 830.148 168 832 168C 833.667 168 834 167.333 834 164L834 164L834 160L838 160L842 160L842 164C 842 167.333 842.333 168 844 168C 845.852 168 846 167.333 846 159C 846 150.667 845.852 150 844 150C 842.381 150 842 150.667 842 153.5C 842 156.917 841.905 157 838 157C 834.095 157 834 156.917 834 153.5C 834 150.667 833.619 150 832 150C 830.148 150 830 150.667 830 159M850 159C 850 167.318 850.151 168 851.99 168C 853.301 168 855.262 166.064 857.74 162.324L857.74 162.324L861.5 156.648L861.8 162.324C 862.057 167.182 862.381 168 864.05 168C 865.839 168 866 167.257 866 159C 866 150.874 865.818 150 864.129 150C 862.941 150 860.756 152.279 858.138 156.25L858.138 156.25L854.018 162.5L854.009 156.25C 854.001 150.67 853.786 150 852 150C 850.148 150 850 150.667 850 159M870.413 152.493C 868.407 155.554 869.272 159.997 872.014 160.714C 873.83 161.189 873.794 161.404 871.35 164.608L871.35 164.608L868.763 168L871.166 168C 872.775 168 874.154 167.009 875.341 165C 876.343 163.304 877.958 162 879.057 162C 880.549 162 881 162.696 881 165C 881 167.333 881.444 168 883 168C 884.852 168 885 167.333 885 159L885 159L885 150L878.523 150C 872.723 150 871.875 150.26 870.413 152.493M751.571 153.571C 749.7 155.442 749.449 163.049 751.2 164.8C 752.908 166.508 756.519 166.284 758.107 164.371C 760.082 161.992 759.651 154.95 757.433 153.327C 755.053 151.587 753.491 151.652 751.571 153.571M873.667 153.667C 872.431 154.903 872.988 157.781 874.582 158.393C 875.452 158.727 877.252 159 878.582 159C 880.602 159 881 158.506 881 156C 881 153.267 880.704 153 877.667 153C 875.833 153 874.033 153.3 873.667 153.667M816 160.729C 812.361 162.114 812.766 166 816.55 166C 818.645 166 822 162.784 822 160.777C 822 159.897 818.265 159.867 816 160.729" stroke="none" fill="#315071" fill-rule="nonzero" />
</g>
</svg>
