<svg xmlns="http://www.w3.org/2000/svg" width="1008" height="184" viewBox="0 0 1008 184" version="1.1"><path d="M 77.500 10.593 C 76.400 10.859, 72.463 11.783, 68.750 12.646 C 65.037 13.509, 62 14.644, 62 15.167 C 62 15.690, 61.581 15.859, 61.069 15.543 C 60.557 15.226, 59.851 15.432, 59.500 16 C 59.149 16.568, 58.443 16.774, 57.931 16.457 C 57.419 16.141, 57 16.385, 57 17 C 57 17.615, 56.550 17.840, 56 17.500 C 55.450 17.160, 55 17.385, 55 18 C 55 18.615, 54.588 18.864, 54.085 18.553 C 53.582 18.242, 53.020 18.345, 52.835 18.781 C 52.651 19.217, 50.250 20.869, 47.500 22.451 C 37.017 28.481, 28.824 35.731, 21.572 45.393 L 17.899 50.285 20.637 53.143 C 23.790 56.434, 24.943 56.718, 25.140 54.250 C 25.217 53.288, 25.611 55.972, 26.017 60.215 C 26.481 65.069, 27.634 69.704, 29.127 72.715 L 31.500 77.500 89.657 77.758 L 147.814 78.016 149.869 73.758 C 157.023 58.935, 153.741 43.043, 140.886 30.271 C 137.691 27.097, 132.134 22.889, 128.536 20.919 C 124.938 18.950, 122.320 17.014, 122.717 16.617 C 123.114 16.219, 122.591 16.220, 121.555 16.617 C 120.254 17.117, 119.893 16.982, 120.388 16.181 C 120.856 15.425, 120.566 15.229, 119.552 15.618 C 118.698 15.946, 118 15.779, 118 15.246 C 118 13.031, 106.366 10.803, 93 10.458 C 85.575 10.267, 78.600 10.327, 77.500 10.593 M 14.098 57.809 C 11.867 62.182, 7 78.094, 7 81.015 C 7 82, 8.952 84.963, 11.338 87.598 L 15.677 92.390 16.333 85.324 C 16.694 81.438, 18.134 74.310, 19.533 69.484 L 22.075 60.709 19.803 58.105 C 18.553 56.672, 17.222 55.109, 16.846 54.631 C 16.470 54.153, 15.233 55.583, 14.098 57.809 M 176.583 96.417 C 175.124 116.285, 168.487 133.964, 157.113 148.277 C 150.938 156.047, 139.484 165.767, 132.531 169.136 C 128.136 171.266, 129.845 169.637, 135.175 166.615 C 140.339 163.688, 136.922 163.585, 127.265 166.378 C 100.956 173.986, 78.361 174.002, 52.043 166.432 C 37.736 162.317, 37.538 163.422, 51.259 170.818 C 60.480 175.789, 66.316 177.850, 77.324 180.023 C 81.650 180.877, 83.008 181.536, 82.605 182.586 C 82.162 183.740, 83.719 184, 91.074 184 C 113.887 184, 136.218 174.750, 152.583 158.523 C 169.335 141.912, 178.185 121.901, 179.680 97.250 C 180.211 88.491, 180.081 87, 178.788 87 C 177.592 87, 177.129 88.980, 176.583 96.417" stroke="none" fill="#b2cbdb" fill-rule="evenodd"/><path d="M 76.798 3.010 C 45.273 8.017, 18.017 29.587, 6.949 58.289 C 1.164 73.289, 0.495 77.131, 0.557 95 C 0.611 110.318, 0.816 112.109, 3.425 120 C 11.635 144.834, 27.496 163.676, 49.533 174.772 C 61.191 180.642, 79.963 185.437, 82.266 183.134 C 82.871 182.529, 83.160 181.827, 82.908 181.574 C 82.655 181.322, 78.185 180.199, 72.974 179.080 C 66.254 177.636, 60.500 175.512, 53.181 171.772 C 37.493 163.756, 37.151 162.149, 52.043 166.432 C 78.361 174.002, 100.956 173.986, 127.265 166.378 C 136.922 163.585, 140.339 163.688, 135.175 166.615 C 129.845 169.637, 128.136 171.266, 132.531 169.136 C 139.484 165.767, 150.938 156.047, 157.113 148.277 C 168.487 133.964, 175.124 116.285, 176.583 96.417 C 176.963 91.238, 177.662 87, 178.137 87 C 181.020 87, 176.609 67.228, 171.107 55.488 C 159 29.652, 137.781 11.740, 111.198 4.915 C 102.341 2.641, 85.126 1.688, 76.798 3.010 M 77.500 10.593 C 76.400 10.859, 72.463 11.783, 68.750 12.646 C 65.037 13.509, 62 14.644, 62 15.167 C 62 15.690, 61.581 15.859, 61.069 15.543 C 60.557 15.226, 59.851 15.432, 59.500 16 C 59.149 16.568, 58.443 16.774, 57.931 16.457 C 57.419 16.141, 57 16.385, 57 17 C 57 17.615, 56.550 17.840, 56 17.500 C 55.450 17.160, 55 17.385, 55 18 C 55 18.615, 54.588 18.864, 54.085 18.553 C 53.582 18.242, 53.020 18.345, 52.835 18.781 C 52.651 19.217, 50.250 20.869, 47.500 22.451 C 37.017 28.481, 28.824 35.731, 21.572 45.393 L 17.899 50.285 20.637 53.143 C 23.790 56.434, 24.943 56.718, 25.140 54.250 C 25.217 53.288, 25.611 55.972, 26.017 60.215 C 26.481 65.069, 27.634 69.704, 29.127 72.715 L 31.500 77.500 89.657 77.758 L 147.814 78.016 149.869 73.758 C 157.023 58.935, 153.741 43.043, 140.886 30.271 C 137.691 27.097, 132.134 22.889, 128.536 20.919 C 124.938 18.950, 122.320 17.014, 122.717 16.617 C 123.114 16.219, 122.591 16.220, 121.555 16.617 C 120.254 17.117, 119.893 16.982, 120.388 16.181 C 120.856 15.425, 120.566 15.229, 119.552 15.618 C 118.698 15.946, 118 15.779, 118 15.246 C 118 13.031, 106.366 10.803, 93 10.458 C 85.575 10.267, 78.600 10.327, 77.500 10.593 M 208 100.500 L 208 168 232.500 168 L 257 168 257 116.517 L 257 65.034 282.093 64.767 L 307.186 64.500 313.593 49.709 C 317.117 41.574, 320 34.487, 320 33.959 C 320 33.358, 299.077 33, 264 33 L 208 33 208 100.500 M 321.636 48.250 C 317.976 56.638, 314.986 63.837, 314.991 64.250 C 314.996 64.662, 324.675 65, 336.500 65 L 358 65 358 116.520 L 358 168.041 378.580 167.770 L 399.161 167.500 403.044 158.500 L 406.927 149.500 406.964 107.273 L 407 65.045 425.205 64.773 L 443.410 64.500 449.674 50 C 453.119 42.025, 455.952 34.938, 455.969 34.250 C 455.993 33.263, 442.579 33, 392.146 33 L 328.291 33 321.636 48.250 M 435.685 99.750 C 419.899 136.463, 406.987 166.838, 406.992 167.250 C 406.996 167.662, 417.243 168, 429.761 168 L 452.522 168 474.511 116.519 L 496.500 65.039 509.250 65.019 L 522 65 522 116.552 L 522 168.105 527.148 167.802 L 532.297 167.500 560.152 102 C 575.472 65.975, 588.260 35.712, 588.571 34.750 C 589.104 33.096, 585.713 33, 526.760 33 L 464.386 33 435.685 99.750 M 595.175 37.500 C 591.577 45.236, 540 166.620, 540 167.352 C 540 167.708, 553.050 168, 569 168 L 598 168 598 146.716 L 598 125.432 603.318 120.180 L 608.636 114.928 625.702 141.214 L 642.769 167.500 671.981 167.765 L 701.193 168.031 697.736 163.265 C 683.907 144.202, 642.948 84.672, 643.194 83.994 C 643.362 83.532, 655.179 71.981, 669.454 58.327 L 695.408 33.500 667.454 33.200 L 639.500 32.899 618.798 54.200 L 598.097 75.500 597.798 54 L 597.500 32.500 595.175 37.500 M 725.433 35.314 C 725.156 36.037, 725.057 41.550, 725.214 47.564 C 725.488 58.044, 725.594 58.513, 727.750 58.820 C 729.961 59.134, 730 58.957, 730 48.619 L 730 38.100 735.740 37.800 C 740.268 37.563, 741.551 37.130, 741.814 35.750 C 742.109 34.200, 741.221 34, 734.042 34 C 728.269 34, 725.792 34.378, 725.433 35.314 M 746.261 41.529 C 741.135 45.120, 741.593 55.704, 746.997 58.498 C 750.647 60.386, 752.355 60.385, 756.013 58.493 C 761.776 55.513, 761.865 44.139, 756.150 41.080 C 753.275 39.542, 748.810 39.745, 746.261 41.529 M 765.455 42.455 C 762.339 45.570, 761.986 53.527, 764.809 57.012 C 767.156 59.911, 773.929 60.280, 776.816 57.666 C 779.706 55.051, 780.293 52, 777.906 52 C 776.858 52, 776 52.418, 776 52.929 C 776 54.326, 773.044 57, 771.500 57 C 767.626 57, 765.120 47.280, 768.200 44.200 C 770.059 42.341, 773.813 42.782, 775 45 C 776.369 47.558, 779 47.596, 779 45.057 C 779 40.053, 769.652 38.257, 765.455 42.455 M 821.522 42.387 C 818.967 44.942, 818.876 47, 821.318 47 C 821.979 47, 823.098 46.072, 823.807 44.938 C 825.516 42.201, 830.500 42.586, 830.500 45.455 C 830.500 46.915, 829.534 47.611, 826.690 48.202 C 820.751 49.436, 819 50.736, 819 53.913 C 819 57.223, 821.011 59.235, 824.228 59.146 C 825.478 59.111, 828.680 59.024, 831.343 58.953 C 835.794 58.833, 836.140 58.647, 835.607 56.661 C 835.288 55.472, 835.021 52.224, 835.014 49.441 C 834.996 43.051, 833.493 41.010, 828.291 40.312 C 824.749 39.837, 823.773 40.136, 821.522 42.387 M 844.583 40.866 C 844.289 41.342, 842.898 41.512, 841.492 41.243 L 838.936 40.755 839.218 53.127 C 839.451 63.333, 839.763 65.500, 841 65.500 C 842.006 65.500, 842.601 64.289, 842.806 61.822 C 843.102 58.269, 843.207 58.176, 845.888 59.111 C 854.561 62.134, 860.535 49.456, 853.810 42.298 C 851.637 39.984, 845.697 39.063, 844.583 40.866 M 862.048 41.760 C 859.337 43.956, 858.260 50.799, 859.974 54.938 C 862.366 60.713, 871.732 61.353, 874.535 55.932 C 876.427 52.273, 876.390 52, 874 52 C 872.876 52, 872 52.667, 872 53.521 C 872 54.358, 870.877 55.555, 869.504 56.180 C 865.926 57.810, 863 54.992, 863 49.916 C 863 43.772, 868.437 40.525, 871.232 45 C 872.533 47.082, 876 47.777, 876 45.955 C 876 45.380, 874.895 43.805, 873.545 42.455 C 870.585 39.494, 865.245 39.172, 862.048 41.760 M 916.243 41.223 C 913.265 42.660, 911.391 48.860, 912.616 53.227 C 913.900 57.804, 919.579 60.624, 924.347 59.051 C 928.401 57.712, 931.230 53, 927.979 53 C 926.890 53, 926 53.434, 926 53.965 C 926 54.495, 925.043 55.442, 923.874 56.068 C 921.161 57.520, 917.491 55.987, 916.732 53.085 C 916.219 51.120, 916.586 51, 923.094 51 C 929.389 51, 930 50.819, 930 48.950 C 930 41.956, 922.944 37.993, 916.243 41.223 M 976 40.694 C 974.094 41.375, 972 43.991, 972 45.691 C 972 47.745, 974.811 47.222, 976.032 44.940 C 977.577 42.053, 982.376 42.625, 982.820 45.750 C 983.078 47.569, 982.660 48, 980.635 48 C 974.632 48, 970.544 51.538, 971.652 55.775 C 972.358 58.477, 977.239 60.240, 980.537 58.986 C 981.891 58.471, 984.349 58.320, 986 58.650 C 988.349 59.120, 989 58.897, 989 57.625 C 989 56.731, 988.550 56, 988 56 C 987.437 56, 987 53.186, 987 49.557 C 987 44.032, 986.683 42.891, 984.777 41.557 C 982.579 40.017, 978.905 39.656, 976 40.694 M 783.927 49.713 C 787.870 58.816, 788.099 62, 784.810 62 C 782.479 62, 782.673 65.313, 785.031 65.767 C 787.957 66.331, 790.047 63.399, 793.421 54 C 795.297 48.775, 797.142 43.712, 797.523 42.750 C 798.043 41.432, 797.714 41, 796.187 41 C 794.625 41, 793.770 42.204, 792.457 46.250 C 791.521 49.138, 790.424 51.863, 790.020 52.307 C 789.617 52.751, 788.267 50.388, 787.021 47.057 C 785.152 42.058, 784.354 41, 782.455 41 C 780.165 41, 780.173 41.046, 783.927 49.713 M 802 44.634 C 802 49.659, 799.959 56, 798.342 56 C 797.443 56, 797 57.321, 797 60 C 797 62.889, 797.417 64, 798.500 64 C 799.433 64, 800 63.056, 800 61.500 C 800 59.056, 800.167 59, 807.500 59 C 814.833 59, 815 59.056, 815 61.500 C 815 63.056, 815.567 64, 816.500 64 C 817.583 64, 818 62.889, 818 60 C 818 57.111, 817.583 56, 816.500 56 C 815.300 56, 815 54.500, 815 48.500 L 815 41 808.500 41 L 802 41 802 44.634 M 877 42.500 C 877 43.500, 878 44, 880 44 L 883 44 883 51.500 C 883 58.333, 883.178 59, 885 59 C 886.822 59, 887 58.333, 887 51.500 L 887 44 890 44 C 892 44, 893 43.500, 893 42.500 C 893 41.292, 891.444 41, 885 41 C 878.556 41, 877 41.292, 877 42.500 M 895 50 L 895 59 900.566 59 C 903.627 59, 907.002 58.534, 908.066 57.965 C 910.398 56.717, 910.740 51.221, 908.538 50.376 C 907.288 49.896, 907.274 49.501, 908.441 47.657 C 909.360 46.205, 909.521 44.765, 908.935 43.250 C 908.155 41.235, 907.382 41, 901.532 41 L 895 41 895 50 M 933 50 C 933 58.333, 933.148 59, 935 59 C 936.667 59, 937 58.333, 937 55 L 937 51 941 51 L 945 51 945 55 C 945 58.333, 945.333 59, 947 59 C 948.852 59, 949 58.333, 949 50 C 949 41.667, 948.852 41, 947 41 C 945.381 41, 945 41.667, 945 44.500 C 945 47.917, 944.905 48, 941 48 C 937.095 48, 937 47.917, 937 44.500 C 937 41.667, 936.619 41, 935 41 C 933.148 41, 933 41.667, 933 50 M 953 50 C 953 58.333, 953.148 59, 955 59 C 956.667 59, 957 58.333, 957 55 L 957 51 961 51 L 965 51 965 55.073 C 965 58.413, 965.315 59.086, 966.750 58.812 C 968.230 58.529, 968.545 57.130, 968.789 49.739 C 969.061 41.517, 968.957 41, 967.039 41 C 965.375 41, 965 41.644, 965 44.500 C 965 47.917, 964.905 48, 961 48 C 957.095 48, 957 47.917, 957 44.500 C 957 41.667, 956.619 41, 955 41 C 953.148 41, 953 41.667, 953 50 M 992.200 42.200 C 990.196 44.204, 990.721 49.780, 993.031 51.017 L 995.062 52.104 993.031 54.956 C 990.517 58.487, 990.503 59, 992.918 59 C 994.032 59, 995.744 57.532, 997 55.500 C 998.190 53.575, 999.801 52, 1000.582 52 C 1001.536 52, 1002 53.145, 1002 55.500 C 1002 58.333, 1002.381 59, 1004 59 C 1005.852 59, 1006 58.333, 1006 50 L 1006 41 999.700 41 C 996.133 41, 992.879 41.521, 992.200 42.200 M 748.200 44.200 C 747.540 44.860, 747 47.570, 747 50.221 C 747 54.325, 747.353 55.204, 749.374 56.124 C 754.167 58.309, 756.803 54.887, 756.018 47.500 C 755.575 43.337, 750.996 41.404, 748.200 44.200 M 844.067 44.874 C 842.313 48.153, 842.783 53.494, 845.004 55.504 C 849.532 59.601, 854.779 52.499, 851.814 46.286 C 850.124 42.744, 845.644 41.928, 844.067 44.874 M 917.530 45.250 C 915.962 47.479, 915.990 47.503, 920.581 47.809 C 926.029 48.173, 926.533 47.865, 925.046 45.086 C 923.556 42.302, 919.542 42.390, 917.530 45.250 M 804.986 47.750 C 804.979 49.813, 804.701 52.513, 804.370 53.750 C 803.816 55.817, 804.102 56, 807.883 56 L 812 56 812 50 L 812 44 808.500 44 C 805.125 44, 805 44.134, 804.986 47.750 M 899 46 C 899 47.797, 899.504 48.078, 902.250 47.813 C 904.333 47.613, 905.500 46.961, 905.500 46 C 905.500 45.039, 904.333 44.387, 902.250 44.187 C 899.504 43.922, 899 44.203, 899 46 M 994.754 45.250 C 993.860 47.681, 995.207 49, 998.583 49 C 1001.561 49, 1002 48.679, 1002 46.500 C 1002 44.325, 1001.560 44, 998.607 44 C 996.741 44, 995.007 44.563, 994.754 45.250 M 827 50.954 C 824.335 51.370, 823.424 52.038, 823.180 53.754 C 822.556 58.151, 829.099 57.413, 830.524 52.926 C 831.346 50.334, 831.265 50.289, 827 50.954 M 899 53.500 C 899 55.861, 899.329 56.095, 902.250 55.813 C 904.729 55.574, 905.500 55.025, 905.500 53.500 C 905.500 51.975, 904.729 51.426, 902.250 51.187 C 899.329 50.905, 899 51.139, 899 53.500 M 975.958 52.550 C 974.897 53.829, 974.956 54.385, 976.299 55.728 C 977.632 57.060, 978.385 57.146, 980.463 56.199 C 984.139 54.524, 983.908 51, 980.122 51 C 978.540 51, 976.666 51.698, 975.958 52.550 M 14.098 57.809 C 11.867 62.182, 7 78.094, 7 81.015 C 7 82, 8.952 84.963, 11.338 87.598 L 15.677 92.390 16.333 85.324 C 16.694 81.438, 18.134 74.310, 19.533 69.484 L 22.075 60.709 19.803 58.105 C 18.553 56.672, 17.222 55.109, 16.846 54.631 C 16.470 54.153, 15.233 55.583, 14.098 57.809 M 723.667 70.667 C 721.788 72.545, 723.228 74, 726.966 74 L 730.932 74 731.216 84.738 C 731.462 94.037, 731.735 95.521, 733.250 95.811 C 734.831 96.114, 735 95.080, 735 85.073 L 735 74 739 74 C 742.333 74, 743 73.667, 743 72 C 743 70.143, 742.333 70, 733.667 70 C 728.533 70, 724.033 70.300, 723.667 70.667 M 752.724 76.609 C 752.331 77.002, 750.432 77.265, 748.504 77.193 L 745 77.061 745 89.530 C 745 101.333, 745.107 102, 747 102 C 748.683 102, 749 101.333, 749 97.800 C 749 94.533, 749.267 93.867, 750.200 94.800 C 751.655 96.255, 756.443 96.368, 758.986 95.008 C 763.182 92.762, 763.996 82.108, 760.230 78.715 C 758.162 76.851, 753.727 75.607, 752.724 76.609 M 808.851 77.129 C 803.502 79.089, 802.350 90.436, 807.108 94.289 C 810.503 97.037, 816.741 96.252, 819.347 92.747 C 820.995 90.532, 821.148 89.751, 820.130 88.747 C 819.117 87.748, 818.465 88.047, 816.850 90.250 C 812.908 95.626, 808 93.041, 808 85.589 C 808 81.122, 811.615 78.189, 814.933 79.964 C 816.070 80.573, 817 81.505, 817 82.035 C 817 82.566, 817.890 83, 818.979 83 C 820.715 83, 820.821 82.701, 819.841 80.550 C 819.227 79.202, 817.369 77.627, 815.713 77.050 C 812.253 75.844, 812.361 75.842, 808.851 77.129 M 848.273 77.113 C 843.883 78.381, 842.529 81.319, 842.889 88.795 C 843.071 92.555, 847.322 96, 851.780 96 C 858.349 96, 861.957 90.051, 859.903 82.609 C 859.104 79.719, 858.070 78.509, 855.463 77.420 C 853.594 76.639, 851.937 76.041, 851.782 76.090 C 851.627 76.140, 850.048 76.600, 848.273 77.113 M 870.618 76.716 C 870.224 77.109, 868.462 77.447, 866.701 77.466 L 863.500 77.500 863.219 89.750 C 862.950 101.487, 863.023 102, 864.969 102 C 866.664 102, 867 101.353, 867 98.087 C 867 94.208, 867.025 94.183, 869.824 95.240 C 876.033 97.583, 881 93.243, 881 85.473 C 881 79.827, 873.680 73.653, 870.618 76.716 M 766.557 79.223 C 765.701 80.445, 765 81.795, 765 82.223 C 765 83.648, 768.777 83.023, 769.362 81.500 C 770.136 79.483, 775.877 79.517, 776.655 81.543 C 777.459 83.639, 776.829 84.079, 772.123 84.710 C 767.214 85.369, 764.737 87.841, 765.175 91.643 C 765.583 95.179, 769.669 96.941, 773.825 95.372 C 775.666 94.677, 777.315 94.661, 778.799 95.323 C 781.629 96.586, 782.774 95.469, 781.212 92.968 C 780.545 91.901, 780 88.337, 780 85.049 C 780 78.182, 778.844 77, 772.122 77 C 769.113 77, 767.725 77.554, 766.557 79.223 M 785 86.573 C 785 95.151, 785.182 96.112, 786.750 95.815 C 788.027 95.573, 788.583 94.335, 788.807 91.241 C 789.113 87.022, 789.136 87, 793.057 87 L 797 87 797 91.573 C 797 95.390, 797.290 96.091, 798.750 95.812 C 800.240 95.527, 800.543 94.107, 800.788 86.239 C 801.059 77.516, 800.961 77, 799.038 77 C 797.376 77, 797 77.645, 797 80.500 C 797 83.917, 796.905 84, 793 84 C 789.095 84, 789 83.917, 789 80.500 C 789 77.667, 788.619 77, 787 77 C 785.139 77, 785 77.667, 785 86.573 M 824 86.573 C 824 95.151, 824.182 96.112, 825.750 95.812 C 827.206 95.535, 827.549 94.177, 827.792 87.739 L 828.084 80 832.042 80 L 836 80 836 88.073 C 836 95.223, 836.200 96.108, 837.750 95.812 C 839.240 95.527, 839.543 94.107, 839.788 86.239 L 840.075 77 832.038 77 L 824 77 824 86.573 M 882 78.500 C 882 79.495, 882.995 80, 884.958 80 L 887.916 80 888.208 87.750 C 888.438 93.842, 888.821 95.500, 890 95.500 C 891.179 95.500, 891.562 93.842, 891.792 87.750 L 892.084 80 895.042 80 C 897.005 80, 898 79.495, 898 78.500 C 898 77.292, 896.444 77, 890 77 C 883.556 77, 882 77.292, 882 78.500 M 900.212 86.250 C 900.443 93.678, 900.795 95.500, 902 95.500 C 903.050 95.500, 903.592 94.224, 903.807 91.250 C 904.113 87.032, 904.144 87, 908 87 C 911.856 87, 911.887 87.032, 912.193 91.250 C 912.408 94.224, 912.950 95.500, 914 95.500 C 915.205 95.500, 915.557 93.678, 915.788 86.250 C 916.059 77.516, 915.961 77, 914.038 77 C 912.376 77, 912 77.645, 912 80.500 C 912 83.917, 911.905 84, 908 84 C 904.095 84, 904 83.917, 904 80.500 C 904 77.645, 903.624 77, 901.962 77 C 900.039 77, 899.941 77.516, 900.212 86.250 M 921 79 C 919.900 80.100, 919 81.450, 919 82 C 919 83.622, 922.732 83.142, 923.386 81.436 C 924.222 79.257, 930.367 79.884, 930.804 82.193 C 931.044 83.460, 930.164 84.055, 927.312 84.555 C 921.198 85.629, 918.831 87.593, 919.191 91.294 C 919.586 95.348, 923.453 97.023, 928.244 95.214 C 930.341 94.422, 931.753 94.353, 932.408 95.008 C 934.330 96.930, 936.279 96.148, 935.544 93.750 C 935.165 92.513, 934.912 89.320, 934.981 86.656 C 935.165 79.608, 933.138 77, 927.477 77 C 924.333 77, 922.404 77.596, 921 79 M 939.655 78.829 C 937.336 81.391, 937.564 85.581, 940.119 87.371 L 942.239 88.856 940.119 91.832 C 937.614 95.351, 937.511 96, 939.457 96 C 940.259 96, 942.171 94.425, 943.707 92.500 C 947.187 88.140, 948.783 88.064, 949.187 92.242 C 949.393 94.377, 950.097 95.597, 951.250 95.815 C 952.818 96.112, 953 95.150, 953 86.573 L 953 77 947.155 77 C 942.762 77, 940.899 77.454, 939.655 78.829 M 751.223 80.557 C 747.031 83.492, 748.781 93, 753.512 93 C 758.820 93, 760.833 82.587, 756.023 80.012 C 753.640 78.737, 753.856 78.712, 751.223 80.557 M 848.571 80.571 C 846.700 82.442, 846.449 90.049, 848.200 91.800 C 849.766 93.366, 853.478 93.338, 854.780 91.750 C 857.959 87.872, 855.677 79, 851.500 79 C 850.754 79, 849.436 79.707, 848.571 80.571 M 869 81 C 864.912 85.088, 867.413 93, 872.794 93 C 877.055 93, 878.599 84.599, 875 81 C 873.900 79.900, 872.550 79, 872 79 C 871.450 79, 870.100 79.900, 869 81 M 942.667 80.667 C 941.431 81.903, 941.988 84.781, 943.582 85.393 C 947.318 86.827, 949 86.084, 949 83 C 949 80.373, 948.648 80, 946.167 80 C 944.608 80, 943.033 80.300, 942.667 80.667 M 771.500 87.732 C 767.411 88.753, 767.451 93, 771.550 93 C 773.645 93, 777 89.784, 777 87.777 C 777 86.943, 774.732 86.924, 771.500 87.732 M 925.191 87.714 C 922.374 88.252, 922.479 92.285, 925.324 92.827 C 927.394 93.222, 931 90.374, 931 88.345 C 931 87.011, 929.641 86.863, 925.191 87.714 M 729 114.935 C 729 124.095, 727.996 127.506, 725.077 128.270 C 722.094 129.050, 722.398 132, 725.461 132 C 730.584 132, 733 126.832, 733 115.875 L 733 110 737 110 L 741 110 741 121 C 741 131.333, 741.121 132, 743 132 C 744.893 132, 745 131.333, 745 119.500 L 745 107 737 107 L 729 107 729 114.935 M 773 113.694 C 771.346 114.285, 769 116.923, 769 118.191 C 769 119.676, 772.777 119.023, 773.387 117.433 C 774.308 115.033, 779.500 115.939, 779.500 118.500 C 779.500 119.949, 778.726 120.589, 776.691 120.822 C 773.172 121.226, 773.673 123.384, 777.386 123.822 C 780.555 124.196, 781.764 126.374, 779.989 128.513 C 778.276 130.578, 775.645 130.370, 773.500 128 C 771.429 125.712, 769 125.358, 769 127.345 C 769 130.892, 776.079 133.681, 780.660 131.939 C 785.141 130.235, 786.401 126.543, 783.492 123.635 C 782.558 122.701, 782.368 121.891, 782.992 121.505 C 784.801 120.387, 784.061 116.156, 781.777 114.557 C 779.579 113.017, 775.905 112.656, 773 113.694 M 844.455 115.455 C 841.216 118.693, 840.943 126.943, 843.975 129.975 C 850.773 136.773, 861.270 130.287, 859.421 120.430 C 858.106 113.420, 849.388 110.522, 844.455 115.455 M 883.389 113.980 C 881.131 114.892, 879.632 117.596, 880.556 119.090 C 881.552 120.702, 883.751 120.059, 884.290 118 C 884.915 115.607, 889.143 115.263, 890.964 117.456 C 892.719 119.572, 891.587 120.658, 886.985 121.275 C 884.750 121.575, 882.264 122.366, 881.461 123.033 C 879.652 124.534, 879.549 129.381, 881.295 130.830 C 883.226 132.433, 897 131.984, 897 130.319 C 897 129.594, 896.550 129, 896 129 C 895.437 129, 895 126.186, 895 122.557 C 895 117.032, 894.683 115.891, 892.777 114.557 C 890.359 112.863, 886.709 112.638, 883.389 113.980 M 750 123 C 750 131.159, 750.177 132, 751.890 132 C 753.102 132, 755.164 129.856, 757.640 126.020 L 761.500 120.039 762 125.761 C 762.386 130.173, 762.901 131.558, 764.250 131.815 C 765.812 132.111, 766 131.174, 766 123.073 C 766 114.682, 765.850 114, 764.010 114 C 762.699 114, 760.738 115.936, 758.260 119.676 L 754.500 125.352 754.200 119.676 C 753.943 114.818, 753.619 114, 751.950 114 C 750.161 114, 750 114.743, 750 123 M 788 123 C 788 131.392, 788.138 132, 790.040 132 C 791.463 132, 793.352 130, 796.290 125.384 L 800.500 118.769 800.796 125.384 C 801.019 130.370, 801.450 132, 802.546 132 C 803.710 132, 804 130.208, 804 123 C 804 114.629, 803.858 114, 801.975 114 C 800.580 114, 798.715 115.946, 795.984 120.250 L 792.019 126.500 792.010 120.250 C 792.001 114.670, 791.786 114, 790 114 C 788.148 114, 788 114.667, 788 123 M 808.211 122.739 C 808.455 130.130, 808.770 131.529, 810.250 131.812 C 811.685 132.086, 812 131.413, 812 128.073 L 812 124 816 124 L 820 124 820 128 C 820 131.333, 820.333 132, 822 132 C 823.852 132, 824 131.333, 824 123 C 824 114.667, 823.852 114, 822 114 C 820.381 114, 820 114.667, 820 117.500 C 820 120.917, 819.905 121, 816 121 C 812.095 121, 812 120.917, 812 117.500 C 812 114.644, 811.625 114, 809.961 114 C 808.043 114, 807.939 114.517, 808.211 122.739 M 828 123 C 828 131.333, 828.148 132, 830 132 C 831.822 132, 832 131.333, 832 124.500 L 832 117 836.500 117 C 839.833 117, 841 116.611, 841 115.500 C 841 114.321, 839.611 114, 834.500 114 L 828 114 828 123 M 862 123 L 862 132 868.345 132 C 873.222 132, 875.073 131.577, 876.345 130.171 C 878.404 127.896, 878.455 125.598, 876.492 123.635 C 875.558 122.701, 875.368 121.891, 875.992 121.505 C 877.381 120.647, 877.259 116.659, 875.800 115.200 C 875.121 114.521, 871.867 114, 868.300 114 L 862 114 862 123 M 900.200 115.200 C 898.196 117.204, 898.721 122.780, 901.031 124.017 L 903.062 125.104 901.031 127.956 C 898.517 131.487, 898.503 132, 900.918 132 C 902.032 132, 903.744 130.532, 905 128.500 C 906.190 126.575, 907.801 125, 908.582 125 C 909.536 125, 910 126.145, 910 128.500 C 910 131.333, 910.381 132, 912 132 C 913.852 132, 914 131.333, 914 123 L 914 114 907.700 114 C 904.133 114, 900.879 114.521, 900.200 115.200 M 847.200 117.200 C 845.449 118.951, 845.700 126.558, 847.571 128.429 C 849.491 130.348, 851.053 130.413, 853.433 128.673 C 855.651 127.050, 856.082 120.008, 854.107 117.629 C 852.519 115.716, 848.908 115.492, 847.200 117.200 M 866 118.500 C 866 120.617, 866.465 121, 869.031 121 C 870.888 121, 872.301 120.380, 872.677 119.399 C 873.395 117.528, 871.444 116.037, 868.250 116.015 C 866.513 116.003, 866 116.570, 866 118.500 M 904.692 116.701 C 903.508 117.007, 902.990 117.917, 903.192 119.335 C 903.424 120.966, 904.301 121.577, 906.750 121.813 C 909.778 122.105, 910 121.917, 910 119.063 C 910 115.931, 909.140 115.548, 904.692 116.701 M 888.324 123.799 C 884.185 124.212, 882.104 126.533, 884.092 128.520 C 886.091 130.520, 889.952 129.255, 891.105 126.225 C 892.224 123.282, 892.356 123.398, 888.324 123.799 M 866 126.500 C 866 128.917, 866.292 129.097, 869.750 128.810 C 872.730 128.564, 873.500 128.089, 873.500 126.500 C 873.500 124.911, 872.730 124.436, 869.750 124.190 C 866.292 123.903, 866 124.083, 866 126.500 M 726 155.427 C 726 167.333, 726.106 168, 728 168 C 729.761 168, 730 167.333, 730 162.419 L 730 156.839 735.100 162.419 C 738.671 166.326, 740.945 168, 742.684 168 C 744.994 168, 744.777 167.568, 739.584 161.830 C 736.513 158.436, 734 155.381, 734 155.042 C 734 154.703, 736.250 152.209, 739 149.500 C 741.750 146.791, 744 144.221, 744 143.788 C 744 141.516, 739.844 143.591, 735.462 148.050 L 730.500 153.100 730 148.309 C 729.632 144.786, 729.037 143.429, 727.750 143.185 C 726.159 142.883, 726 143.992, 726 155.427 M 751.091 150.090 C 747.424 151.556, 746.067 154.026, 746.032 159.295 C 745.992 165.346, 749.112 169, 754.320 169 C 764.196 169, 767.445 154.173, 758.397 150.392 C 754.580 148.798, 754.347 148.788, 751.091 150.090 M 766 158.934 C 766 167.333, 766.147 168, 768 168 C 769.763 168, 770.005 167.320, 770.040 162.250 L 770.080 156.500 772.446 162 C 775.670 169.497, 777.819 169.700, 780.697 162.781 L 782.895 157.500 782.947 162.750 C 782.993 167.316, 783.261 168, 785 168 C 786.852 168, 787 167.333, 787 159 C 787 150.190, 786.950 150, 784.622 150 C 782.630 150, 781.878 150.979, 779.992 156.021 C 778.754 159.333, 777.421 162.240, 777.030 162.481 C 776.640 162.723, 775.177 160.126, 773.780 156.710 C 771.673 151.559, 770.793 150.446, 768.620 150.184 L 766 149.867 766 158.934 M 791 159 C 791 167.333, 791.148 168, 793 168 C 794.822 168, 795 167.333, 795 160.500 L 795 153 799 153 L 803 153 803 160.500 C 803 167.333, 803.178 168, 805 168 C 806.852 168, 807 167.333, 807 159 L 807 150 799 150 L 791 150 791 159 M 811.557 152.223 C 810.701 153.445, 810 154.795, 810 155.223 C 810 156.683, 813.784 156.004, 814.386 154.436 C 815.212 152.285, 821.366 152.880, 821.796 155.153 C 822.033 156.402, 821.058 156.980, 817.805 157.519 C 810.987 158.649, 809.842 159.593, 810.194 163.797 C 810.443 166.780, 811.020 167.645, 813.286 168.437 C 815.134 169.083, 816.999 169.061, 818.825 168.372 C 820.666 167.677, 822.315 167.661, 823.799 168.323 C 826.629 169.586, 827.774 168.469, 826.212 165.968 C 825.545 164.901, 825 161.411, 825 158.214 C 825 155.016, 824.460 151.860, 823.800 151.200 C 823.140 150.540, 820.466 150, 817.857 150 C 814.089 150, 812.793 150.457, 811.557 152.223 M 830 159 C 830 167.333, 830.148 168, 832 168 C 833.667 168, 834 167.333, 834 164 L 834 160 838 160 L 842 160 842 164 C 842 167.333, 842.333 168, 844 168 C 845.852 168, 846 167.333, 846 159 C 846 150.667, 845.852 150, 844 150 C 842.381 150, 842 150.667, 842 153.500 C 842 156.917, 841.905 157, 838 157 C 834.095 157, 834 156.917, 834 153.500 C 834 150.667, 833.619 150, 832 150 C 830.148 150, 830 150.667, 830 159 M 850 159 C 850 167.318, 850.151 168, 851.990 168 C 853.301 168, 855.262 166.064, 857.740 162.324 L 861.500 156.648 861.800 162.324 C 862.057 167.182, 862.381 168, 864.050 168 C 865.839 168, 866 167.257, 866 159 C 866 150.874, 865.818 150, 864.129 150 C 862.941 150, 860.756 152.279, 858.138 156.250 L 854.018 162.500 854.009 156.250 C 854.001 150.670, 853.786 150, 852 150 C 850.148 150, 850 150.667, 850 159 M 870.413 152.493 C 868.407 155.554, 869.272 159.997, 872.014 160.714 C 873.830 161.189, 873.794 161.404, 871.350 164.608 L 868.763 168 871.166 168 C 872.775 168, 874.154 167.009, 875.341 165 C 876.343 163.304, 877.958 162, 879.057 162 C 880.549 162, 881 162.696, 881 165 C 881 167.333, 881.444 168, 883 168 C 884.852 168, 885 167.333, 885 159 L 885 150 878.523 150 C 872.723 150, 871.875 150.260, 870.413 152.493 M 751.571 153.571 C 749.700 155.442, 749.449 163.049, 751.200 164.800 C 752.908 166.508, 756.519 166.284, 758.107 164.371 C 760.082 161.992, 759.651 154.950, 757.433 153.327 C 755.053 151.587, 753.491 151.652, 751.571 153.571 M 873.667 153.667 C 872.431 154.903, 872.988 157.781, 874.582 158.393 C 875.452 158.727, 877.252 159, 878.582 159 C 880.602 159, 881 158.506, 881 156 C 881 153.267, 880.704 153, 877.667 153 C 875.833 153, 874.033 153.300, 873.667 153.667 M 816 160.729 C 812.361 162.114, 812.766 166, 816.550 166 C 818.645 166, 822 162.784, 822 160.777 C 822 159.897, 818.265 159.867, 816 160.729" stroke="none" fill="#315071" fill-rule="evenodd"/></svg>