<svg width="420" height="120" version="1.1" xmlns="http://www.w3.org/2000/svg"><path fill="rgb(254,0,0)" stroke="rgb(254,0,0)" stroke-width="1" opacity="1" d="M 82 0 L 211 0 L 211 120 L 0 120 L 0 45 L 82 45 L 82 0 Z M 96 60 Q 94 62 90 61 L 84 64 Q 77 68 75 78 Q 74 89 78 96 Q 83 103 93 105 L 103 105 L 112 101 Q 117 97 119 90 Q 121 77 117 71 Q 112 60 96 60 Z M 18 62 L 18 104 L 19 104 L 27 104 L 28 69 L 36 101 L 37 104 L 51 104 Q 53 85 60 69 L 60 104 L 68 104 L 69 103 L 69 62 L 52 62 L 44 96 L 42 95 L 35 66 L 35 62 L 18 62 Z M 126 62 L 126 104 L 155 104 L 155 96 L 135 96 L 135 86 L 152 86 Q 154 80 151 78 L 150 79 L 135 79 L 135 69 L 155 69 L 155 63 L 155 62 L 126 62 Z M 162 62 L 173 81 L 173 83 L 160 103 L 161 104 L 169 104 L 179 88 L 188 103 L 190 104 L 198 104 L 184 82 L 197 64 L 197 62 L 189 62 L 180 76 L 171 64 L 171 62 L 162 62 Z "></path><path fill="rgb(254,0,0)" stroke="rgb(254,0,0)" stroke-width="1" opacity="1" d="M 229 62 L 236 62 L 236 66.5 Q 238.6 69.4 238 75.5 L 239.5 77 L 243 62 L 249 62 L 249 79 L 246 78.5 L 246 65.5 L 245 65.5 L 242 79 L 236 79 L 236 75.5 Q 233.4 72.6 234 66.5 L 232.5 65 L 232 79 L 229 78.5 L 229 62 Z "></path><path fill="rgb(254,0,0)" stroke="rgb(254,0,0)" stroke-width="1" opacity="1" d="M 257.5 62 Q 267.6 60.4 270 66.5 L 271 71.5 L 266.5 79 L 259.5 80 L 253 75.5 L 252 68.5 L 255.5 63 L 257.5 62 Z M 260 64 L 255 70 L 256 75 Q 258 79 265 77 Q 268 75 267 68 Q 266 63 260 64 Z "></path><path fill="rgb(254,0,0)" stroke="rgb(254,0,0)" stroke-width="1" opacity="1" d="M 279.5 62 Q 286.8 60.8 289 64.5 Q 290.3 68.3 286.5 67 L 281.5 64 L 277 67.5 L 276 70.5 L 280.5 77 Q 285 78 286 75.5 Q 285.1 72.5 289.5 74 L 289 75.5 L 286.5 79 L 280.5 80 L 274 75.5 L 273 70.5 L 276 64 L 279.5 62 Z "></path><path fill="rgb(254,0,0)" stroke="rgb(254,0,0)" stroke-width="1" opacity="1" d="M 293 62 L 296 62 L 296 69 L 298.5 69 L 304.5 62 L 308 62.5 L 302 70.5 L 308 78.5 L 304.5 79 L 297.5 71 Q 294.3 72.9 296 79 L 293 78.5 L 293 62 Z "></path><path fill="rgb(254,0,0)" stroke="rgb(254,0,0)" stroke-width="1" opacity="1" d="M 314.5 62 Q 325 60 327 66.5 L 328 73.5 L 323.5 79 L 316.5 80 L 311 76.5 Q 308.7 73.3 310 66.5 L 314.5 62 Z M 318 64 L 316 65 L 312 71 L 314 76 Q 316 78 322 77 L 325 73 L 324 68 Q 323 63 318 64 Z "></path><path fill="rgb(254,0,0)" stroke="rgb(254,0,0)" stroke-width="1" opacity="1" d="M 331 62 L 341.5 62 L 345 64.5 Q 346 69.5 343 70.5 Q 346 71.5 345 76.5 L 344 79 L 331 79 L 331 62 Z M 334 65 L 334 69 L 338 70 L 342 69 L 342 65 L 334 65 Z M 334 72 L 334 77 L 341 77 L 343 74 L 342 72 L 334 72 Z "></path><path fill="rgb(254,0,0)" stroke="rgb(254,0,0)" stroke-width="1" opacity="1" d="M 354.5 62 Q 361.8 60.8 364 64.5 Q 365.3 68.3 361.5 67 Q 360.5 63 354.5 64 Q 349.7 65.3 351 72.5 L 354.5 77 Q 359.8 78.3 361 75.5 Q 360.1 72.5 364.5 74 L 364 75.5 L 361.5 79 L 355.5 80 L 348 74.5 L 348 69.5 L 352.5 63 L 354.5 62 Z "></path><path fill="rgb(254,0,0)" stroke="rgb(254,0,0)" stroke-width="1" opacity="1" d="M 368 62 L 371 62 L 371 69 L 373.5 69 L 379.5 62 L 383 62.5 L 376 70.5 L 383 78.5 L 379.5 79 L 372.5 71 Q 369.3 72.9 371 79 L 368 78.5 L 368 62 Z "></path><path fill="rgb(254,0,0)" stroke="rgb(254,0,0)" stroke-width="1" opacity="1" d="M 391 62 L 397 62 L 397 64.5 L 402 79 Q 397.9 80.7 399 76.5 Q 397.3 73.3 390.5 75 L 389 79 Q 384.9 80.7 386 76.5 L 391 62 Z M 393 65 L 391 72 L 397 72 L 395 68 Q 396 64 393 65 Z "></path><path fill="rgb(254,0,0)" stroke="rgb(254,0,0)" stroke-width="1" opacity="1" d="M 409.5 62 L 420 62 L 420 79 L 417 79 L 417 73 L 414.5 73 L 412.5 73 L 409 74.5 Q 411.2 80.8 405.5 79 L 406 77.5 Q 405.4 72.9 408 71.5 Q 404.8 70.3 406 64.5 L 409.5 62 Z M 409 65 L 409 69 L 411 70 L 417 70 L 417 65 L 409 65 Z "></path><path fill="rgb(254,0,0)" stroke="rgb(254,0,0)" stroke-width="1" opacity="1" d="M 95.5 68 Q 105.6 67.9 109 74.5 Q 111.2 79.3 110 87.5 L 105.5 95 Q 101.8 98.3 93.5 97 L 86 91.5 Q 82.9 87.1 84 78.5 Q 85.3 72.8 89.5 70 L 95.5 68 Z "></path><path fill="rgb(254,0,0)" stroke="rgb(254,0,0)" stroke-width="1" opacity="1" d="M 229 86 L 242.5 86 L 243 88 L 232 88 L 232 91.5 L 233.5 93 L 241.5 93 L 243 94.5 L 244 98.5 L 240.5 103 L 229 103 L 229 86 Z M 232 95 L 232 101 L 239 100 Q 241 101 240 97 Q 238 93 232 95 Z "></path><path fill="rgb(254,0,0)" stroke="rgb(254,0,0)" stroke-width="1" opacity="1" d="M 246 86 L 250 86.5 L 250 100.5 L 251 100.5 L 255 86 L 262 86 L 262 103 L 259 103 L 259 89.5 L 257 89 L 253 103 L 246 103 L 246 86 Z "></path><path fill="rgb(254,0,0)" stroke="rgb(254,0,0)" stroke-width="1" opacity="1" d="M 266 86 L 275.5 86 L 280 89.5 Q 281 96 276.5 97 L 271.5 98 L 269 97 L 269 103 L 266 103 L 266 86 Z M 269 88 L 269 95 L 276 95 Q 278 94 277 91 Q 274 87 269 88 Z "></path><path fill="rgb(254,0,0)" stroke="rgb(254,0,0)" stroke-width="1" opacity="1" d="M 281.5 86 Q 286.3 85.3 287 88.5 L 289.5 93 L 291 92.5 L 291 86 L 294 86 L 294 93 L 297 93 L 300 86 L 304 86.5 L 299 94.5 L 304 102.5 L 301.5 103 L 295.5 95 Q 292.3 96.9 294 103 L 291 103 L 291 95.5 L 288 97.5 L 284.5 103 L 281 102.5 L 287 94.5 L 281.5 86 Z "></path><path fill="rgb(254,0,0)" stroke="rgb(254,0,0)" stroke-width="1" opacity="1" d="M 312 86 L 318 86 L 318 88.5 L 323 103 Q 319.2 104.5 320 101.5 L 319 99 L 310.5 99 L 310 101.5 L 306.5 103 L 307 101.5 L 312 86 Z M 315 88 L 312 96 L 318 96 L 315 88 Z "></path><path fill="rgb(254,127,127)" stroke="rgb(254,127,127)" stroke-width="1" opacity="1" d="M 81.5 0 L 82 44.5 L 81 44.5 L 81.5 0 Z "></path><path fill="rgb(254,127,127)" stroke="rgb(254,127,127)" stroke-width="1" opacity="1" d="M 95.5 60 L 100 60.5 L 95.5 61 L 95.5 60 Z "></path><path fill="rgb(254,127,127)" stroke="rgb(254,127,127)" stroke-width="1" opacity="1" d="M 259.5 61 L 263 61.5 L 259.5 62 L 259.5 61 Z "></path><path fill="rgb(254,127,127)" stroke="rgb(254,127,127)" stroke-width="1" opacity="1" d="M 281.5 61 L 285 61.5 L 281.5 62 L 281.5 61 Z "></path><path fill="rgb(254,127,127)" stroke="rgb(254,127,127)" stroke-width="1" opacity="1" d="M 316.5 61 L 321 61.5 L 316.5 62 L 316.5 61 Z "></path><path fill="rgb(254,127,127)" stroke="rgb(254,127,127)" stroke-width="1" opacity="1" d="M 356.5 61 L 360 61.5 L 356.5 62 L 356.5 61 Z "></path><path fill="rgb(254,127,127)" stroke="rgb(254,127,127)" stroke-width="1" opacity="1" d="M 18.5 62 L 19 103 L 27 103.5 L 18 104 L 18.5 62 Z "></path><path fill="rgb(254,127,127)" stroke="rgb(254,127,127)" stroke-width="1" opacity="1" d="M 68.5 62 L 69 102.5 Q 67.3 105.8 60.5 104 L 60.5 103 L 67.5 103 L 68 102.5 L 68.5 62 Z "></path><path fill="rgb(254,127,127)" stroke="rgb(254,127,127)" stroke-width="1" opacity="1" d="M 154.5 62 L 155 68.5 L 154 68.5 L 154.5 62 Z "></path><path fill="rgb(254,127,127)" stroke="rgb(254,127,127)" stroke-width="1" opacity="1" d="M 249.5 62 L 250 78.5 L 246.5 80 L 246.5 79 L 249 78.5 L 249.5 62 Z "></path><path fill="rgb(254,127,127)" stroke="rgb(254,127,127)" stroke-width="1" opacity="1" d="M 296.5 62 L 297 68.5 L 296 68.5 L 296.5 62 Z "></path><path fill="rgb(254,127,127)" stroke="rgb(254,127,127)" stroke-width="1" opacity="1" d="M 308.5 62 L 305.5 66 L 308.5 62 Z "></path><path fill="rgb(254,127,127)" stroke="rgb(254,127,127)" stroke-width="1" opacity="1" d="M 371.5 62 L 372 68.5 L 371 68.5 L 371.5 62 Z "></path><path fill="rgb(254,127,127)" stroke="rgb(254,127,127)" stroke-width="1" opacity="1" d="M 383.5 62 L 379.5 67 L 383.5 62 Z "></path><path fill="rgb(254,127,127)" stroke="rgb(254,127,127)" stroke-width="1" opacity="1" d="M 196.5 63 L 195.5 65 L 196.5 63 Z "></path><path fill="rgb(254,127,127)" stroke="rgb(254,127,127)" stroke-width="1" opacity="1" d="M 267.5 63 L 268.5 65 L 267.5 63 Z "></path><path fill="rgb(254,127,127)" stroke="rgb(254,127,127)" stroke-width="1" opacity="1" d="M 312.5 63 L 311.5 65 L 312.5 63 Z "></path><path fill="rgb(254,127,127)" stroke="rgb(254,127,127)" stroke-width="1" opacity="1" d="M 324.5 63 L 326.5 66 L 324.5 63 Z "></path><path fill="rgb(254,127,127)" stroke="rgb(254,127,127)" stroke-width="1" opacity="1" d="M 83.5 64 L 82.5 66 L 83.5 64 Z "></path><path fill="rgb(254,127,127)" stroke="rgb(254,127,127)" stroke-width="1" opacity="1" d="M 259.5 64 L 263 64.5 L 259.5 65 L 259.5 64 Z "></path><path fill="rgb(254,127,127)" stroke="rgb(254,127,127)" stroke-width="1" opacity="1" d="M 317.5 64 L 321 64.5 L 317.5 65 L 317.5 64 Z "></path><path fill="rgb(254,127,127)" stroke="rgb(254,127,127)" stroke-width="1" opacity="1" d="M 377.5 64 L 373.5 69 L 377.5 64 Z "></path><path fill="rgb(254,127,127)" stroke="rgb(254,127,127)" stroke-width="1" opacity="1" d="M 275.5 65 L 274.5 67 L 275.5 65 Z "></path><path fill="rgb(254,127,127)" stroke="rgb(254,127,127)" stroke-width="1" opacity="1" d="M 301.5 65 L 298.5 69 L 301.5 65 Z "></path><path fill="rgb(254,127,127)" stroke="rgb(254,127,127)" stroke-width="1" opacity="1" d="M 405.5 65 L 406 68.5 L 405 68.5 L 405.5 65 Z "></path><path fill="rgb(254,127,127)" stroke="rgb(254,127,127)" stroke-width="1" opacity="1" d="M 416.5 65 L 417 69.5 L 416 69.5 L 416.5 65 Z "></path><path fill="rgb(254,127,127)" stroke="rgb(254,127,127)" stroke-width="1" opacity="1" d="M 185.5 66 L 184.5 68 L 185.5 66 Z "></path><path fill="rgb(254,127,127)" stroke="rgb(254,127,127)" stroke-width="1" opacity="1" d="M 194.5 66 L 193.5 68 L 194.5 66 Z "></path><path fill="rgb(254,127,127)" stroke="rgb(254,127,127)" stroke-width="1" opacity="1" d="M 233.5 66 L 234 67.5 L 233 68.5 L 233 78.5 L 231.5 80 L 229 79.5 L 232 79 L 232 67.5 L 233.5 66 Z "></path><path fill="rgb(254,127,127)" stroke="rgb(254,127,127)" stroke-width="1" opacity="1" d="M 241.5 66 L 242 68.5 L 241 68.5 L 241.5 66 Z "></path><path fill="rgb(254,127,127)" stroke="rgb(254,127,127)" stroke-width="1" opacity="1" d="M 80.5 67 L 79.5 69 L 80.5 67 Z "></path><path fill="rgb(254,127,127)" stroke="rgb(254,127,127)" stroke-width="1" opacity="1" d="M 351.5 67 L 352 72.5 L 351 72.5 L 351.5 67 Z "></path><path fill="rgb(254,127,127)" stroke="rgb(254,127,127)" stroke-width="1" opacity="1" d="M 309.5 68 L 310 72.5 L 309 72.5 L 309.5 68 Z "></path><path fill="rgb(254,127,127)" stroke="rgb(254,127,127)" stroke-width="1" opacity="1" d="M 115.5 69 L 116.5 71 L 115.5 69 Z "></path><path fill="rgb(254,127,127)" stroke="rgb(254,127,127)" stroke-width="1" opacity="1" d="M 134.5 69 L 135 78.5 L 134 78.5 L 134.5 69 Z "></path><path fill="rgb(254,127,127)" stroke="rgb(254,127,127)" stroke-width="1" opacity="1" d="M 174.5 69 L 175.5 71 L 174.5 69 Z "></path><path fill="rgb(254,127,127)" stroke="rgb(254,127,127)" stroke-width="1" opacity="1" d="M 255.5 69 L 256 72.5 L 255 72.5 L 255.5 69 Z "></path><path fill="rgb(254,127,127)" stroke="rgb(254,127,127)" stroke-width="1" opacity="1" d="M 324.5 69 L 325 72.5 L 324 72.5 L 324.5 69 Z "></path><path fill="rgb(254,127,127)" stroke="rgb(254,127,127)" stroke-width="1" opacity="1" d="M 105.5 70 L 107.5 73 L 105.5 70 Z "></path><path fill="rgb(254,127,127)" stroke="rgb(254,127,127)" stroke-width="1" opacity="1" d="M 376.5 70 L 378.5 73 L 376.5 70 Z "></path><path fill="rgb(254,127,127)" stroke="rgb(254,127,127)" stroke-width="1" opacity="1" d="M 297.5 71 L 297 72.5 L 297 80 L 293.5 80 L 293.5 79 L 296 79 L 296 72.5 L 297.5 71 Z "></path><path fill="rgb(254,127,127)" stroke="rgb(254,127,127)" stroke-width="1" opacity="1" d="M 372.5 71 L 372 72.5 L 372 80 L 368.5 80 L 368.5 79 L 371 79 L 371 72.5 L 372.5 71 Z "></path><path fill="rgb(254,127,127)" stroke="rgb(254,127,127)" stroke-width="1" opacity="1" d="M 303.5 72 L 304.5 74 L 303.5 72 Z "></path><path fill="rgb(254,127,127)" stroke="rgb(254,127,127)" stroke-width="1" opacity="1" d="M 341.5 72 L 343 74.5 L 342 74.5 L 341.5 72 Z "></path><path fill="rgb(254,127,127)" stroke="rgb(254,127,127)" stroke-width="1" opacity="1" d="M 345.5 73 L 346 75.5 L 345 75.5 L 345.5 73 Z "></path><path fill="rgb(254,127,127)" stroke="rgb(254,127,127)" stroke-width="1" opacity="1" d="M 416.5 73 L 417 79 L 420 79.5 L 416 80 L 416.5 73 Z "></path><path fill="rgb(254,127,127)" stroke="rgb(254,127,127)" stroke-width="1" opacity="1" d="M 238.5 74 L 240 76.5 L 238 75.5 L 238.5 74 Z "></path><path fill="rgb(254,127,127)" stroke="rgb(254,127,127)" stroke-width="1" opacity="1" d="M 256.5 74 L 258.5 77 L 256.5 74 Z "></path><path fill="rgb(254,127,127)" stroke="rgb(254,127,127)" stroke-width="1" opacity="1" d="M 352.5 74 L 354.5 77 L 352.5 74 Z "></path><path fill="rgb(254,127,127)" stroke="rgb(254,127,127)" stroke-width="1" opacity="1" d="M 375.5 74 L 376.5 76 L 375.5 74 Z "></path><path fill="rgb(254,127,127)" stroke="rgb(254,127,127)" stroke-width="1" opacity="1" d="M 169.5 75 L 170.5 77 L 169.5 75 Z "></path><path fill="rgb(254,127,127)" stroke="rgb(254,127,127)" stroke-width="1" opacity="1" d="M 265.5 75 L 264.5 77 L 265.5 75 Z "></path><path fill="rgb(254,127,127)" stroke="rgb(254,127,127)" stroke-width="1" opacity="1" d="M 285.5 75 L 284.5 77 L 285.5 75 Z "></path><path fill="rgb(254,127,127)" stroke="rgb(254,127,127)" stroke-width="1" opacity="1" d="M 301.5 75 L 302.5 77 L 301.5 75 Z "></path><path fill="rgb(254,127,127)" stroke="rgb(254,127,127)" stroke-width="1" opacity="1" d="M 360.5 75 L 359.5 77 L 360.5 75 Z "></path><path fill="rgb(254,127,127)" stroke="rgb(254,127,127)" stroke-width="1" opacity="1" d="M 380.5 75 L 381.5 77 L 380.5 75 Z "></path><path fill="rgb(254,127,127)" stroke="rgb(254,127,127)" stroke-width="1" opacity="1" d="M 405.5 75 L 406 77.5 L 405 77.5 L 405.5 75 Z "></path><path fill="rgb(254,127,127)" stroke="rgb(254,127,127)" stroke-width="1" opacity="1" d="M 274.5 76 L 275.5 78 L 274.5 76 Z "></path><path fill="rgb(254,127,127)" stroke="rgb(254,127,127)" stroke-width="1" opacity="1" d="M 306.5 76 L 307.5 78 L 306.5 76 Z "></path><path fill="rgb(254,127,127)" stroke="rgb(254,127,127)" stroke-width="1" opacity="1" d="M 326.5 76 L 324.5 79 L 326.5 76 Z "></path><path fill="rgb(254,127,127)" stroke="rgb(254,127,127)" stroke-width="1" opacity="1" d="M 349.5 76 L 351.5 79 L 349.5 76 Z "></path><path fill="rgb(254,127,127)" stroke="rgb(254,127,127)" stroke-width="1" opacity="1" d="M 75.5 77 L 76 79.5 L 75 79.5 L 75.5 77 Z "></path><path fill="rgb(254,127,127)" stroke="rgb(254,127,127)" stroke-width="1" opacity="1" d="M 242.5 77 L 243 78.5 Q 241.8 81.3 236.5 80 L 236.5 79 Q 242.9 81 242.5 77 Z "></path><path fill="rgb(254,127,127)" stroke="rgb(254,127,127)" stroke-width="1" opacity="1" d="M 402.5 77 L 403 80 L 399 79.5 L 402 79 L 402.5 77 Z "></path><path fill="rgb(254,127,127)" stroke="rgb(254,127,127)" stroke-width="1" opacity="1" d="M 171.5 78 L 172.5 80 L 171.5 78 Z "></path><path fill="rgb(254,127,127)" stroke="rgb(254,127,127)" stroke-width="1" opacity="1" d="M 385.5 78 L 389 79.5 L 385 80 L 385.5 78 Z "></path><path fill="rgb(254,127,127)" stroke="rgb(254,127,127)" stroke-width="1" opacity="1" d="M 110.5 79 L 111 85.5 L 110 85.5 L 110.5 79 Z "></path><path fill="rgb(254,127,127)" stroke="rgb(254,127,127)" stroke-width="1" opacity="1" d="M 305.5 79 L 309 79.5 L 305.5 80 L 305.5 79 Z "></path><path fill="rgb(254,127,127)" stroke="rgb(254,127,127)" stroke-width="1" opacity="1" d="M 331.5 79 L 343 79.5 L 331.5 80 L 331.5 79 Z "></path><path fill="rgb(254,127,127)" stroke="rgb(254,127,127)" stroke-width="1" opacity="1" d="M 379.5 79 L 384 79.5 L 379.5 80 L 379.5 79 Z "></path><path fill="rgb(254,127,127)" stroke="rgb(254,127,127)" stroke-width="1" opacity="1" d="M 405.5 79 L 409 79.5 L 405.5 80 L 405.5 79 Z "></path><path fill="rgb(254,127,127)" stroke="rgb(254,127,127)" stroke-width="1" opacity="1" d="M 184.5 82 L 185.5 84 L 184.5 82 Z "></path><path fill="rgb(254,127,127)" stroke="rgb(254,127,127)" stroke-width="1" opacity="1" d="M 172.5 83 L 171.5 85 L 172.5 83 Z "></path><path fill="rgb(254,127,127)" stroke="rgb(254,127,127)" stroke-width="1" opacity="1" d="M 75.5 85 L 76 87.5 L 75 87.5 L 75.5 85 Z "></path><path fill="rgb(254,127,127)" stroke="rgb(254,127,127)" stroke-width="1" opacity="1" d="M 134.5 86 L 135 95.5 L 134 95.5 L 134.5 86 Z "></path><path fill="rgb(254,127,127)" stroke="rgb(254,127,127)" stroke-width="1" opacity="1" d="M 265.5 86 L 266 103 L 269 103.5 L 266.5 104 L 265 102.5 L 265.5 86 Z "></path><path fill="rgb(254,127,127)" stroke="rgb(254,127,127)" stroke-width="1" opacity="1" d="M 294.5 86 L 295 92.5 L 294 92.5 L 294.5 86 Z "></path><path fill="rgb(254,127,127)" stroke="rgb(254,127,127)" stroke-width="1" opacity="1" d="M 178.5 87 L 179.5 89 L 178.5 87 Z "></path><path fill="rgb(254,127,127)" stroke="rgb(254,127,127)" stroke-width="1" opacity="1" d="M 278.5 87 L 279.5 89 L 278.5 87 Z "></path><path fill="rgb(254,127,127)" stroke="rgb(254,127,127)" stroke-width="1" opacity="1" d="M 232 88 L 243 88.5 L 233 89 L 233 92 L 240.5 92 L 240.5 93 Q 233.8 94.8 232 91.5 L 232 88 Z "></path><path fill="rgb(254,127,127)" stroke="rgb(254,127,127)" stroke-width="1" opacity="1" d="M 269.5 88 L 273 88.5 L 269.5 89 L 269.5 88 Z "></path><path fill="rgb(254,127,127)" stroke="rgb(254,127,127)" stroke-width="1" opacity="1" d="M 282.5 88 L 283.5 90 L 282.5 88 Z "></path><path fill="rgb(254,127,127)" stroke="rgb(254,127,127)" stroke-width="1" opacity="1" d="M 314.5 88 L 315.5 90 L 314.5 88 Z "></path><path fill="rgb(254,127,127)" stroke="rgb(254,127,127)" stroke-width="1" opacity="1" d="M 177.5 89 L 176.5 91 L 177.5 89 Z "></path><path fill="rgb(254,127,127)" stroke="rgb(254,127,127)" stroke-width="1" opacity="1" d="M 257.5 89 L 259 89.5 L 259 102.5 L 261.5 103 L 261.5 104 L 258 102.5 L 258 90.5 L 257.5 89 Z "></path><path fill="rgb(254,127,127)" stroke="rgb(254,127,127)" stroke-width="1" opacity="1" d="M 275.5 89 L 276.5 91 L 275.5 89 Z "></path><path fill="rgb(254,127,127)" stroke="rgb(254,127,127)" stroke-width="1" opacity="1" d="M 301.5 90 L 300.5 92 L 301.5 90 Z "></path><path fill="rgb(254,127,127)" stroke="rgb(254,127,127)" stroke-width="1" opacity="1" d="M 288.5 91 L 289.5 93 L 288.5 91 Z "></path><path fill="rgb(254,127,127)" stroke="rgb(254,127,127)" stroke-width="1" opacity="1" d="M 86.5 92 L 88.5 95 L 86.5 92 Z "></path><path fill="rgb(254,127,127)" stroke="rgb(254,127,127)" stroke-width="1" opacity="1" d="M 182.5 93 L 183.5 95 L 182.5 93 Z "></path><path fill="rgb(254,127,127)" stroke="rgb(254,127,127)" stroke-width="1" opacity="1" d="M 191.5 93 L 192.5 95 L 191.5 93 Z "></path><path fill="rgb(254,127,127)" stroke="rgb(254,127,127)" stroke-width="1" opacity="1" d="M 276.5 93 L 275.5 95 L 274 94.5 L 276.5 93 Z "></path><path fill="rgb(254,127,127)" stroke="rgb(254,127,127)" stroke-width="1" opacity="1" d="M 279.5 94 L 277.5 97 L 279.5 94 Z "></path><path fill="rgb(254,127,127)" stroke="rgb(254,127,127)" stroke-width="1" opacity="1" d="M 286.5 94 L 285.5 96 L 286.5 94 Z "></path><path fill="rgb(254,127,127)" stroke="rgb(254,127,127)" stroke-width="1" opacity="1" d="M 232.5 95 L 233 100 L 238 100.5 L 232 101 L 232.5 95 Z "></path><path fill="rgb(254,127,127)" stroke="rgb(254,127,127)" stroke-width="1" opacity="1" d="M 295.5 95 L 297.5 98 L 295 96.5 Q 296.5 102.5 293.5 104 L 291 103.5 L 294 103 L 294 96.5 L 295.5 95 Z "></path><path fill="rgb(254,127,127)" stroke="rgb(254,127,127)" stroke-width="1" opacity="1" d="M 154.5 96 L 155 104 L 126 103.5 L 154 103 L 154.5 96 Z "></path><path fill="rgb(254,127,127)" stroke="rgb(254,127,127)" stroke-width="1" opacity="1" d="M 114.5 97 L 111.5 101 L 114.5 97 Z "></path><path fill="rgb(254,127,127)" stroke="rgb(254,127,127)" stroke-width="1" opacity="1" d="M 273.5 97 L 276 97.5 L 273.5 98 L 273.5 97 Z "></path><path fill="rgb(254,127,127)" stroke="rgb(254,127,127)" stroke-width="1" opacity="1" d="M 301.5 98 L 302.5 100 L 301.5 98 Z "></path><path fill="rgb(254,127,127)" stroke="rgb(254,127,127)" stroke-width="1" opacity="1" d="M 161.5 101 L 161.5 103 Q 167.8 104.8 169.5 102 L 168.5 104 L 160.5 104 L 160 102.5 L 161.5 101 Z "></path><path fill="rgb(254,127,127)" stroke="rgb(254,127,127)" stroke-width="1" opacity="1" d="M 242.5 101 L 241.5 103 L 242.5 101 Z "></path><path fill="rgb(254,127,127)" stroke="rgb(254,127,127)" stroke-width="1" opacity="1" d="M 299.5 101 L 303.5 103 L 303.5 101 L 305 104 Q 299.5 105 299.5 101 Z "></path><path fill="rgb(254,127,127)" stroke="rgb(254,127,127)" stroke-width="1" opacity="1" d="M 50.5 102 L 51 104 L 36 103.5 L 49.5 103 L 50.5 102 Z "></path><path fill="rgb(254,127,127)" stroke="rgb(254,127,127)" stroke-width="1" opacity="1" d="M 188.5 102 Q 190.2 104.8 196.5 103 L 198 102.5 L 197.5 104 L 189.5 104 L 188.5 102 Z "></path><path fill="rgb(254,127,127)" stroke="rgb(254,127,127)" stroke-width="1" opacity="1" d="M 285.5 102 L 284.5 104 L 281 103.5 L 285.5 102 Z "></path><path fill="rgb(254,127,127)" stroke="rgb(254,127,127)" stroke-width="1" opacity="1" d="M 309.5 102 L 308.5 104 L 306 103.5 L 309.5 102 Z "></path><path fill="rgb(254,127,127)" stroke="rgb(254,127,127)" stroke-width="1" opacity="1" d="M 323.5 102 L 324 104 L 320 103.5 L 323.5 102 Z "></path><path fill="rgb(254,127,127)" stroke="rgb(254,127,127)" stroke-width="1" opacity="1" d="M 229.5 103 L 240 103.5 L 229.5 104 L 229.5 103 Z "></path><path fill="rgb(254,127,127)" stroke="rgb(254,127,127)" stroke-width="1" opacity="1" d="M 246.5 103 L 253 103.5 L 246.5 104 L 246.5 103 Z "></path><path fill="rgb(254,127,127)" stroke="rgb(254,127,127)" stroke-width="1" opacity="1" d="M 92.5 104 L 95 104.5 L 92.5 105 L 92.5 104 Z "></path><path fill="rgb(254,127,127)" stroke="rgb(254,127,127)" stroke-width="1" opacity="1" d="M 100.5 104 L 103 104.5 L 100.5 105 L 100.5 104 Z "></path><path fill="rgb(254,254,254)" stroke="rgb(254,254,254)" stroke-width="1" opacity="1" d="M 0 0 L 81 0 L 81 45 L 0 45 L 0 0 Z "></path><path fill="rgb(254,254,254)" stroke="rgb(254,254,254)" stroke-width="1" opacity="1" d="M 211 0 L 419.5 0 L 420 0.5 L 420 62 L 408.5 62 L 405 65.5 Q 404.2 70.7 408 71.5 Q 403.9 73.8 405 80 Q 411 82.3 409 75.5 L 410 73 L 416 73 L 416 80 L 420 80.5 L 420 120 L 211 120 L 211 0 Z M 260 61 L 257 62 L 252 68 L 252 75 L 254 78 L 258 80 L 267 79 L 271 74 Q 272 67 269 65 Q 266 61 260 61 Z M 282 61 L 278 63 L 273 69 L 274 77 L 280 80 L 286 80 L 289 78 L 290 74 Q 285 73 284 77 L 280 76 Q 276 74 277 68 Q 278 64 285 65 L 286 68 L 288 67 Q 291 68 290 66 Q 288 61 282 61 Z M 317 61 L 313 63 L 309 69 L 310 76 L 316 80 L 325 79 L 328 75 L 327 66 L 321 61 L 317 61 Z M 357 61 L 354 62 L 348 69 L 349 77 L 354 80 L 362 79 L 365 74 L 362 74 Q 361 78 356 77 Q 350 75 352 67 L 357 64 L 360 65 L 361 68 L 363 67 Q 366 68 365 66 Q 363 61 357 61 Z M 229 62 L 229 64 L 229 80 L 232 80 L 233 79 L 234 68 L 236 78 L 236 80 L 242 80 L 243 79 L 246 65 L 246 80 L 250 79 L 250 62 L 242 62 L 240 76 L 236 65 L 236 62 L 229 62 Z M 293 62 L 293 80 L 297 80 L 297 73 L 299 72 L 306 80 L 309 80 L 302 71 L 309 63 L 305 62 L 297 69 L 297 62 L 293 62 Z M 331 62 L 331 80 L 343 80 L 346 76 Q 347 71 343 71 Q 346 70 345 65 L 343 62 L 331 62 Z M 368 62 L 368 80 L 372 80 L 372 73 L 374 72 L 379 80 L 384 80 L 377 71 L 384 63 L 380 62 L 372 69 L 372 62 L 368 62 Z M 391 62 L 385 79 L 385 80 L 389 80 L 390 77 L 391 75 L 398 75 L 399 79 L 399 80 L 403 80 L 397 64 L 397 62 L 391 62 Z M 282 85 Q 281 90 286 94 L 281 103 Q 280 106 285 104 L 289 96 L 291 97 L 291 104 L 294 104 L 295 103 L 296 96 L 299 102 Q 300 105 305 104 L 299 95 L 304 88 Q 305 85 301 86 L 297 92 L 295 93 L 295 86 L 291 86 L 291 93 L 286 86 L 282 85 Z M 229 86 L 229 104 L 240 104 L 242 103 Q 245 101 244 96 Q 242 90 233 92 L 234 89 L 243 89 L 243 86 L 229 86 Z M 246 86 L 246 104 L 253 104 L 258 90 L 258 103 L 262 104 L 262 86 L 255 86 L 251 100 L 250 100 L 250 87 L 246 86 Z M 265 86 L 265 103 L 267 104 L 269 104 L 269 98 L 278 97 L 281 93 L 280 89 L 277 86 L 265 86 Z M 313 86 L 306 102 Q 305 105 309 104 L 311 101 L 312 99 L 319 99 L 320 103 L 320 104 L 324 104 L 318 88 Q 319 85 313 86 Z "></path><path fill="rgb(254,254,254)" stroke="rgb(254,254,254)" stroke-width="1" opacity="1" d="M 91.5 61 Q 109 59 115 68.5 L 119 77.5 L 119 87.5 Q 117.3 96.8 110.5 101 Q 105.2 105.2 95.5 105 L 83.5 101 L 79 96.5 Q 75 90.5 75 80.5 L 77 72.5 L 81 66 L 91.5 61 Z M 94 68 L 87 71 L 84 78 Q 82 88 86 93 L 92 97 L 97 98 L 105 96 Q 110 93 111 86 Q 112 77 108 73 Q 105 66 94 68 Z "></path><path fill="rgb(254,254,254)" stroke="rgb(254,254,254)" stroke-width="1" opacity="1" d="M 19 62 L 33.5 62 L 34 63.5 L 42 96 L 45 94.5 L 52 63.5 L 53.5 62 L 68 62 L 68 103 L 60.5 103 L 60 102.5 L 60 69.5 L 58 69 L 51 101.5 L 49.5 103 L 36.5 103 L 36 99.5 L 29 70.5 L 27.5 69 L 27 103 L 19.5 103 L 19 102.5 L 19 62 Z "></path><path fill="rgb(254,254,254)" stroke="rgb(254,254,254)" stroke-width="1" opacity="1" d="M 126 62 L 153.5 62 L 154 62.5 L 154 69 L 134 69 L 134 79 L 152 79 L 152 86 L 134 86 L 134 96 L 154 96 L 154 103 L 126 103 L 126 62 Z "></path><path fill="rgb(254,254,254)" stroke="rgb(254,254,254)" stroke-width="1" opacity="1" d="M 161.5 62 L 169.5 62 L 171 63.5 L 178 76 L 181 74.5 L 188.5 62 L 197 62.5 L 184 82.5 L 197 103 L 189.5 103 L 187 100.5 L 178.5 87 L 168.5 103 L 161 102.5 L 174 81.5 L 161.5 62 Z "></path><path fill="rgb(254,254,254)" stroke="rgb(254,254,254)" stroke-width="1" opacity="1" d="M 258.5 65 Q 264.5 63.5 266 66.5 L 267 73.5 Q 266 78 259.5 77 Q 254.5 75.5 256 67.5 L 258.5 65 Z "></path><path fill="rgb(254,254,254)" stroke="rgb(254,254,254)" stroke-width="1" opacity="1" d="M 315.5 65 Q 322.5 63.5 324 67.5 Q 324.8 73.6 323 76 L 317.5 77 L 313 73.5 Q 312 67 315.5 65 Z "></path><path fill="rgb(254,254,254)" stroke="rgb(254,254,254)" stroke-width="1" opacity="1" d="M 334 65 Q 340.1 63.3 342 66.5 L 340.5 69 L 334 69 L 334 65 Z "></path><path fill="rgb(254,254,254)" stroke="rgb(254,254,254)" stroke-width="1" opacity="1" d="M 393.5 65 L 396 72 L 391 71.5 L 393.5 65 Z "></path><path fill="rgb(254,254,254)" stroke="rgb(254,254,254)" stroke-width="1" opacity="1" d="M 410.5 65 Q 418.8 62.5 416 70 L 409 69 L 410.5 65 Z "></path><path fill="rgb(254,254,254)" stroke="rgb(254,254,254)" stroke-width="1" opacity="1" d="M 334 72 Q 340.1 70.3 342 73.5 Q 343.1 76.8 340.5 76 L 335.5 77 Q 333 75.8 334 72 Z "></path><path fill="rgb(254,254,254)" stroke="rgb(254,254,254)" stroke-width="1" opacity="1" d="M 269 89 Q 275.3 87.5 277 91.5 L 275.5 94 L 269 95 L 269 89 Z "></path><path fill="rgb(254,254,254)" stroke="rgb(254,254,254)" stroke-width="1" opacity="1" d="M 314.5 89 L 317 96 L 312 95.5 L 314.5 89 Z "></path><path fill="rgb(254,254,254)" stroke="rgb(254,254,254)" stroke-width="1" opacity="1" d="M 233 95 L 240 96 L 240 100 L 233 100 L 233 95 Z "></path></svg>