<?xml version="1.0" standalone="no"?>
<!DOCTYPE svg PUBLIC "-//W3C//DTD SVG 20010904//EN"
 "http://www.w3.org/TR/2001/REC-SVG-20010904/DTD/svg10.dtd">
<svg version="1.0" xmlns="http://www.w3.org/2000/svg"
 width="250.000000pt" height="154.000000pt" viewBox="0 0 250.000000 154.000000"
 preserveAspectRatio="xMidYMid meet">

<g transform="translate(0.000000,154.000000) scale(0.100000,-0.100000)"
fill="#000000" stroke="none">
<path d="M0 770 l0 -770 1250 0 1250 0 0 770 0 770 -1250 0 -1250 0 0 -770z
m1951 379 c64 -14 121 -63 144 -124 14 -34 16 -70 14 -178 -4 -132 -5 -136
-34 -178 -54 -77 -76 -84 -270 -87 -200 -3 -206 -1 -280 99 -61 83 -60 100 18
204 l62 84 118 1 c75 0 117 -4 117 -10 0 -6 -33 -55 -73 -108 -93 -123 -102
-139 -86 -158 15 -18 199 -20 217 -2 8 8 12 61 12 174 0 205 10 194 -177 194
l-133 0 0 30 c0 17 9 39 20 50 18 18 33 20 150 20 71 0 152 -5 181 -11z m-975
-201 c31 -17 104 -106 126 -153 14 -32 5 -52 -64 -145 l-52 -70 -124 0 c-98 0
-122 3 -115 13 90 113 164 223 161 241 -3 20 -10 21 -120 24 l-118 3 0 -241 0
-241 -97 3 -98 3 -3 238 -2 237 -46 0 -45 0 3 42 c5 67 12 69 308 66 216 -3
260 -6 286 -20z m577 8 c-4 -7 -69 -95 -143 -194 l-135 -181 -123 -1 c-96 0
-122 3 -116 13 14 22 246 332 267 355 19 20 29 22 139 22 98 0 118 -2 111 -14z"/>
</g>
</svg>
