<svg width="200" height="200" version="1.1" xmlns="http://www.w3.org/2000/svg"><path fill="rgb(0,0,0)" stroke="rgb(0,0,0)" stroke-width="1" opacity="1" d="M 0 0 L 200 0 L 200 200 L 0 200 L 0 0 Z M 156 69 L 149 72 Q 143 76 140 84 L 139 95 L 152 94 Q 154 93 152 92 L 154 84 L 157 83 L 157 70 L 156 69 Z M 160 69 L 158 71 L 159 73 Q 161 79 158 81 L 159 83 Q 163 82 164 85 Q 165 92 162 95 L 143 115 L 161 115 L 163 114 Q 174 105 179 91 Q 181 79 176 75 L 168 69 L 160 69 Z M 129 74 L 122 76 L 118 77 L 118 88 L 135 87 L 136 86 L 136 74 L 129 74 Z M 115 76 L 105 78 L 103 80 L 103 129 L 105 130 L 116 130 L 116 77 L 115 76 Z M 80 81 L 73 82 L 73 130 L 74 130 L 84 130 L 84 82 Q 84 81 80 81 Z M 66 83 L 58 85 L 56 86 L 56 95 L 70 94 L 70 83 L 66 83 Z M 52 85 L 46 86 L 46 130 L 47 130 L 55 130 L 55 86 L 52 85 Z M 38 87 L 22 90 L 19 91 L 19 99 L 26 99 L 27 98 L 34 99 L 28 99 L 26 101 L 26 130 L 27 130 L 36 130 L 36 100 L 35 99 L 37 97 L 43 97 L 43 87 L 38 87 Z M 120 96 L 118 98 L 118 109 L 129 109 L 130 108 L 130 96 L 120 96 Z M 63 101 L 62 102 L 56 102 L 56 112 Q 57 114 59 112 L 66 112 L 66 103 L 63 101 Z M 146 116 L 139 117 L 139 130 L 140 130 L 180 130 L 180 116 L 146 116 Z M 118 117 L 118 130 L 135 130 L 136 129 L 136 117 L 118 117 Z M 87 118 L 85 120 L 85 129 L 87 130 L 101 130 L 101 118 L 87 118 Z M 58 119 L 56 121 L 56 129 L 58 130 L 70 130 L 70 119 L 58 119 Z "></path><path fill="rgb(127,127,127)" stroke="rgb(127,127,127)" stroke-width="1" opacity="1" d="M 155.5 69 L 157 69.5 L 157 82.5 L 155 83.5 L 156 82.5 L 156 70.5 L 155.5 69 Z "></path><path fill="rgb(127,127,127)" stroke="rgb(127,127,127)" stroke-width="1" opacity="1" d="M 165.5 69 L 168 69.5 L 165.5 70 L 165.5 69 Z "></path><path fill="rgb(127,127,127)" stroke="rgb(127,127,127)" stroke-width="1" opacity="1" d="M 169.5 70 L 172 71.5 L 170.5 71 L 169.5 70 Z "></path><path fill="rgb(127,127,127)" stroke="rgb(127,127,127)" stroke-width="1" opacity="1" d="M 148.5 72 L 147.5 74 L 148.5 72 Z "></path><path fill="rgb(127,127,127)" stroke="rgb(127,127,127)" stroke-width="1" opacity="1" d="M 173.5 72 L 175.5 75 L 173.5 72 Z "></path><path fill="rgb(127,127,127)" stroke="rgb(127,127,127)" stroke-width="1" opacity="1" d="M 128.5 74 L 133 74.5 L 128.5 75 L 128.5 74 Z "></path><path fill="rgb(127,127,127)" stroke="rgb(127,127,127)" stroke-width="1" opacity="1" d="M 135.5 74 L 136 85.5 Q 135 88 130.5 87 L 130.5 86 L 135 86 L 135.5 74 Z "></path><path fill="rgb(127,127,127)" stroke="rgb(127,127,127)" stroke-width="1" opacity="1" d="M 122.5 75 L 126 75.5 L 122.5 76 L 122.5 75 Z "></path><path fill="rgb(127,127,127)" stroke="rgb(127,127,127)" stroke-width="1" opacity="1" d="M 145.5 75 L 143.5 78 L 145.5 75 Z "></path><path fill="rgb(127,127,127)" stroke="rgb(127,127,127)" stroke-width="1" opacity="1" d="M 176.5 76 L 177.5 78 L 176.5 76 Z "></path><path fill="rgb(127,127,127)" stroke="rgb(127,127,127)" stroke-width="1" opacity="1" d="M 108.5 77 L 112 77.5 L 108.5 78 L 108.5 77 Z "></path><path fill="rgb(127,127,127)" stroke="rgb(127,127,127)" stroke-width="1" opacity="1" d="M 115.5 78 L 116 80.5 L 115 80.5 L 115.5 78 Z "></path><path fill="rgb(127,127,127)" stroke="rgb(127,127,127)" stroke-width="1" opacity="1" d="M 103.5 79 L 104 129 L 116 129.5 L 104.5 130 L 103 128.5 L 103.5 79 Z "></path><path fill="rgb(127,127,127)" stroke="rgb(127,127,127)" stroke-width="1" opacity="1" d="M 79.5 81 Q 84 80.5 84 81.5 L 84 130 L 73.5 130 L 73 129.5 L 73 82 L 76 82.5 L 74 83 L 74 128.5 L 74.5 129 L 83 129 L 83 82.5 L 79.5 82 L 79.5 81 Z "></path><path fill="rgb(127,127,127)" stroke="rgb(127,127,127)" stroke-width="1" opacity="1" d="M 115.5 82 L 116 96.5 L 115 96.5 L 115.5 82 Z "></path><path fill="rgb(127,127,127)" stroke="rgb(127,127,127)" stroke-width="1" opacity="1" d="M 159.5 82 L 162 82.5 L 159.5 83 L 159.5 82 Z "></path><path fill="rgb(127,127,127)" stroke="rgb(127,127,127)" stroke-width="1" opacity="1" d="M 65.5 83 L 70 83.5 L 65.5 84 L 65.5 83 Z "></path><path fill="rgb(127,127,127)" stroke="rgb(127,127,127)" stroke-width="1" opacity="1" d="M 140.5 83 L 141 85.5 L 140 85.5 L 140.5 83 Z "></path><path fill="rgb(127,127,127)" stroke="rgb(127,127,127)" stroke-width="1" opacity="1" d="M 58.5 84 L 62 84.5 L 58.5 85 L 58.5 84 Z "></path><path fill="rgb(127,127,127)" stroke="rgb(127,127,127)" stroke-width="1" opacity="1" d="M 51.5 85 L 55 85.5 L 51.5 86 L 51.5 85 Z "></path><path fill="rgb(127,127,127)" stroke="rgb(127,127,127)" stroke-width="1" opacity="1" d="M 56.5 85 L 57 94.5 L 56 94.5 L 56.5 85 Z "></path><path fill="rgb(127,127,127)" stroke="rgb(127,127,127)" stroke-width="1" opacity="1" d="M 164.5 85 L 165 89.5 L 164 89.5 L 164.5 85 Z "></path><path fill="rgb(127,127,127)" stroke="rgb(127,127,127)" stroke-width="1" opacity="1" d="M 37.5 87 L 41 87.5 L 37.5 88 L 37.5 87 Z "></path><path fill="rgb(127,127,127)" stroke="rgb(127,127,127)" stroke-width="1" opacity="1" d="M 42.5 87 L 43 97 L 39 96.5 L 42 96 L 42.5 87 Z "></path><path fill="rgb(127,127,127)" stroke="rgb(127,127,127)" stroke-width="1" opacity="1" d="M 122.5 87 L 127 87.5 L 122.5 88 L 122.5 87 Z "></path><path fill="rgb(127,127,127)" stroke="rgb(127,127,127)" stroke-width="1" opacity="1" d="M 152.5 87 L 153 89.5 L 152 89.5 L 152.5 87 Z "></path><path fill="rgb(127,127,127)" stroke="rgb(127,127,127)" stroke-width="1" opacity="1" d="M 29.5 88 L 33 88.5 L 29.5 89 L 29.5 88 Z "></path><path fill="rgb(127,127,127)" stroke="rgb(127,127,127)" stroke-width="1" opacity="1" d="M 178.5 88 L 179 90.5 L 178 90.5 L 178.5 88 Z "></path><path fill="rgb(127,127,127)" stroke="rgb(127,127,127)" stroke-width="1" opacity="1" d="M 22.5 89 L 27 89.5 L 22.5 90 L 22.5 89 Z "></path><path fill="rgb(127,127,127)" stroke="rgb(127,127,127)" stroke-width="1" opacity="1" d="M 139.5 89 L 140 94 L 147 94.5 L 139 95 L 139.5 89 Z "></path><path fill="rgb(127,127,127)" stroke="rgb(127,127,127)" stroke-width="1" opacity="1" d="M 19.5 92 L 20 96.5 L 19 96.5 L 19.5 92 Z "></path><path fill="rgb(127,127,127)" stroke="rgb(127,127,127)" stroke-width="1" opacity="1" d="M 67.5 93 L 70 93.5 L 67.5 94 L 67.5 93 Z "></path><path fill="rgb(127,127,127)" stroke="rgb(127,127,127)" stroke-width="1" opacity="1" d="M 58.5 94 L 63 94.5 L 58.5 95 L 58.5 94 Z "></path><path fill="rgb(127,127,127)" stroke="rgb(127,127,127)" stroke-width="1" opacity="1" d="M 161.5 95 L 145.5 112 L 161.5 95 Z "></path><path fill="rgb(127,127,127)" stroke="rgb(127,127,127)" stroke-width="1" opacity="1" d="M 119.5 96 L 126 96.5 L 119.5 97 L 119.5 96 Z "></path><path fill="rgb(127,127,127)" stroke="rgb(127,127,127)" stroke-width="1" opacity="1" d="M 129.5 96 L 130 107.5 Q 128.3 110.8 121.5 109 L 121.5 108 L 129 108 L 129.5 96 Z "></path><path fill="rgb(127,127,127)" stroke="rgb(127,127,127)" stroke-width="1" opacity="1" d="M 30.5 97 L 36 97.5 L 36 99.5 L 36 129.5 L 35.5 130 L 26 130 L 26 100.5 L 27.5 99 L 30 99.5 L 27 100 L 27 128.5 L 27.5 129 L 35 129 L 35 99.5 L 33.5 98 Q 29.5 98.7 30.5 97 Z "></path><path fill="rgb(127,127,127)" stroke="rgb(127,127,127)" stroke-width="1" opacity="1" d="M 21.5 98 L 26 98.5 L 21.5 99 L 21.5 98 Z "></path><path fill="rgb(127,127,127)" stroke="rgb(127,127,127)" stroke-width="1" opacity="1" d="M 174.5 99 L 173.5 101 L 174.5 99 Z "></path><path fill="rgb(127,127,127)" stroke="rgb(127,127,127)" stroke-width="1" opacity="1" d="M 62.5 101 L 66 102.5 L 65.5 112 L 65 102 Q 61.7 102.7 62.5 101 Z "></path><path fill="rgb(127,127,127)" stroke="rgb(127,127,127)" stroke-width="1" opacity="1" d="M 56.5 102 L 57 111.5 L 58 112.5 L 56 111.5 L 56.5 102 Z "></path><path fill="rgb(127,127,127)" stroke="rgb(127,127,127)" stroke-width="1" opacity="1" d="M 115.5 102 L 116 113.5 L 115 113.5 L 115.5 102 Z "></path><path fill="rgb(127,127,127)" stroke="rgb(127,127,127)" stroke-width="1" opacity="1" d="M 172.5 102 L 170.5 105 L 172.5 102 Z "></path><path fill="rgb(127,127,127)" stroke="rgb(127,127,127)" stroke-width="1" opacity="1" d="M 167.5 108 L 162.5 114 L 167.5 108 Z "></path><path fill="rgb(127,127,127)" stroke="rgb(127,127,127)" stroke-width="1" opacity="1" d="M 144.5 114 L 161 114.5 L 144.5 115 L 144.5 114 Z "></path><path fill="rgb(127,127,127)" stroke="rgb(127,127,127)" stroke-width="1" opacity="1" d="M 115.5 115 L 116 127.5 L 115 127.5 L 115.5 115 Z "></path><path fill="rgb(127,127,127)" stroke="rgb(127,127,127)" stroke-width="1" opacity="1" d="M 145.5 116 L 164 116.5 L 145.5 117 L 145.5 116 Z "></path><path fill="rgb(127,127,127)" stroke="rgb(127,127,127)" stroke-width="1" opacity="1" d="M 179.5 116 L 180 130 L 139 129.5 L 179 129 L 179.5 116 Z "></path><path fill="rgb(127,127,127)" stroke="rgb(127,127,127)" stroke-width="1" opacity="1" d="M 118.5 117 L 134 117.5 L 118.5 118 L 118.5 117 Z "></path><path fill="rgb(127,127,127)" stroke="rgb(127,127,127)" stroke-width="1" opacity="1" d="M 135.5 117 L 136 128.5 L 134.5 130 L 118.5 130 L 118.5 129 L 135 129 L 135.5 117 Z "></path><path fill="rgb(127,127,127)" stroke="rgb(127,127,127)" stroke-width="1" opacity="1" d="M 86.5 118 L 99 118.5 L 86 119 L 86 129 L 100 129 L 100.5 118 L 101 130 L 86.5 130 L 85 128.5 L 85 119.5 L 86.5 118 Z "></path><path fill="rgb(127,127,127)" stroke="rgb(127,127,127)" stroke-width="1" opacity="1" d="M 57.5 119 L 68 119.5 L 57 120 L 57 129 L 69.5 129 L 69.5 130 L 57.5 130 L 56 128.5 L 56 120.5 L 57.5 119 Z "></path><path fill="rgb(127,127,127)" stroke="rgb(127,127,127)" stroke-width="1" opacity="1" d="M 46.5 129 L 55 129.5 L 46.5 130 L 46.5 129 Z "></path><path fill="rgb(254,254,254)" stroke="rgb(254,254,254)" stroke-width="1" opacity="1" d="M 159 69 Q 170.9 68.3 176 75.5 L 178 78.5 L 179 87.5 L 175 98.5 L 161.5 114 L 144.5 114 L 143.5 115 L 143 113.5 L 162 95.5 L 165 89.5 L 165 85.5 Q 163.7 81.3 159 82 L 159 69 Z "></path><path fill="rgb(254,254,254)" stroke="rgb(254,254,254)" stroke-width="1" opacity="1" d="M 154.5 70 L 156 70.5 L 156 82.5 Q 150.4 85.3 152 94 L 140 94 L 140 86.5 L 146 74 L 154.5 70 Z "></path><path fill="rgb(254,254,254)" stroke="rgb(254,254,254)" stroke-width="1" opacity="1" d="M 133.5 74 L 135 74.5 L 135 86 L 118 88 L 118 77.5 L 119.5 76 L 125.5 76 L 133.5 74 Z "></path><path fill="rgb(254,254,254)" stroke="rgb(254,254,254)" stroke-width="1" opacity="1" d="M 112.5 77 L 116 77.5 L 115 80.5 L 115 82.5 L 115 96.5 L 116 97.5 L 115 99.5 L 116 101.5 L 115 102.5 L 115 113.5 L 115 115.5 L 115 127.5 L 116 128.5 L 104 129 L 104 78.5 L 104.5 78 L 111.5 78 L 112.5 77 Z "></path><path fill="rgb(254,254,254)" stroke="rgb(254,254,254)" stroke-width="1" opacity="1" d="M 76.5 82 Q 82.8 81.3 83 82.5 L 83 129 L 74.5 129 L 74 128.5 L 74 83 L 76.5 82 Z "></path><path fill="rgb(254,254,254)" stroke="rgb(254,254,254)" stroke-width="1" opacity="1" d="M 62.5 84 L 70 84 L 70 93 L 57.5 95 L 57 85 L 62.5 84 Z "></path><path fill="rgb(254,254,254)" stroke="rgb(254,254,254)" stroke-width="1" opacity="1" d="M 47.5 86 L 54.5 86 L 55 86.5 L 55 129 L 46.5 129 L 46 128.5 L 46 87.5 L 47.5 86 Z "></path><path fill="rgb(254,254,254)" stroke="rgb(254,254,254)" stroke-width="1" opacity="1" d="M 41.5 87 L 42 96 L 29.5 98 L 21.5 98 L 20.5 99 Q 17.8 97.7 20 96.5 L 19 91.5 L 20.5 90 L 26.5 90 L 41.5 87 Z "></path><path fill="rgb(254,254,254)" stroke="rgb(254,254,254)" stroke-width="1" opacity="1" d="M 126.5 96 L 129 96.5 L 129 108 L 118 109 L 118 97 L 125.5 97 L 126.5 96 Z "></path><path fill="rgb(254,254,254)" stroke="rgb(254,254,254)" stroke-width="1" opacity="1" d="M 30.5 99 Q 35 98.5 35 99.5 L 35 129 L 27.5 129 L 27 128.5 L 27 100 L 30.5 99 Z "></path><path fill="rgb(254,254,254)" stroke="rgb(254,254,254)" stroke-width="1" opacity="1" d="M 57 102 L 65 102 L 65 112 L 57 112 L 57 102 Z "></path><path fill="rgb(254,254,254)" stroke="rgb(254,254,254)" stroke-width="1" opacity="1" d="M 164.5 116 L 179 116 L 179 129 L 139 128.5 L 139 126.5 L 139 118.5 L 140.5 117 L 163.5 117 L 164.5 116 Z "></path><path fill="rgb(254,254,254)" stroke="rgb(254,254,254)" stroke-width="1" opacity="1" d="M 134.5 117 L 135 129 L 118 129 L 118 118 L 133.5 118 L 134.5 117 Z "></path><path fill="rgb(254,254,254)" stroke="rgb(254,254,254)" stroke-width="1" opacity="1" d="M 99.5 118 L 100 129 L 86 129 L 86 119 L 98.5 119 L 99.5 118 Z "></path><path fill="rgb(254,254,254)" stroke="rgb(254,254,254)" stroke-width="1" opacity="1" d="M 68.5 119 L 70 120.5 L 70 129 L 57 129 L 57 120 L 67.5 120 L 68.5 119 Z "></path></svg>