<svg width="200" height="200" viewBox="0 0 200 200" fill="none" xmlns="http://www.w3.org/2000/svg">
<rect width="200" height="200" fill="black"/>
<path d="M151.599 94.0566C148.151 94.0566 145.355 96.8635 145.355 100.325C145.355 103.786 148.151 106.593 151.599 106.593C155.046 106.593 157.842 103.786 157.842 100.325C157.842 96.8635 155.046 94.0566 151.599 94.0566ZM151.599 104.588C149.253 104.588 147.352 102.68 147.352 100.325C147.352 97.9694 149.253 96.0616 151.599 96.0616C153.945 96.0616 155.845 97.9694 155.845 100.325C155.845 102.68 153.945 104.588 151.599 104.588Z" fill="white"/>
<path d="M168.906 93L162.156 106.501H175.654L168.906 93ZM168.904 97.318L172.467 104.519H165.343L168.902 97.318H168.904Z" fill="white"/>
<path d="M118.333 93L111.648 106.501H113.854L115.882 102.404H120.774L122.794 106.501H124.999L118.333 93ZM116.864 100.422L118.329 97.4636L119.794 100.422H116.864Z" fill="white"/>
<path d="M35.2655 106.484H33.0625L39.7388 93L46.4066 106.484H44.2057L39.7388 97.451L35.2655 106.484Z" fill="white"/>
<path d="M17.3916 94.0621L16 95.4846L20.8853 100.423L16.0462 105.311L17.4315 106.731L22.279 101.829L27.0192 106.619L28.4171 105.218L23.6706 100.421L28.5811 95.4551L27.1916 94.041L22.279 99.0133L17.3916 94.0621Z" fill="white"/>
<path d="M85.9649 94.0566C84.2475 94.0566 82.755 94.6771 81.5295 95.9033C80.3019 97.1295 79.6797 98.6047 79.6797 100.289C79.6797 101.973 80.2914 103.452 81.498 104.7C82.7109 105.955 84.1718 106.591 85.8388 106.591H86.049C87.7349 106.591 89.2022 105.957 90.4109 104.706C91.6133 103.463 92.2208 101.975 92.2208 100.289C92.2208 98.6026 91.6049 97.1189 90.3878 95.8969C89.1707 94.675 87.6824 94.0566 85.9649 94.0566ZM88.9247 103.328C88.0902 104.174 87.1169 104.586 85.9502 104.586C84.7835 104.586 83.8124 104.174 82.9758 103.328C82.1391 102.479 81.7313 101.494 81.7313 100.316C81.7313 99.1386 82.137 98.1551 82.9737 97.3131C83.8082 96.471 84.7836 96.0616 85.9544 96.0616C87.1253 96.0616 88.0986 96.471 88.9289 97.3131C89.7614 98.1572 90.167 99.1407 90.167 100.318C90.167 101.496 89.7592 102.482 88.9226 103.33L88.9247 103.328Z" fill="white"/>
<path d="M53.0547 96.3867V96.1165V99.4806V101.45V104.514V106.483V106.5L55.016 106.517V106.483H57.6016V104.514H55.016V101.45H57.6016V99.4806H55.016V96.1165H57.6016V94.1475H53.0547V96.3867Z" fill="white"/>
<path d="M104.558 97.728C104.558 95.7526 102.959 94.1465 100.991 94.1465H100.207V96.1156H100.991C101.876 96.1156 102.597 96.8395 102.597 97.728C102.597 98.6165 101.876 99.3382 100.991 99.3382H100.207V101.307H100.991C101.056 101.307 101.119 101.32 101.182 101.326C101.266 101.337 101.348 101.352 101.426 101.375C101.508 101.398 101.588 101.425 101.664 101.459C101.729 101.491 101.792 101.525 101.853 101.563C101.918 101.605 101.977 101.653 102.034 101.704C102.086 101.75 102.135 101.797 102.181 101.85C102.231 101.907 102.282 101.966 102.326 102.029C102.366 102.088 102.397 102.154 102.429 102.219C102.465 102.295 102.494 102.373 102.517 102.453C102.54 102.531 102.559 102.612 102.572 102.694C102.582 102.768 102.595 102.842 102.595 102.92C102.595 102.949 102.589 102.977 102.587 103.004C102.58 103.127 102.559 103.243 102.528 103.357C102.376 103.893 101.958 104.313 101.424 104.462C101.311 104.494 101.195 104.515 101.073 104.522C101.046 104.522 101.021 104.53 100.991 104.53H100.207V106.499H100.623H100.945H100.991C101.079 106.499 101.166 106.493 101.252 106.486C101.376 106.478 101.5 106.461 101.62 106.44C101.75 106.417 101.878 106.387 102.002 106.351C102.185 106.296 102.362 106.227 102.532 106.144C103.259 105.792 103.848 105.203 104.199 104.473C104.281 104.302 104.352 104.125 104.407 103.941C104.445 103.817 104.474 103.688 104.497 103.557C104.518 103.435 104.535 103.312 104.544 103.188C104.55 103.099 104.556 103.01 104.556 102.92C104.556 102.907 104.556 102.894 104.556 102.882C104.556 102.778 104.55 102.677 104.539 102.576C104.531 102.489 104.521 102.403 104.506 102.316C104.491 102.225 104.472 102.137 104.449 102.048C104.43 101.97 104.409 101.894 104.384 101.818C104.359 101.738 104.329 101.658 104.298 101.58C104.27 101.51 104.241 101.442 104.209 101.375C104.176 101.303 104.138 101.231 104.098 101.162C104.062 101.1 104.027 101.039 103.987 100.98C103.945 100.915 103.9 100.851 103.854 100.79C103.812 100.733 103.77 100.678 103.726 100.626C103.678 100.567 103.627 100.51 103.575 100.455C103.533 100.41 103.488 100.366 103.444 100.324C104.142 99.6632 104.554 98.7347 104.554 97.728H104.558Z" fill="white"/>
<path d="M71.2677 99.6102C71.2677 99.6102 70.6308 99.359 69.9602 99.359H69.1761V96.1195H71.7617V94.1504H67.2148V106.503L69.9602 106.52C71.9278 106.52 73.5275 104.914 73.5275 102.938C73.5275 101.461 72.6404 100.155 71.2698 99.6102H71.2677ZM69.9602 104.551H69.1761V101.328H69.9602C70.8452 101.328 71.5641 102.05 71.5641 102.938C71.5641 103.827 70.8431 104.549 69.9602 104.549V104.551Z" fill="white"/>
<path d="M184.998 95.7561C184.998 94.3464 183.854 93.1982 182.45 93.1982C181.046 93.1982 179.902 94.3464 179.902 95.7561C179.902 97.014 180.813 98.0607 182.009 98.2718L181.22 99.5128L182.54 100.365L184.685 96.9971H184.67C184.75 96.8557 184.821 96.708 184.872 96.5497C184.954 96.3006 184.998 96.0326 184.998 95.7561ZM182.45 96.7375C181.91 96.7375 181.473 96.2964 181.473 95.7561C181.473 95.2159 181.912 94.7748 182.45 94.7748C182.988 94.7748 183.428 95.2159 183.428 95.7561C183.428 96.2964 182.988 96.7375 182.45 96.7375Z" fill="white"/>
<path d="M137.372 100.33H137.376C138.074 99.6674 138.492 98.7347 138.492 97.728C138.492 95.7526 136.893 94.1465 134.925 94.1465H132.18V106.499H134.925C136.893 106.499 138.492 104.893 138.492 102.918C138.492 101.909 138.07 100.989 137.372 100.328V100.33ZM134.925 104.53H134.141V101.307H134.925C135.81 101.307 136.531 102.029 136.531 102.918C136.531 103.806 135.81 104.528 134.925 104.528V104.53ZM134.925 99.3382H134.141V96.1156H134.925C135.81 96.1156 136.531 96.8395 136.531 97.728C136.531 98.6165 135.81 99.3382 134.925 99.3382Z" fill="white"/>
</svg>
